<svg width="161" height="53" viewBox="0 0 161 53" fill="none" xmlns="http://www.w3.org/2000/svg">
<rect width="161" height="53" rx="5" fill="#F5F6FA"/>
<path d="M39.3691 32H37.7384L41.4025 21.8182H43.1774L46.8414 32H45.2107L42.3322 23.6676H42.2526L39.3691 32ZM39.6426 28.0128H44.9323V29.3054H39.6426V28.0128ZM50.7425 34.8636V24.3636H52.1942V25.6016H52.3184C52.4046 25.4425 52.5289 25.2585 52.6913 25.0497C52.8537 24.8409 53.0791 24.6586 53.3675 24.5028C53.6558 24.3438 54.037 24.2642 54.5109 24.2642C55.1274 24.2642 55.6776 24.42 56.1615 24.7315C56.6454 25.0431 57.0249 25.4922 57.3 26.0788C57.5784 26.6655 57.7176 27.3714 57.7176 28.1967C57.7176 29.022 57.58 29.7296 57.305 30.3196C57.0299 30.9062 56.652 31.3587 56.1714 31.6768C55.6908 31.9917 55.1423 32.1491 54.5258 32.1491C54.0618 32.1491 53.6823 32.0713 53.3873 31.9155C53.0957 31.7597 52.867 31.5774 52.7013 31.3686C52.5355 31.1598 52.4079 30.9742 52.3184 30.8118H52.229V34.8636H50.7425ZM52.1991 28.1818C52.1991 28.7187 52.277 29.1894 52.4328 29.5938C52.5886 29.9981 52.814 30.3146 53.1089 30.5433C53.4039 30.7687 53.7652 30.8814 54.1927 30.8814C54.6369 30.8814 55.0081 30.7637 55.3064 30.5284C55.6047 30.2898 55.83 29.9666 55.9825 29.5589C56.1383 29.1513 56.2162 28.6922 56.2162 28.1818C56.2162 27.678 56.1399 27.2256 55.9875 26.8246C55.8383 26.4235 55.613 26.107 55.3113 25.875C55.0131 25.643 54.6402 25.527 54.1927 25.527C53.7619 25.527 53.3973 25.638 53.099 25.8601C52.804 26.0821 52.5803 26.392 52.4278 26.7898C52.2754 27.1875 52.1991 27.6515 52.1991 28.1818ZM61.9331 34.8636V24.3636H63.3848V25.6016H63.5091C63.5952 25.4425 63.7195 25.2585 63.8819 25.0497C64.0443 24.8409 64.2697 24.6586 64.5581 24.5028C64.8464 24.3438 65.2276 24.2642 65.7015 24.2642C66.318 24.2642 66.8682 24.42 67.3521 24.7315C67.836 25.0431 68.2155 25.4922 68.4906 26.0788C68.769 26.6655 68.9082 27.3714 68.9082 28.1967C68.9082 29.022 68.7707 29.7296 68.4956 30.3196C68.2205 30.9062 67.8426 31.3587 67.3621 31.6768C66.8815 31.9917 66.3329 32.1491 65.7165 32.1491C65.2524 32.1491 64.8729 32.0713 64.578 31.9155C64.2863 31.7597 64.0576 31.5774 63.8919 31.3686C63.7262 31.1598 63.5986 30.9742 63.5091 30.8118H63.4196V34.8636H61.9331ZM63.3898 28.1818C63.3898 28.7187 63.4676 29.1894 63.6234 29.5938C63.7792 29.9981 64.0046 30.3146 64.2996 30.5433C64.5945 30.7687 64.9558 30.8814 65.3834 30.8814C65.8275 30.8814 66.1987 30.7637 66.497 30.5284C66.7953 30.2898 67.0207 29.9666 67.1731 29.5589C67.3289 29.1513 67.4068 28.6922 67.4068 28.1818C67.4068 27.678 67.3306 27.2256 67.1781 26.8246C67.029 26.4235 66.8036 26.107 66.502 25.875C66.2037 25.643 65.8308 25.527 65.3834 25.527C64.9525 25.527 64.5879 25.638 64.2896 25.8601C63.9946 26.0821 63.7709 26.392 63.6184 26.7898C63.466 27.1875 63.3898 27.6515 63.3898 28.1818ZM74.6102 21.8182V32H73.1237V21.8182H74.6102ZM82.4512 32.1541C81.6989 32.1541 81.0509 31.9934 80.5073 31.6719C79.9671 31.3471 79.5495 30.8913 79.2545 30.3047C78.9628 29.7147 78.817 29.0237 78.817 28.2315C78.817 27.4493 78.9628 26.7599 79.2545 26.1634C79.5495 25.5668 79.9605 25.1011 80.4874 24.7663C81.0178 24.4316 81.6375 24.2642 82.3468 24.2642C82.7777 24.2642 83.1953 24.3355 83.5997 24.478C84.004 24.6205 84.3669 24.8442 84.6884 25.1491C85.0099 25.4541 85.2635 25.8501 85.4491 26.3374C85.6347 26.8213 85.7275 27.4096 85.7275 28.1023V28.6293H79.6572V27.5156H84.2708C84.2708 27.1245 84.1913 26.7782 84.0322 26.4766C83.8731 26.1716 83.6494 25.9313 83.361 25.7557C83.076 25.58 82.7412 25.4922 82.3568 25.4922C81.9392 25.4922 81.5746 25.5949 81.263 25.8004C80.9548 26.0026 80.7161 26.2678 80.5471 26.5959C80.3814 26.9207 80.2985 27.2737 80.2985 27.6548V28.5249C80.2985 29.0353 80.388 29.4695 80.567 29.8274C80.7493 30.1854 81.0028 30.4588 81.3276 30.6477C81.6525 30.8333 82.032 30.9261 82.4661 30.9261C82.7479 30.9261 83.0047 30.8864 83.2367 30.8068C83.4687 30.724 83.6693 30.6013 83.8383 30.4389C84.0073 30.2765 84.1366 30.076 84.2261 29.8374L85.633 30.0909C85.5204 30.5052 85.3182 30.8681 85.0265 31.1797C84.7382 31.4879 84.3752 31.7282 83.9377 31.9006C83.5035 32.0696 83.008 32.1541 82.4512 32.1541ZM97.8374 21.8182V32H96.3012V21.8182H97.8374ZM105.921 32H102.625V21.8182H106.025C107.023 21.8182 107.88 22.022 108.596 22.4297C109.311 22.834 109.86 23.4157 110.241 24.1747C110.626 24.9304 110.818 25.8369 110.818 26.8942C110.818 27.9548 110.624 28.8662 110.236 29.6286C109.852 30.3909 109.295 30.9775 108.566 31.3885C107.837 31.7962 106.955 32 105.921 32ZM104.161 30.6577H105.836C106.612 30.6577 107.257 30.5118 107.77 30.2202C108.284 29.9252 108.668 29.4993 108.924 28.9425C109.179 28.3823 109.306 27.6996 109.306 26.8942C109.306 26.0954 109.179 25.4176 108.924 24.8608C108.672 24.304 108.296 23.8814 107.795 23.593C107.295 23.3047 106.673 23.1605 105.931 23.1605H104.161V30.6577Z" fill="#151940"/>
</svg>
