<svg width="43" height="12" viewBox="0 0 43 12" fill="none" xmlns="http://www.w3.org/2000/svg">
<path opacity="0.9" d="M4.93578 11.12C3.95578 11.12 3.10578 10.905 2.38578 10.475C1.66578 10.035 1.11078 9.41 0.720781 8.6C0.330781 7.78 0.135781 6.815 0.135781 5.705C0.135781 4.595 0.330781 3.635 0.720781 2.825C1.11078 2.005 1.66578 1.38 2.38578 0.95C3.10578 0.519999 3.95578 0.304999 4.93578 0.304999C5.66578 0.304999 6.33578 0.419999 6.94578 0.649999C7.55578 0.879999 8.08578 1.225 8.53578 1.685L8.14578 2.42C7.64578 1.96 7.14078 1.63 6.63078 1.43C6.13078 1.23 5.57078 1.13 4.95078 1.13C3.73078 1.13 2.78078 1.53 2.10078 2.33C1.43078 3.13 1.09578 4.255 1.09578 5.705C1.09578 7.165 1.43078 8.295 2.10078 9.095C2.77078 9.895 3.72078 10.295 4.95078 10.295C5.57078 10.295 6.13078 10.195 6.63078 9.995C7.14078 9.795 7.64578 9.465 8.14578 9.005L8.53578 9.74C8.08578 10.2 7.55578 10.545 6.94578 10.775C6.33578 11.005 5.66578 11.12 4.93578 11.12ZM13.2607 3.545C14.1407 3.545 14.7957 3.775 15.2257 4.235C15.6657 4.695 15.8857 5.39 15.8857 6.32V11H14.9857V9.695C14.7757 10.145 14.4707 10.495 14.0707 10.745C13.6707 10.985 13.2107 11.105 12.6907 11.105C12.2207 11.105 11.7907 11.01 11.4007 10.82C11.0107 10.63 10.7007 10.365 10.4707 10.025C10.2507 9.685 10.1407 9.31 10.1407 8.9C10.1407 8.36 10.2807 7.94 10.5607 7.64C10.8407 7.34 11.3057 7.125 11.9557 6.995C12.6057 6.865 13.5107 6.8 14.6707 6.8H14.9857V6.245C14.9857 5.585 14.8507 5.105 14.5807 4.805C14.3107 4.495 13.8857 4.34 13.3057 4.34C12.8657 4.34 12.4407 4.405 12.0307 4.535C11.6307 4.655 11.2157 4.855 10.7857 5.135L10.4407 4.43C10.8107 4.16 11.2507 3.945 11.7607 3.785C12.2707 3.625 12.7707 3.545 13.2607 3.545ZM12.7657 10.31C13.4157 10.31 13.9457 10.09 14.3557 9.65C14.7757 9.21 14.9857 8.65 14.9857 7.97V7.475H14.7007C13.7407 7.475 13.0057 7.515 12.4957 7.595C11.9857 7.675 11.6257 7.815 11.4157 8.015C11.2057 8.205 11.1007 8.485 11.1007 8.855C11.1007 9.275 11.2607 9.625 11.5807 9.905C11.9007 10.175 12.2957 10.31 12.7657 10.31ZM21.6812 3.545C23.4312 3.545 24.3062 4.485 24.3062 6.365V11H23.3912V6.425C23.3912 5.705 23.2462 5.18 22.9562 4.85C22.6662 4.52 22.2062 4.355 21.5762 4.355C20.8562 4.355 20.2762 4.575 19.8362 5.015C19.4062 5.455 19.1912 6.045 19.1912 6.785V11H18.2762V3.725H19.1762V4.97C19.4062 4.51 19.7362 4.16 20.1662 3.92C20.6062 3.67 21.1112 3.545 21.6812 3.545ZM29.6394 11.105C28.9494 11.105 28.3444 10.95 27.8244 10.64C27.3144 10.33 26.9194 9.89 26.6394 9.32C26.3594 8.75 26.2194 8.095 26.2194 7.355C26.2194 6.605 26.3594 5.94 26.6394 5.36C26.9294 4.78 27.3344 4.335 27.8544 4.025C28.3744 3.705 28.9844 3.545 29.6844 3.545C30.1744 3.545 30.6444 3.63 31.0944 3.8C31.5544 3.97 31.9244 4.205 32.2044 4.505L31.8594 5.225C31.4894 4.915 31.1294 4.69 30.7794 4.55C30.4394 4.41 30.0844 4.34 29.7144 4.34C28.9344 4.34 28.3144 4.61 27.8544 5.15C27.4044 5.68 27.1794 6.415 27.1794 7.355C27.1794 8.285 27.4044 9.01 27.8544 9.53C28.3044 10.04 28.9194 10.295 29.6994 10.295C30.0694 10.295 30.4244 10.225 30.7644 10.085C31.1144 9.945 31.4794 9.725 31.8594 9.425L32.2044 10.13C31.9044 10.43 31.5244 10.67 31.0644 10.85C30.6044 11.02 30.1294 11.105 29.6394 11.105ZM39.7885 7.475H34.2835C34.3135 8.385 34.5535 9.085 35.0035 9.575C35.4535 10.055 36.0935 10.295 36.9235 10.295C37.8035 10.295 38.5985 9.995 39.3085 9.395L39.6685 10.115C39.3485 10.415 38.9385 10.655 38.4385 10.835C37.9485 11.015 37.4435 11.105 36.9235 11.105C35.8135 11.105 34.9385 10.77 34.2985 10.1C33.6585 9.43 33.3385 8.51 33.3385 7.34C33.3385 6.59 33.4785 5.93 33.7585 5.36C34.0485 4.78 34.4485 4.335 34.9585 4.025C35.4785 3.705 36.0735 3.545 36.7435 3.545C37.6935 3.545 38.4385 3.855 38.9785 4.475C39.5185 5.095 39.7885 5.96 39.7885 7.07V7.475ZM36.7435 4.295C36.0435 4.295 35.4835 4.515 35.0635 4.955C34.6435 5.395 34.3935 6.01 34.3135 6.8H38.9485C38.9285 6 38.7285 5.385 38.3485 4.955C37.9685 4.515 37.4335 4.295 36.7435 4.295ZM41.699 11V0.424999H42.614V11H41.699Z" fill="#202020"/>
</svg>
