<svg width="305" height="36" viewBox="0 0 305 36" fill="none" xmlns="http://www.w3.org/2000/svg">
<path d="M0.357532 13V1.36364H4.28935C5.19844 1.36364 5.94465 1.51894 6.52799 1.82955C7.11132 2.13636 7.54314 2.55871 7.82344 3.09659C8.10374 3.63447 8.2439 4.24621 8.2439 4.93182C8.2439 5.61742 8.10374 6.22538 7.82344 6.75568C7.54314 7.28598 7.11321 7.70265 6.53367 8.00568C5.95412 8.30492 5.21359 8.45455 4.31208 8.45455H1.13026V7.18182H4.26662C4.88783 7.18182 5.38783 7.09091 5.76662 6.90909C6.1492 6.72727 6.42571 6.4697 6.59617 6.13636C6.77041 5.79924 6.85753 5.39773 6.85753 4.93182C6.85753 4.46591 6.77041 4.05871 6.59617 3.71023C6.42193 3.36174 6.14352 3.0928 5.76094 2.90341C5.37836 2.71023 4.87268 2.61364 4.2439 2.61364H1.76662V13H0.357532ZM5.8348 7.77273L8.69844 13H7.06208L4.2439 7.77273H5.8348ZM13.4118 13.1818C12.6239 13.1818 11.9326 12.9943 11.3379 12.6193C10.747 12.2443 10.2849 11.7197 9.95156 11.0455C9.62202 10.3712 9.45725 9.58333 9.45725 8.68182C9.45725 7.77273 9.62202 6.97917 9.95156 6.30114C10.2849 5.62311 10.747 5.09659 11.3379 4.72159C11.9326 4.34659 12.6239 4.15909 13.4118 4.15909C14.1997 4.15909 14.8891 4.34659 15.48 4.72159C16.0747 5.09659 16.5368 5.62311 16.8663 6.30114C17.1997 6.97917 17.3663 7.77273 17.3663 8.68182C17.3663 9.58333 17.1997 10.3712 16.8663 11.0455C16.5368 11.7197 16.0747 12.2443 15.48 12.6193C14.8891 12.9943 14.1997 13.1818 13.4118 13.1818ZM13.4118 11.9773C14.0103 11.9773 14.5027 11.8239 14.8891 11.517C15.2754 11.2102 15.5614 10.8068 15.747 10.3068C15.9326 9.80682 16.0254 9.26515 16.0254 8.68182C16.0254 8.09848 15.9326 7.55492 15.747 7.05114C15.5614 6.54735 15.2754 6.14015 14.8891 5.82955C14.5027 5.51894 14.0103 5.36364 13.4118 5.36364C12.8133 5.36364 12.3209 5.51894 11.9345 5.82955C11.5482 6.14015 11.2622 6.54735 11.0766 7.05114C10.891 7.55492 10.7982 8.09848 10.7982 8.68182C10.7982 9.26515 10.891 9.80682 11.0766 10.3068C11.2622 10.8068 11.5482 11.2102 11.9345 11.517C12.3209 11.8239 12.8133 11.9773 13.4118 11.9773ZM22.5087 13.1818C21.7208 13.1818 21.0295 12.9943 20.4348 12.6193C19.8439 12.2443 19.3818 11.7197 19.0484 11.0455C18.7189 10.3712 18.5541 9.58333 18.5541 8.68182C18.5541 7.77273 18.7189 6.97917 19.0484 6.30114C19.3818 5.62311 19.8439 5.09659 20.4348 4.72159C21.0295 4.34659 21.7208 4.15909 22.5087 4.15909C23.2965 4.15909 23.9859 4.34659 24.5768 4.72159C25.1715 5.09659 25.6337 5.62311 25.9632 6.30114C26.2965 6.97917 26.4632 7.77273 26.4632 8.68182C26.4632 9.58333 26.2965 10.3712 25.9632 11.0455C25.6337 11.7197 25.1715 12.2443 24.5768 12.6193C23.9859 12.9943 23.2965 13.1818 22.5087 13.1818ZM22.5087 11.9773C23.1072 11.9773 23.5996 11.8239 23.9859 11.517C24.3723 11.2102 24.6583 10.8068 24.8439 10.3068C25.0295 9.80682 25.1223 9.26515 25.1223 8.68182C25.1223 8.09848 25.0295 7.55492 24.8439 7.05114C24.6583 6.54735 24.3723 6.14015 23.9859 5.82955C23.5996 5.51894 23.1072 5.36364 22.5087 5.36364C21.9102 5.36364 21.4178 5.51894 21.0314 5.82955C20.645 6.14015 20.359 6.54735 20.1734 7.05114C19.9878 7.55492 19.895 8.09848 19.895 8.68182C19.895 9.26515 19.9878 9.80682 20.1734 10.3068C20.359 10.8068 20.645 11.2102 21.0314 11.517C21.4178 11.8239 21.9102 11.9773 22.5087 11.9773ZM28.0601 13V4.27273H29.3555V5.63636H29.4692C29.651 5.17045 29.9446 4.80871 30.3499 4.55114C30.7552 4.28977 31.2419 4.15909 31.8101 4.15909C32.3858 4.15909 32.865 4.28977 33.2476 4.55114C33.634 4.80871 33.9351 5.17045 34.151 5.63636H34.2419C34.4654 5.18561 34.8006 4.82765 35.2476 4.5625C35.6946 4.29356 36.2305 4.15909 36.8555 4.15909C37.6358 4.15909 38.2741 4.40341 38.7703 4.89205C39.2665 5.37689 39.5146 6.13258 39.5146 7.15909V13H38.1737V7.15909C38.1737 6.51515 37.9976 6.05492 37.6453 5.77841C37.293 5.50189 36.8783 5.36364 36.401 5.36364C35.7874 5.36364 35.312 5.54924 34.9749 5.92045C34.6377 6.28788 34.4692 6.75379 34.4692 7.31818V13H33.1055V7.02273C33.1055 6.52652 32.9446 6.12689 32.6226 5.82386C32.3006 5.51705 31.8858 5.36364 31.3783 5.36364C31.0298 5.36364 30.704 5.45644 30.401 5.64205C30.1018 5.82765 29.8593 6.08523 29.6737 6.41477C29.4919 6.74053 29.401 7.11742 29.401 7.54545V13H28.0601ZM55.1118 5H53.7027C53.6194 4.5947 53.4735 4.23864 53.2652 3.93182C53.0607 3.625 52.8107 3.36742 52.5152 3.15909C52.2235 2.94697 51.8997 2.78788 51.5436 2.68182C51.1876 2.57576 50.8163 2.52273 50.43 2.52273C49.7254 2.52273 49.0872 2.70076 48.5152 3.05682C47.947 3.41288 47.4944 3.9375 47.1572 4.63068C46.8239 5.32386 46.6572 6.17424 46.6572 7.18182C46.6572 8.18939 46.8239 9.03977 47.1572 9.73295C47.4944 10.4261 47.947 10.9508 48.5152 11.3068C49.0872 11.6629 49.7254 11.8409 50.43 11.8409C50.8163 11.8409 51.1876 11.7879 51.5436 11.6818C51.8997 11.5758 52.2235 11.4186 52.5152 11.2102C52.8107 10.9981 53.0607 10.7386 53.2652 10.4318C53.4735 10.1212 53.6194 9.76515 53.7027 9.36364H55.1118C55.0057 9.95833 54.8126 10.4905 54.5322 10.9602C54.2519 11.4299 53.9035 11.8295 53.4868 12.1591C53.0701 12.4848 52.6023 12.733 52.0834 12.9034C51.5682 13.0739 51.0171 13.1591 50.43 13.1591C49.4376 13.1591 48.555 12.9167 47.7822 12.4318C47.0095 11.947 46.4016 11.2576 45.9584 10.3636C45.5152 9.4697 45.2936 8.40909 45.2936 7.18182C45.2936 5.95455 45.5152 4.89394 45.9584 4C46.4016 3.10606 47.0095 2.41667 47.7822 1.93182C48.555 1.44697 49.4376 1.20455 50.43 1.20455C51.0171 1.20455 51.5682 1.28977 52.0834 1.46023C52.6023 1.63068 53.0701 1.88068 53.4868 2.21023C53.9035 2.53598 54.2519 2.93371 54.5322 3.40341C54.8126 3.86932 55.0057 4.40151 55.1118 5ZM58.0979 1.36364V13H56.757V1.36364H58.0979ZM63.7629 13.1818C62.922 13.1818 62.1966 12.9962 61.5868 12.625C60.9807 12.25 60.5129 11.7273 60.1834 11.0568C59.8576 10.3826 59.6947 9.59848 59.6947 8.70455C59.6947 7.81061 59.8576 7.02273 60.1834 6.34091C60.5129 5.6553 60.9713 5.12121 61.5584 4.73864C62.1493 4.35227 62.8387 4.15909 63.6266 4.15909C64.0811 4.15909 64.53 4.23485 64.9732 4.38636C65.4163 4.53788 65.8197 4.78409 66.1834 5.125C66.547 5.46212 66.8368 5.90909 67.0527 6.46591C67.2686 7.02273 67.3766 7.70833 67.3766 8.52273V9.09091H60.6493V7.93182H66.0129C66.0129 7.43939 65.9144 7 65.7175 6.61364C65.5243 6.22727 65.2478 5.92235 64.8879 5.69886C64.5319 5.47538 64.1114 5.36364 63.6266 5.36364C63.0925 5.36364 62.6304 5.49621 62.2402 5.76136C61.8538 6.02273 61.5565 6.36364 61.3482 6.78409C61.1398 7.20455 61.0357 7.6553 61.0357 8.13636V8.90909C61.0357 9.56818 61.1493 10.1269 61.3766 10.5852C61.6076 11.0398 61.9277 11.3864 62.3368 11.625C62.7459 11.8598 63.2213 11.9773 63.7629 11.9773C64.1152 11.9773 64.4334 11.928 64.7175 11.8295C65.0054 11.7273 65.2535 11.5758 65.4618 11.375C65.6701 11.1705 65.8311 10.9167 65.9447 10.6136L67.2402 10.9773C67.1038 11.4167 66.8747 11.803 66.5527 12.1364C66.2307 12.4659 65.833 12.7235 65.3595 12.9091C64.886 13.0909 64.3538 13.1818 63.7629 13.1818ZM71.5345 13.2045C70.9815 13.2045 70.4796 13.1004 70.0288 12.892C69.5781 12.6799 69.2201 12.375 68.955 11.9773C68.6898 11.5758 68.5572 11.0909 68.5572 10.5227C68.5572 10.0227 68.6557 9.61742 68.8527 9.30682C69.0497 8.99242 69.3129 8.74621 69.6425 8.56818C69.972 8.39015 70.3357 8.25758 70.7334 8.17045C71.1349 8.07955 71.5383 8.00758 71.9436 7.95455C72.4739 7.88636 72.9038 7.83523 73.2334 7.80114C73.5667 7.76326 73.8091 7.70076 73.9607 7.61364C74.116 7.52652 74.1936 7.375 74.1936 7.15909V7.11364C74.1936 6.55303 74.0402 6.11742 73.7334 5.80682C73.4304 5.49621 72.9701 5.34091 72.3527 5.34091C71.7126 5.34091 71.2107 5.48106 70.847 5.76136C70.4834 6.04167 70.2277 6.34091 70.08 6.65909L68.8072 6.20455C69.0345 5.67424 69.3376 5.26136 69.7163 4.96591C70.0989 4.66667 70.5156 4.45833 70.9663 4.34091C71.4209 4.2197 71.8679 4.15909 72.3072 4.15909C72.5876 4.15909 72.9095 4.19318 73.2732 4.26136C73.6406 4.32576 73.9947 4.46023 74.3357 4.66477C74.6804 4.86932 74.9663 5.17803 75.1936 5.59091C75.4209 6.00379 75.5345 6.55682 75.5345 7.25V13H74.1936V11.8182H74.1254C74.0345 12.0076 73.883 12.2102 73.6709 12.4261C73.4588 12.642 73.1766 12.8258 72.8243 12.9773C72.472 13.1288 72.0421 13.2045 71.5345 13.2045ZM71.7391 12C72.2694 12 72.7163 11.8958 73.08 11.6875C73.4474 11.4792 73.7239 11.2102 73.9095 10.8807C74.0989 10.5511 74.1936 10.2045 74.1936 9.84091V8.61364C74.1368 8.68182 74.0118 8.74432 73.8186 8.80114C73.6292 8.85417 73.4095 8.90151 73.1595 8.94318C72.9133 8.98106 72.6728 9.01515 72.4379 9.04545C72.2069 9.07197 72.0194 9.0947 71.8754 9.11364C71.5269 9.15909 71.2012 9.23295 70.8982 9.33523C70.5989 9.43371 70.3565 9.58333 70.1709 9.78409C69.9891 9.98106 69.8982 10.25 69.8982 10.5909C69.8982 11.0568 70.0705 11.4091 70.4152 11.6477C70.7637 11.8826 71.205 12 71.7391 12ZM78.8729 7.75V13H77.532V4.27273H78.8274V5.63636H78.9411C79.1456 5.19318 79.4562 4.83712 79.8729 4.56818C80.2895 4.29545 80.8274 4.15909 81.4865 4.15909C82.0774 4.15909 82.5945 4.2803 83.0376 4.52273C83.4808 4.76136 83.8255 5.125 84.0717 5.61364C84.3179 6.09848 84.4411 6.71212 84.4411 7.45455V13H83.1001V7.54545C83.1001 6.85985 82.9221 6.32576 82.5661 5.94318C82.21 5.55682 81.7214 5.36364 81.1001 5.36364C80.6721 5.36364 80.2895 5.45644 79.9524 5.64205C79.6191 5.82765 79.3558 6.09848 79.1626 6.45455C78.9695 6.81061 78.8729 7.24242 78.8729 7.75ZM86.4413 13V4.27273H87.7822V13H86.4413ZM87.1232 2.81818C86.8618 2.81818 86.6364 2.72917 86.447 2.55114C86.2614 2.37311 86.1686 2.15909 86.1686 1.90909C86.1686 1.65909 86.2614 1.44508 86.447 1.26705C86.6364 1.08902 86.8618 1 87.1232 1C87.3845 1 87.608 1.08902 87.7936 1.26705C87.983 1.44508 88.0777 1.65909 88.0777 1.90909C88.0777 2.15909 87.983 2.37311 87.7936 2.55114C87.608 2.72917 87.3845 2.81818 87.1232 2.81818ZM91.1291 7.75V13H89.7882V4.27273H91.0837V5.63636H91.1973C91.4019 5.19318 91.7125 4.83712 92.1291 4.56818C92.5458 4.29545 93.0837 4.15909 93.7428 4.15909C94.3337 4.15909 94.8507 4.2803 95.2939 4.52273C95.7371 4.76136 96.0818 5.125 96.328 5.61364C96.5742 6.09848 96.6973 6.71212 96.6973 7.45455V13H95.3564V7.54545C95.3564 6.85985 95.1784 6.32576 94.8223 5.94318C94.4662 5.55682 93.9776 5.36364 93.3564 5.36364C92.9284 5.36364 92.5458 5.45644 92.2087 5.64205C91.8753 5.82765 91.6121 6.09848 91.4189 6.45455C91.2257 6.81061 91.1291 7.24242 91.1291 7.75ZM102.22 16.4545C101.573 16.4545 101.016 16.3712 100.55 16.2045C100.084 16.0417 99.6957 15.8258 99.3851 15.5568C99.0783 15.2917 98.834 15.0076 98.6521 14.7045L99.7203 13.9545C99.8415 14.1136 99.9949 14.2955 100.181 14.5C100.366 14.7083 100.62 14.8883 100.942 15.0398C101.268 15.1951 101.694 15.2727 102.22 15.2727C102.925 15.2727 103.506 15.1023 103.965 14.7614C104.423 14.4205 104.652 13.8864 104.652 13.1591V11.3864H104.538C104.44 11.5455 104.3 11.7424 104.118 11.9773C103.94 12.2083 103.682 12.4148 103.345 12.5966C103.012 12.7746 102.561 12.8636 101.993 12.8636C101.288 12.8636 100.656 12.697 100.095 12.3636C99.5385 12.0303 99.0972 11.5455 98.7715 10.9091C98.4495 10.2727 98.2885 9.5 98.2885 8.59091C98.2885 7.69697 98.4457 6.91856 98.7601 6.25568C99.0745 5.58901 99.512 5.07386 100.073 4.71023C100.633 4.3428 101.281 4.15909 102.016 4.15909C102.584 4.15909 103.035 4.25379 103.368 4.44318C103.705 4.62879 103.963 4.84091 104.141 5.07955C104.323 5.31439 104.463 5.50758 104.561 5.65909H104.698V4.27273H105.993V13.25C105.993 14 105.823 14.6098 105.482 15.0795C105.145 15.553 104.69 15.8996 104.118 16.1193C103.55 16.3428 102.917 16.4545 102.22 16.4545ZM102.175 11.6591C102.713 11.6591 103.167 11.536 103.538 11.2898C103.91 11.0436 104.192 10.6894 104.385 10.2273C104.578 9.76515 104.675 9.21212 104.675 8.56818C104.675 7.93939 104.58 7.38447 104.391 6.90341C104.201 6.42235 103.921 6.04545 103.55 5.77273C103.179 5.5 102.72 5.36364 102.175 5.36364C101.607 5.36364 101.133 5.50758 100.754 5.79545C100.379 6.08333 100.097 6.4697 99.9078 6.95455C99.7222 7.43939 99.6294 7.97727 99.6294 8.56818C99.6294 9.17424 99.7241 9.71023 99.9135 10.1761C100.107 10.6383 100.391 11.0019 100.766 11.267C101.145 11.5284 101.614 11.6591 102.175 11.6591ZM116.098 13V4.27273H117.393V5.63636H117.507C117.688 5.17045 117.982 4.80871 118.387 4.55114C118.793 4.28977 119.279 4.15909 119.848 4.15909C120.423 4.15909 120.903 4.28977 121.285 4.55114C121.671 4.80871 121.973 5.17045 122.188 5.63636H122.279C122.503 5.18561 122.838 4.82765 123.285 4.5625C123.732 4.29356 124.268 4.15909 124.893 4.15909C125.673 4.15909 126.312 4.40341 126.808 4.89205C127.304 5.37689 127.552 6.13258 127.552 7.15909V13H126.211V7.15909C126.211 6.51515 126.035 6.05492 125.683 5.77841C125.331 5.50189 124.916 5.36364 124.438 5.36364C123.825 5.36364 123.349 5.54924 123.012 5.92045C122.675 6.28788 122.507 6.75379 122.507 7.31818V13H121.143V7.02273C121.143 6.52652 120.982 6.12689 120.66 5.82386C120.338 5.51705 119.923 5.36364 119.416 5.36364C119.067 5.36364 118.742 5.45644 118.438 5.64205C118.139 5.82765 117.897 6.08523 117.711 6.41477C117.529 6.74053 117.438 7.11742 117.438 7.54545V13H116.098ZM133.213 13.1818C132.372 13.1818 131.647 12.9962 131.037 12.625C130.431 12.25 129.963 11.7273 129.633 11.0568C129.308 10.3826 129.145 9.59848 129.145 8.70455C129.145 7.81061 129.308 7.02273 129.633 6.34091C129.963 5.6553 130.421 5.12121 131.008 4.73864C131.599 4.35227 132.289 4.15909 133.077 4.15909C133.531 4.15909 133.98 4.23485 134.423 4.38636C134.866 4.53788 135.27 4.78409 135.633 5.125C135.997 5.46212 136.287 5.90909 136.503 6.46591C136.719 7.02273 136.827 7.70833 136.827 8.52273V9.09091H130.099V7.93182H135.463C135.463 7.43939 135.364 7 135.167 6.61364C134.974 6.22727 134.698 5.92235 134.338 5.69886C133.982 5.47538 133.561 5.36364 133.077 5.36364C132.542 5.36364 132.08 5.49621 131.69 5.76136C131.304 6.02273 131.006 6.36364 130.798 6.78409C130.59 7.20455 130.486 7.6553 130.486 8.13636V8.90909C130.486 9.56818 130.599 10.1269 130.827 10.5852C131.058 11.0398 131.378 11.3864 131.787 11.625C132.196 11.8598 132.671 11.9773 133.213 11.9773C133.565 11.9773 133.883 11.928 134.167 11.8295C134.455 11.7273 134.703 11.5758 134.912 11.375C135.12 11.1705 135.281 10.9167 135.395 10.6136L136.69 10.9773C136.554 11.4167 136.325 11.803 136.003 12.1364C135.681 12.4659 135.283 12.7235 134.81 12.9091C134.336 13.0909 133.804 13.1818 133.213 13.1818ZM140.985 13.2045C140.431 13.2045 139.93 13.1004 139.479 12.892C139.028 12.6799 138.67 12.375 138.405 11.9773C138.14 11.5758 138.007 11.0909 138.007 10.5227C138.007 10.0227 138.106 9.61742 138.303 9.30682C138.5 8.99242 138.763 8.74621 139.092 8.56818C139.422 8.39015 139.786 8.25758 140.183 8.17045C140.585 8.07955 140.988 8.00758 141.394 7.95455C141.924 7.88636 142.354 7.83523 142.683 7.80114C143.017 7.76326 143.259 7.70076 143.411 7.61364C143.566 7.52652 143.644 7.375 143.644 7.15909V7.11364C143.644 6.55303 143.49 6.11742 143.183 5.80682C142.88 5.49621 142.42 5.34091 141.803 5.34091C141.163 5.34091 140.661 5.48106 140.297 5.76136C139.933 6.04167 139.678 6.34091 139.53 6.65909L138.257 6.20455C138.485 5.67424 138.788 5.26136 139.166 4.96591C139.549 4.66667 139.966 4.45833 140.416 4.34091C140.871 4.2197 141.318 4.15909 141.757 4.15909C142.038 4.15909 142.36 4.19318 142.723 4.26136C143.091 4.32576 143.445 4.46023 143.786 4.66477C144.13 4.86932 144.416 5.17803 144.644 5.59091C144.871 6.00379 144.985 6.55682 144.985 7.25V13H143.644V11.8182H143.575C143.485 12.0076 143.333 12.2102 143.121 12.4261C142.909 12.642 142.627 12.8258 142.274 12.9773C141.922 13.1288 141.492 13.2045 140.985 13.2045ZM141.189 12C141.719 12 142.166 11.8958 142.53 11.6875C142.897 11.4792 143.174 11.2102 143.36 10.8807C143.549 10.5511 143.644 10.2045 143.644 9.84091V8.61364C143.587 8.68182 143.462 8.74432 143.269 8.80114C143.079 8.85417 142.86 8.90151 142.61 8.94318C142.363 8.98106 142.123 9.01515 141.888 9.04545C141.657 9.07197 141.469 9.0947 141.325 9.11364C140.977 9.15909 140.651 9.23295 140.348 9.33523C140.049 9.43371 139.806 9.58333 139.621 9.78409C139.439 9.98106 139.348 10.25 139.348 10.5909C139.348 11.0568 139.521 11.4091 139.865 11.6477C140.214 11.8826 140.655 12 141.189 12ZM148.323 7.75V13H146.982V4.27273H148.277V5.63636H148.391C148.596 5.19318 148.906 4.83712 149.323 4.56818C149.74 4.29545 150.277 4.15909 150.937 4.15909C151.527 4.15909 152.044 4.2803 152.488 4.52273C152.931 4.76136 153.276 5.125 153.522 5.61364C153.768 6.09848 153.891 6.71212 153.891 7.45455V13H152.55V7.54545C152.55 6.85985 152.372 6.32576 152.016 5.94318C151.66 5.55682 151.171 5.36364 150.55 5.36364C150.122 5.36364 149.74 5.45644 149.402 5.64205C149.069 5.82765 148.806 6.09848 148.613 6.45455C148.419 6.81061 148.323 7.24242 148.323 7.75ZM162.073 6.22727L160.869 6.56818C160.793 6.36742 160.681 6.17235 160.533 5.98295C160.389 5.78977 160.192 5.63068 159.942 5.50568C159.692 5.38068 159.372 5.31818 158.982 5.31818C158.448 5.31818 158.003 5.44129 157.647 5.6875C157.295 5.92992 157.119 6.23864 157.119 6.61364C157.119 6.94697 157.24 7.21023 157.482 7.40341C157.725 7.59659 158.103 7.75758 158.619 7.88636L159.914 8.20455C160.694 8.39394 161.276 8.68371 161.658 9.07386C162.041 9.46023 162.232 9.95833 162.232 10.5682C162.232 11.0682 162.088 11.5152 161.8 11.9091C161.516 12.303 161.119 12.6136 160.607 12.8409C160.096 13.0682 159.501 13.1818 158.823 13.1818C157.933 13.1818 157.196 12.9886 156.613 12.6023C156.03 12.2159 155.66 11.6515 155.505 10.9091L156.778 10.5909C156.899 11.0606 157.128 11.4129 157.465 11.6477C157.806 11.8826 158.251 12 158.8 12C159.425 12 159.922 11.8674 160.289 11.6023C160.66 11.3333 160.846 11.0114 160.846 10.6364C160.846 10.3333 160.74 10.0795 160.528 9.875C160.316 9.66667 159.99 9.51136 159.55 9.40909L158.096 9.06818C157.297 8.87879 156.71 8.58523 156.335 8.1875C155.963 7.78598 155.778 7.28409 155.778 6.68182C155.778 6.18939 155.916 5.75379 156.192 5.375C156.473 4.99621 156.853 4.69886 157.335 4.48295C157.819 4.26705 158.369 4.15909 158.982 4.15909C159.846 4.15909 160.524 4.34848 161.016 4.72727C161.513 5.10606 161.865 5.60606 162.073 6.22727ZM171.646 4.27273V5.40909H167.123V4.27273H171.646ZM168.442 2.18182H169.783V10.5C169.783 10.8788 169.837 11.1629 169.947 11.3523C170.061 11.5379 170.205 11.6629 170.379 11.7273C170.557 11.7879 170.745 11.8182 170.942 11.8182C171.089 11.8182 171.211 11.8106 171.305 11.7955C171.4 11.7765 171.476 11.7614 171.533 11.75L171.805 12.9545C171.714 12.9886 171.587 13.0227 171.425 13.0568C171.262 13.0947 171.055 13.1136 170.805 13.1136C170.426 13.1136 170.055 13.0322 169.692 12.8693C169.332 12.7064 169.033 12.4583 168.794 12.125C168.559 11.7917 168.442 11.3712 168.442 10.8636V2.18182ZM174.742 7.75V13H173.401V1.36364H174.742V5.63636H174.855C175.06 5.18561 175.367 4.82765 175.776 4.5625C176.189 4.29356 176.738 4.15909 177.423 4.15909C178.018 4.15909 178.539 4.27841 178.986 4.51705C179.433 4.75189 179.78 5.11364 180.026 5.60227C180.276 6.08712 180.401 6.70455 180.401 7.45455V13H179.06V7.54545C179.06 6.85227 178.88 6.31629 178.52 5.9375C178.164 5.55492 177.67 5.36364 177.037 5.36364C176.598 5.36364 176.204 5.45644 175.855 5.64205C175.511 5.82765 175.238 6.09848 175.037 6.45455C174.84 6.81061 174.742 7.24242 174.742 7.75ZM186.063 13.1818C185.222 13.1818 184.497 12.9962 183.887 12.625C183.281 12.25 182.813 11.7273 182.483 11.0568C182.158 10.3826 181.995 9.59848 181.995 8.70455C181.995 7.81061 182.158 7.02273 182.483 6.34091C182.813 5.6553 183.271 5.12121 183.858 4.73864C184.449 4.35227 185.139 4.15909 185.927 4.15909C186.381 4.15909 186.83 4.23485 187.273 4.38636C187.716 4.53788 188.12 4.78409 188.483 5.125C188.847 5.46212 189.137 5.90909 189.353 6.46591C189.569 7.02273 189.677 7.70833 189.677 8.52273V9.09091H182.949V7.93182H188.313C188.313 7.43939 188.214 7 188.017 6.61364C187.824 6.22727 187.548 5.92235 187.188 5.69886C186.832 5.47538 186.411 5.36364 185.927 5.36364C185.392 5.36364 184.93 5.49621 184.54 5.76136C184.154 6.02273 183.856 6.36364 183.648 6.78409C183.44 7.20455 183.336 7.6553 183.336 8.13636V8.90909C183.336 9.56818 183.449 10.1269 183.677 10.5852C183.908 11.0398 184.228 11.3864 184.637 11.625C185.046 11.8598 185.521 11.9773 186.063 11.9773C186.415 11.9773 186.733 11.928 187.017 11.8295C187.305 11.7273 187.553 11.5758 187.762 11.375C187.97 11.1705 188.131 10.9167 188.245 10.6136L189.54 10.9773C189.404 11.4167 189.175 11.803 188.853 12.1364C188.531 12.4659 188.133 12.7235 187.66 12.9091C187.186 13.0909 186.654 13.1818 186.063 13.1818ZM195.316 16.2727V4.27273H196.612V5.65909H196.771C196.869 5.50758 197.006 5.31439 197.18 5.07955C197.358 4.84091 197.612 4.62879 197.941 4.44318C198.275 4.25379 198.725 4.15909 199.294 4.15909C200.028 4.15909 200.676 4.3428 201.237 4.71023C201.797 5.07765 202.235 5.59848 202.549 6.27273C202.864 6.94697 203.021 7.74242 203.021 8.65909C203.021 9.58333 202.864 10.3845 202.549 11.0625C202.235 11.7367 201.799 12.2595 201.242 12.6307C200.686 12.9981 200.044 13.1818 199.316 13.1818C198.756 13.1818 198.307 13.089 197.97 12.9034C197.633 12.714 197.373 12.5 197.191 12.2614C197.01 12.0189 196.869 11.8182 196.771 11.6591H196.657V16.2727H195.316ZM196.635 8.63636C196.635 9.29545 196.731 9.87689 196.924 10.3807C197.117 10.8807 197.4 11.2727 197.771 11.5568C198.142 11.8371 198.597 11.9773 199.135 11.9773C199.695 11.9773 200.163 11.8295 200.538 11.5341C200.917 11.2348 201.201 10.8333 201.39 10.3295C201.583 9.82197 201.68 9.25758 201.68 8.63636C201.68 8.02273 201.585 7.4697 201.396 6.97727C201.21 6.48106 200.928 6.08902 200.549 5.80114C200.174 5.50947 199.703 5.36364 199.135 5.36364C198.589 5.36364 198.131 5.50189 197.76 5.77841C197.388 6.05114 197.108 6.43371 196.919 6.92614C196.729 7.41477 196.635 7.98485 196.635 8.63636ZM208.275 13.1818C207.435 13.1818 206.709 12.9962 206.099 12.625C205.493 12.25 205.025 11.7273 204.696 11.0568C204.37 10.3826 204.207 9.59848 204.207 8.70455C204.207 7.81061 204.37 7.02273 204.696 6.34091C205.025 5.6553 205.484 5.12121 206.071 4.73864C206.662 4.35227 207.351 4.15909 208.139 4.15909C208.594 4.15909 209.042 4.23485 209.486 4.38636C209.929 4.53788 210.332 4.78409 210.696 5.125C211.06 5.46212 211.349 5.90909 211.565 6.46591C211.781 7.02273 211.889 7.70833 211.889 8.52273V9.09091H205.162V7.93182H210.525C210.525 7.43939 210.427 7 210.23 6.61364C210.037 6.22727 209.76 5.92235 209.4 5.69886C209.044 5.47538 208.624 5.36364 208.139 5.36364C207.605 5.36364 207.143 5.49621 206.753 5.76136C206.366 6.02273 206.069 6.36364 205.861 6.78409C205.652 7.20455 205.548 7.6553 205.548 8.13636V8.90909C205.548 9.56818 205.662 10.1269 205.889 10.5852C206.12 11.0398 206.44 11.3864 206.849 11.625C207.258 11.8598 207.734 11.9773 208.275 11.9773C208.628 11.9773 208.946 11.928 209.23 11.8295C209.518 11.7273 209.766 11.5758 209.974 11.375C210.183 11.1705 210.344 10.9167 210.457 10.6136L211.753 10.9773C211.616 11.4167 211.387 11.803 211.065 12.1364C210.743 12.4659 210.346 12.7235 209.872 12.9091C209.399 13.0909 208.866 13.1818 208.275 13.1818ZM213.479 13V4.27273H214.774V5.59091H214.865C215.024 5.15909 215.312 4.80871 215.729 4.53977C216.146 4.27083 216.615 4.13636 217.138 4.13636C217.236 4.13636 217.36 4.13826 217.507 4.14205C217.655 4.14583 217.767 4.15152 217.842 4.15909V5.52273C217.797 5.51136 217.693 5.49432 217.53 5.47159C217.371 5.44508 217.202 5.43182 217.024 5.43182C216.6 5.43182 216.221 5.52083 215.888 5.69886C215.558 5.87311 215.297 6.11553 215.104 6.42614C214.914 6.73295 214.82 7.08333 214.82 7.47727V13H213.479ZM223.415 4.27273V5.40909H218.711V4.27273H223.415ZM220.12 13V3.06818C220.12 2.56818 220.237 2.15151 220.472 1.81818C220.707 1.48485 221.012 1.23485 221.387 1.06818C221.762 0.901514 222.158 0.818181 222.574 0.818181C222.904 0.818181 223.173 0.844696 223.381 0.897727C223.589 0.950757 223.745 0.999999 223.847 1.04545L223.461 2.20455C223.392 2.18182 223.298 2.15341 223.177 2.11932C223.059 2.08523 222.904 2.06818 222.711 2.06818C222.267 2.06818 221.947 2.17992 221.75 2.40341C221.557 2.62689 221.461 2.95455 221.461 3.38636V13H220.12ZM228.031 13.1818C227.243 13.1818 226.551 12.9943 225.957 12.6193C225.366 12.2443 224.904 11.7197 224.57 11.0455C224.241 10.3712 224.076 9.58333 224.076 8.68182C224.076 7.77273 224.241 6.97917 224.57 6.30114C224.904 5.62311 225.366 5.09659 225.957 4.72159C226.551 4.34659 227.243 4.15909 228.031 4.15909C228.818 4.15909 229.508 4.34659 230.099 4.72159C230.693 5.09659 231.156 5.62311 231.485 6.30114C231.818 6.97917 231.985 7.77273 231.985 8.68182C231.985 9.58333 231.818 10.3712 231.485 11.0455C231.156 11.7197 230.693 12.2443 230.099 12.6193C229.508 12.9943 228.818 13.1818 228.031 13.1818ZM228.031 11.9773C228.629 11.9773 229.121 11.8239 229.508 11.517C229.894 11.2102 230.18 10.8068 230.366 10.3068C230.551 9.80682 230.644 9.26515 230.644 8.68182C230.644 8.09848 230.551 7.55492 230.366 7.05114C230.18 6.54735 229.894 6.14015 229.508 5.82955C229.121 5.51894 228.629 5.36364 228.031 5.36364C227.432 5.36364 226.94 5.51894 226.553 5.82955C226.167 6.14015 225.881 6.54735 225.695 7.05114C225.51 7.55492 225.417 8.09848 225.417 8.68182C225.417 9.26515 225.51 9.80682 225.695 10.3068C225.881 10.8068 226.167 11.2102 226.553 11.517C226.94 11.8239 227.432 11.9773 228.031 11.9773ZM233.582 13V4.27273H234.877V5.59091H234.968C235.127 5.15909 235.415 4.80871 235.832 4.53977C236.249 4.27083 236.718 4.13636 237.241 4.13636C237.34 4.13636 237.463 4.13826 237.61 4.14205C237.758 4.14583 237.87 4.15152 237.946 4.15909V5.52273C237.9 5.51136 237.796 5.49432 237.633 5.47159C237.474 5.44508 237.305 5.43182 237.127 5.43182C236.703 5.43182 236.324 5.52083 235.991 5.69886C235.661 5.87311 235.4 6.11553 235.207 6.42614C235.018 6.73295 234.923 7.08333 234.923 7.47727V13H233.582ZM239.085 13V4.27273H240.381V5.63636H240.494C240.676 5.17045 240.97 4.80871 241.375 4.55114C241.78 4.28977 242.267 4.15909 242.835 4.15909C243.411 4.15909 243.89 4.28977 244.273 4.55114C244.659 4.80871 244.96 5.17045 245.176 5.63636H245.267C245.49 5.18561 245.826 4.82765 246.273 4.5625C246.72 4.29356 247.256 4.15909 247.881 4.15909C248.661 4.15909 249.299 4.40341 249.795 4.89205C250.292 5.37689 250.54 6.13258 250.54 7.15909V13H249.199V7.15909C249.199 6.51515 249.023 6.05492 248.67 5.77841C248.318 5.50189 247.903 5.36364 247.426 5.36364C246.812 5.36364 246.337 5.54924 246 5.92045C245.663 6.28788 245.494 6.75379 245.494 7.31818V13H244.131V7.02273C244.131 6.52652 243.97 6.12689 243.648 5.82386C243.326 5.51705 242.911 5.36364 242.403 5.36364C242.055 5.36364 241.729 5.45644 241.426 5.64205C241.127 5.82765 240.884 6.08523 240.699 6.41477C240.517 6.74053 240.426 7.11742 240.426 7.54545V13H239.085ZM255.11 13.2045C254.557 13.2045 254.055 13.1004 253.604 12.892C253.153 12.6799 252.795 12.375 252.53 11.9773C252.265 11.5758 252.132 11.0909 252.132 10.5227C252.132 10.0227 252.231 9.61742 252.428 9.30682C252.625 8.99242 252.888 8.74621 253.217 8.56818C253.547 8.39015 253.911 8.25758 254.308 8.17045C254.71 8.07955 255.113 8.00758 255.519 7.95455C256.049 7.88636 256.479 7.83523 256.808 7.80114C257.142 7.76326 257.384 7.70076 257.536 7.61364C257.691 7.52652 257.769 7.375 257.769 7.15909V7.11364C257.769 6.55303 257.615 6.11742 257.308 5.80682C257.005 5.49621 256.545 5.34091 255.928 5.34091C255.288 5.34091 254.786 5.48106 254.422 5.76136C254.058 6.04167 253.803 6.34091 253.655 6.65909L252.382 6.20455C252.61 5.67424 252.913 5.26136 253.291 4.96591C253.674 4.66667 254.091 4.45833 254.541 4.34091C254.996 4.2197 255.443 4.15909 255.882 4.15909C256.163 4.15909 256.485 4.19318 256.848 4.26136C257.216 4.32576 257.57 4.46023 257.911 4.66477C258.255 4.86932 258.541 5.17803 258.769 5.59091C258.996 6.00379 259.11 6.55682 259.11 7.25V13H257.769V11.8182H257.7C257.61 12.0076 257.458 12.2102 257.246 12.4261C257.034 12.642 256.752 12.8258 256.399 12.9773C256.047 13.1288 255.617 13.2045 255.11 13.2045ZM255.314 12C255.844 12 256.291 11.8958 256.655 11.6875C257.022 11.4792 257.299 11.2102 257.485 10.8807C257.674 10.5511 257.769 10.2045 257.769 9.84091V8.61364C257.712 8.68182 257.587 8.74432 257.394 8.80114C257.204 8.85417 256.985 8.90151 256.735 8.94318C256.488 8.98106 256.248 9.01515 256.013 9.04545C255.782 9.07197 255.594 9.0947 255.45 9.11364C255.102 9.15909 254.776 9.23295 254.473 9.33523C254.174 9.43371 253.932 9.58333 253.746 9.78409C253.564 9.98106 253.473 10.25 253.473 10.5909C253.473 11.0568 253.646 11.4091 253.99 11.6477C254.339 11.8826 254.78 12 255.314 12ZM262.448 7.75V13H261.107V4.27273H262.402V5.63636H262.516C262.721 5.19318 263.031 4.83712 263.448 4.56818C263.865 4.29545 264.402 4.15909 265.062 4.15909C265.652 4.15909 266.169 4.2803 266.613 4.52273C267.056 4.76136 267.401 5.125 267.647 5.61364C267.893 6.09848 268.016 6.71212 268.016 7.45455V13H266.675V7.54545C266.675 6.85985 266.497 6.32576 266.141 5.94318C265.785 5.55682 265.296 5.36364 264.675 5.36364C264.247 5.36364 263.865 5.45644 263.527 5.64205C263.194 5.82765 262.931 6.09848 262.738 6.45455C262.544 6.81061 262.448 7.24242 262.448 7.75ZM273.562 13.1818C272.744 13.1818 272.039 12.9886 271.448 12.6023C270.857 12.2159 270.403 11.6837 270.085 11.0057C269.766 10.3277 269.607 9.55303 269.607 8.68182C269.607 7.79545 269.77 7.01326 270.096 6.33523C270.425 5.65341 270.884 5.12121 271.471 4.73864C272.062 4.35227 272.751 4.15909 273.539 4.15909C274.153 4.15909 274.706 4.27273 275.198 4.5C275.691 4.72727 276.094 5.04545 276.408 5.45455C276.723 5.86364 276.918 6.34091 276.994 6.88636H275.653C275.55 6.48864 275.323 6.13636 274.971 5.82955C274.622 5.51894 274.153 5.36364 273.562 5.36364C273.039 5.36364 272.581 5.5 272.187 5.77273C271.797 6.04167 271.492 6.42235 271.272 6.91477C271.056 7.40341 270.948 7.97727 270.948 8.63636C270.948 9.31061 271.054 9.89773 271.266 10.3977C271.482 10.8977 271.785 11.286 272.175 11.5625C272.569 11.839 273.031 11.9773 273.562 11.9773C273.91 11.9773 274.227 11.9167 274.511 11.7955C274.795 11.6742 275.035 11.5 275.232 11.2727C275.429 11.0455 275.569 10.7727 275.653 10.4545H276.994C276.918 10.9697 276.73 11.4337 276.431 11.8466C276.136 12.2557 275.744 12.5814 275.255 12.8239C274.77 13.0625 274.206 13.1818 273.562 13.1818ZM282.163 13.1818C281.322 13.1818 280.597 12.9962 279.987 12.625C279.381 12.25 278.913 11.7273 278.583 11.0568C278.258 10.3826 278.095 9.59848 278.095 8.70455C278.095 7.81061 278.258 7.02273 278.583 6.34091C278.913 5.6553 279.371 5.12121 279.958 4.73864C280.549 4.35227 281.239 4.15909 282.027 4.15909C282.481 4.15909 282.93 4.23485 283.373 4.38636C283.816 4.53788 284.22 4.78409 284.583 5.125C284.947 5.46212 285.237 5.90909 285.453 6.46591C285.669 7.02273 285.777 7.70833 285.777 8.52273V9.09091H279.049V7.93182H284.413C284.413 7.43939 284.314 7 284.117 6.61364C283.924 6.22727 283.648 5.92235 283.288 5.69886C282.932 5.47538 282.511 5.36364 282.027 5.36364C281.492 5.36364 281.03 5.49621 280.64 5.76136C280.254 6.02273 279.956 6.36364 279.748 6.78409C279.54 7.20455 279.436 7.6553 279.436 8.13636V8.90909C279.436 9.56818 279.549 10.1269 279.777 10.5852C280.008 11.0398 280.328 11.3864 280.737 11.625C281.146 11.8598 281.621 11.9773 282.163 11.9773C282.515 11.9773 282.833 11.928 283.117 11.8295C283.405 11.7273 283.653 11.5758 283.862 11.375C284.07 11.1705 284.231 10.9167 284.345 10.6136L285.64 10.9773C285.504 11.4167 285.275 11.803 284.953 12.1364C284.631 12.4659 284.233 12.7235 283.76 12.9091C283.286 13.0909 282.754 13.1818 282.163 13.1818ZM294.962 13.1818C294.174 13.1818 293.483 12.9943 292.888 12.6193C292.297 12.2443 291.835 11.7197 291.502 11.0455C291.172 10.3712 291.007 9.58333 291.007 8.68182C291.007 7.77273 291.172 6.97917 291.502 6.30114C291.835 5.62311 292.297 5.09659 292.888 4.72159C293.483 4.34659 294.174 4.15909 294.962 4.15909C295.75 4.15909 296.439 4.34659 297.03 4.72159C297.625 5.09659 298.087 5.62311 298.416 6.30114C298.75 6.97917 298.916 7.77273 298.916 8.68182C298.916 9.58333 298.75 10.3712 298.416 11.0455C298.087 11.7197 297.625 12.2443 297.03 12.6193C296.439 12.9943 295.75 13.1818 294.962 13.1818ZM294.962 11.9773C295.56 11.9773 296.053 11.8239 296.439 11.517C296.825 11.2102 297.111 10.8068 297.297 10.3068C297.483 9.80682 297.575 9.26515 297.575 8.68182C297.575 8.09848 297.483 7.55492 297.297 7.05114C297.111 6.54735 296.825 6.14015 296.439 5.82955C296.053 5.51894 295.56 5.36364 294.962 5.36364C294.363 5.36364 293.871 5.51894 293.485 5.82955C293.098 6.14015 292.812 6.54735 292.627 7.05114C292.441 7.55492 292.348 8.09848 292.348 8.68182C292.348 9.26515 292.441 9.80682 292.627 10.3068C292.812 10.8068 293.098 11.2102 293.485 11.517C293.871 11.8239 294.363 11.9773 294.962 11.9773ZM304.4 4.27273V5.40909H299.695V4.27273H304.4ZM301.104 13V3.06818C301.104 2.56818 301.222 2.15151 301.456 1.81818C301.691 1.48485 301.996 1.23485 302.371 1.06818C302.746 0.901514 303.142 0.818181 303.559 0.818181C303.888 0.818181 304.157 0.844696 304.365 0.897727C304.574 0.950757 304.729 0.999999 304.831 1.04545L304.445 2.20455C304.377 2.18182 304.282 2.15341 304.161 2.11932C304.044 2.08523 303.888 2.06818 303.695 2.06818C303.252 2.06818 302.932 2.17992 302.735 2.40341C302.542 2.62689 302.445 2.95455 302.445 3.38636V13H301.104ZM49.181 28.2273L47.9764 28.5682C47.9007 28.3674 47.7889 28.1723 47.6412 27.983C47.4973 27.7898 47.3003 27.6307 47.0503 27.5057C46.8003 27.3807 46.4802 27.3182 46.0901 27.3182C45.556 27.3182 45.1109 27.4413 44.7548 27.6875C44.4026 27.9299 44.2264 28.2386 44.2264 28.6136C44.2264 28.947 44.3476 29.2102 44.5901 29.4034C44.8325 29.5966 45.2113 29.7576 45.7264 29.8864L47.0219 30.2045C47.8022 30.3939 48.3836 30.6837 48.7662 31.0739C49.1488 31.4602 49.3401 31.9583 49.3401 32.5682C49.3401 33.0682 49.1961 33.5152 48.9082 33.9091C48.6241 34.303 48.2264 34.6136 47.7151 34.8409C47.2037 35.0682 46.609 35.1818 45.931 35.1818C45.0408 35.1818 44.3041 34.9886 43.7207 34.6023C43.1374 34.2159 42.7681 33.6515 42.6128 32.9091L43.8855 32.5909C44.0067 33.0606 44.2359 33.4129 44.573 33.6477C44.9139 33.8826 45.359 34 45.9082 34C46.5332 34 47.0294 33.8674 47.3969 33.6023C47.7681 33.3333 47.9537 33.0114 47.9537 32.6364C47.9537 32.3333 47.8476 32.0795 47.6355 31.875C47.4234 31.6667 47.0976 31.5114 46.6582 31.4091L45.2037 31.0682C44.4044 30.8788 43.8173 30.5852 43.4423 30.1875C43.0711 29.786 42.8855 29.2841 42.8855 28.6818C42.8855 28.1894 43.0238 27.7538 43.3003 27.375C43.5806 26.9962 43.9613 26.6989 44.4423 26.483C44.9272 26.267 45.4764 26.1591 46.0901 26.1591C46.9537 26.1591 47.6317 26.3485 48.1241 26.7273C48.6204 27.1061 48.9726 27.6061 49.181 28.2273ZM54.5676 35.1818C53.7267 35.1818 53.0013 34.9962 52.3915 34.625C51.7854 34.25 51.3176 33.7273 50.9881 33.0568C50.6623 32.3826 50.4994 31.5985 50.4994 30.7045C50.4994 29.8106 50.6623 29.0227 50.9881 28.3409C51.3176 27.6553 51.7759 27.1212 52.3631 26.7386C52.954 26.3523 53.6434 26.1591 54.4313 26.1591C54.8858 26.1591 55.3347 26.2348 55.7778 26.3864C56.221 26.5379 56.6244 26.7841 56.9881 27.125C57.3517 27.4621 57.6415 27.9091 57.8574 28.4659C58.0733 29.0227 58.1813 29.7083 58.1813 30.5227V31.0909H51.454V29.9318H56.8176C56.8176 29.4394 56.7191 29 56.5222 28.6136C56.329 28.2273 56.0525 27.9223 55.6926 27.6989C55.3366 27.4754 54.9161 27.3636 54.4313 27.3636C53.8972 27.3636 53.435 27.4962 53.0449 27.7614C52.6585 28.0227 52.3612 28.3636 52.1528 28.7841C51.9445 29.2045 51.8403 29.6553 51.8403 30.1364V30.9091C51.8403 31.5682 51.954 32.1269 52.1813 32.5852C52.4123 33.0398 52.7324 33.3864 53.1415 33.625C53.5506 33.8598 54.0259 33.9773 54.5676 33.9773C54.9199 33.9773 55.2381 33.928 55.5222 33.8295C55.81 33.7273 56.0581 33.5758 56.2665 33.375C56.4748 33.1705 56.6358 32.9167 56.7494 32.6136L58.0449 32.9773C57.9085 33.4167 57.6794 33.803 57.3574 34.1364C57.0354 34.4659 56.6377 34.7235 56.1642 34.9091C55.6907 35.0909 55.1585 35.1818 54.5676 35.1818ZM59.771 35V26.2727H61.0665V27.5909H61.1574C61.3165 27.1591 61.6044 26.8087 62.021 26.5398C62.4377 26.2708 62.9074 26.1364 63.4301 26.1364C63.5286 26.1364 63.6517 26.1383 63.7994 26.142C63.9472 26.1458 64.0589 26.1515 64.1347 26.1591V27.5227C64.0892 27.5114 63.985 27.4943 63.8222 27.4716C63.6631 27.4451 63.4945 27.4318 63.3165 27.4318C62.8922 27.4318 62.5134 27.5208 62.1801 27.6989C61.8506 27.8731 61.5892 28.1155 61.396 28.4261C61.2066 28.733 61.1119 29.0833 61.1119 29.4773V35H59.771ZM72.6761 26.2727L69.4489 35H68.0852L64.858 26.2727H66.3125L68.7216 33.2273H68.8125L71.2216 26.2727H72.6761ZM73.996 35V26.2727H75.3369V35H73.996ZM74.6778 24.8182C74.4165 24.8182 74.1911 24.7292 74.0017 24.5511C73.8161 24.3731 73.7233 24.1591 73.7233 23.9091C73.7233 23.6591 73.8161 23.4451 74.0017 23.267C74.1911 23.089 74.4165 23 74.6778 23C74.9392 23 75.1627 23.089 75.3483 23.267C75.5377 23.4451 75.6324 23.6591 75.6324 23.9091C75.6324 24.1591 75.5377 24.3731 75.3483 24.5511C75.1627 24.7292 74.9392 24.8182 74.6778 24.8182ZM80.8884 35.1818C80.0702 35.1818 79.3656 34.9886 78.7747 34.6023C78.1838 34.2159 77.7293 33.6837 77.4111 33.0057C77.0929 32.3277 76.9338 31.553 76.9338 30.6818C76.9338 29.7955 77.0967 29.0133 77.4224 28.3352C77.752 27.6534 78.2103 27.1212 78.7974 26.7386C79.3884 26.3523 80.0777 26.1591 80.8656 26.1591C81.4793 26.1591 82.0323 26.2727 82.5247 26.5C83.0171 26.7273 83.4205 27.0455 83.7349 27.4545C84.0493 27.8636 84.2444 28.3409 84.3202 28.8864H82.9793C82.877 28.4886 82.6497 28.1364 82.2974 27.8295C81.949 27.5189 81.4793 27.3636 80.8884 27.3636C80.3656 27.3636 79.9073 27.5 79.5134 27.7727C79.1232 28.0417 78.8183 28.4223 78.5986 28.9148C78.3827 29.4034 78.2747 29.9773 78.2747 30.6364C78.2747 31.3106 78.3808 31.8977 78.5929 32.3977C78.8088 32.8977 79.1118 33.286 79.502 33.5625C79.8959 33.839 80.358 33.9773 80.8884 33.9773C81.2368 33.9773 81.5531 33.9167 81.8372 33.7955C82.1213 33.6742 82.3618 33.5 82.5588 33.2727C82.7558 33.0455 82.8959 32.7727 82.9793 32.4545H84.3202C84.2444 32.9697 84.0569 33.4337 83.7577 33.8466C83.4622 34.2557 83.0702 34.5814 82.5815 34.8239C82.0967 35.0625 81.5323 35.1818 80.8884 35.1818ZM89.4895 35.1818C88.6486 35.1818 87.9232 34.9962 87.3133 34.625C86.7073 34.25 86.2395 33.7273 85.9099 33.0568C85.5842 32.3826 85.4213 31.5985 85.4213 30.7045C85.4213 29.8106 85.5842 29.0227 85.9099 28.3409C86.2395 27.6553 86.6978 27.1212 87.2849 26.7386C87.8758 26.3523 88.5652 26.1591 89.3531 26.1591C89.8077 26.1591 90.2565 26.2348 90.6997 26.3864C91.1429 26.5379 91.5463 26.7841 91.9099 27.125C92.2736 27.4621 92.5633 27.9091 92.7793 28.4659C92.9952 29.0227 93.1031 29.7083 93.1031 30.5227V31.0909H86.3758V29.9318H91.7395C91.7395 29.4394 91.641 29 91.444 28.6136C91.2508 28.2273 90.9743 27.9223 90.6145 27.6989C90.2584 27.4754 89.838 27.3636 89.3531 27.3636C88.819 27.3636 88.3569 27.4962 87.9668 27.7614C87.5804 28.0227 87.283 28.3636 87.0747 28.7841C86.8664 29.2045 86.7622 29.6553 86.7622 30.1364V30.9091C86.7622 31.5682 86.8758 32.1269 87.1031 32.5852C87.3342 33.0398 87.6543 33.3864 88.0633 33.625C88.4724 33.8598 88.9478 33.9773 89.4895 33.9773C89.8418 33.9773 90.1599 33.928 90.444 33.8295C90.7319 33.7273 90.98 33.5758 91.1883 33.375C91.3967 33.1705 91.5577 32.9167 91.6713 32.6136L92.9668 32.9773C92.8304 33.4167 92.6012 33.803 92.2793 34.1364C91.9573 34.4659 91.5596 34.7235 91.0861 34.9091C90.6126 35.0909 90.0804 35.1818 89.4895 35.1818ZM100.875 28.2273L99.6702 28.5682C99.5944 28.3674 99.4827 28.1723 99.3349 27.983C99.191 27.7898 98.994 27.6307 98.744 27.5057C98.494 27.3807 98.174 27.3182 97.7838 27.3182C97.2497 27.3182 96.8046 27.4413 96.4486 27.6875C96.0963 27.9299 95.9202 28.2386 95.9202 28.6136C95.9202 28.947 96.0414 29.2102 96.2838 29.4034C96.5262 29.5966 96.905 29.7576 97.4202 29.8864L98.7156 30.2045C99.4959 30.3939 100.077 30.6837 100.46 31.0739C100.843 31.4602 101.034 31.9583 101.034 32.5682C101.034 33.0682 100.89 33.5152 100.602 33.9091C100.318 34.303 99.9202 34.6136 99.4088 34.8409C98.8974 35.0682 98.3027 35.1818 97.6247 35.1818C96.7346 35.1818 95.9978 34.9886 95.4145 34.6023C94.8312 34.2159 94.4618 33.6515 94.3065 32.9091L95.5793 32.5909C95.7005 33.0606 95.9296 33.4129 96.2668 33.6477C96.6077 33.8826 97.0527 34 97.602 34C98.227 34 98.7232 33.8674 99.0906 33.6023C99.4618 33.3333 99.6474 33.0114 99.6474 32.6364C99.6474 32.3333 99.5414 32.0795 99.3293 31.875C99.1171 31.6667 98.7914 31.5114 98.352 31.4091L96.8974 31.0682C96.0982 30.8788 95.5111 30.5852 95.1361 30.1875C94.7649 29.786 94.5793 29.2841 94.5793 28.6818C94.5793 28.1894 94.7175 27.7538 94.994 27.375C95.2743 26.9962 95.655 26.6989 96.1361 26.483C96.6209 26.267 97.1702 26.1591 97.7838 26.1591C98.6474 26.1591 99.3255 26.3485 99.8179 26.7273C100.314 27.1061 100.666 27.6061 100.875 28.2273ZM110.198 35.1818C109.41 35.1818 108.719 34.9943 108.124 34.6193C107.533 34.2443 107.071 33.7197 106.738 33.0455C106.408 32.3712 106.243 31.5833 106.243 30.6818C106.243 29.7727 106.408 28.9792 106.738 28.3011C107.071 27.6231 107.533 27.0966 108.124 26.7216C108.719 26.3466 109.41 26.1591 110.198 26.1591C110.986 26.1591 111.675 26.3466 112.266 26.7216C112.861 27.0966 113.323 27.6231 113.652 28.3011C113.986 28.9792 114.152 29.7727 114.152 30.6818C114.152 31.5833 113.986 32.3712 113.652 33.0455C113.323 33.7197 112.861 34.2443 112.266 34.6193C111.675 34.9943 110.986 35.1818 110.198 35.1818ZM110.198 33.9773C110.796 33.9773 111.289 33.8239 111.675 33.517C112.061 33.2102 112.347 32.8068 112.533 32.3068C112.719 31.8068 112.811 31.2652 112.811 30.6818C112.811 30.0985 112.719 29.5549 112.533 29.0511C112.347 28.5473 112.061 28.1402 111.675 27.8295C111.289 27.5189 110.796 27.3636 110.198 27.3636C109.599 27.3636 109.107 27.5189 108.72 27.8295C108.334 28.1402 108.048 28.5473 107.863 29.0511C107.677 29.5549 107.584 30.0985 107.584 30.6818C107.584 31.2652 107.677 31.8068 107.863 32.3068C108.048 32.8068 108.334 33.2102 108.72 33.517C109.107 33.8239 109.599 33.9773 110.198 33.9773ZM115.749 35V26.2727H117.045V27.5909H117.136C117.295 27.1591 117.582 26.8087 117.999 26.5398C118.416 26.2708 118.886 26.1364 119.408 26.1364C119.507 26.1364 119.63 26.1383 119.778 26.142C119.925 26.1458 120.037 26.1515 120.113 26.1591V27.5227C120.067 27.5114 119.963 27.4943 119.8 27.4716C119.641 27.4451 119.473 27.4318 119.295 27.4318C118.87 27.4318 118.492 27.5208 118.158 27.6989C117.829 27.8731 117.567 28.1155 117.374 28.4261C117.185 28.733 117.09 29.0833 117.09 29.4773V35H115.749ZM129.098 26.2727V27.4091H124.575V26.2727H129.098ZM125.893 24.1818H127.234V32.5C127.234 32.8788 127.289 33.1629 127.399 33.3523C127.512 33.5379 127.656 33.6629 127.831 33.7273C128.009 33.7879 128.196 33.8182 128.393 33.8182C128.541 33.8182 128.662 33.8106 128.757 33.7955C128.852 33.7765 128.927 33.7614 128.984 33.75L129.257 34.9545C129.166 34.9886 129.039 35.0227 128.876 35.0568C128.713 35.0947 128.507 35.1136 128.257 35.1136C127.878 35.1136 127.507 35.0322 127.143 34.8693C126.783 34.7064 126.484 34.4583 126.245 34.125C126.011 33.7917 125.893 33.3712 125.893 32.8636V24.1818ZM132.193 29.75V35H130.852V23.3636H132.193V27.6364H132.307C132.511 27.1856 132.818 26.8277 133.227 26.5625C133.64 26.2936 134.189 26.1591 134.875 26.1591C135.47 26.1591 135.991 26.2784 136.438 26.517C136.884 26.7519 137.231 27.1136 137.477 27.6023C137.727 28.0871 137.852 28.7045 137.852 29.4545V35H136.511V29.5455C136.511 28.8523 136.331 28.3163 135.972 27.9375C135.616 27.5549 135.121 27.3636 134.489 27.3636C134.049 27.3636 133.655 27.4564 133.307 27.642C132.962 27.8277 132.689 28.0985 132.489 28.4545C132.292 28.8106 132.193 29.2424 132.193 29.75ZM142.424 35.2045C141.871 35.2045 141.369 35.1004 140.918 34.892C140.467 34.6799 140.109 34.375 139.844 33.9773C139.579 33.5758 139.446 33.0909 139.446 32.5227C139.446 32.0227 139.545 31.6174 139.742 31.3068C139.939 30.9924 140.202 30.7462 140.532 30.5682C140.861 30.3902 141.225 30.2576 141.622 30.1705C142.024 30.0795 142.427 30.0076 142.833 29.9545C143.363 29.8864 143.793 29.8352 144.122 29.8011C144.456 29.7633 144.698 29.7008 144.85 29.6136C145.005 29.5265 145.083 29.375 145.083 29.1591V29.1136C145.083 28.553 144.929 28.1174 144.622 27.8068C144.319 27.4962 143.859 27.3409 143.242 27.3409C142.602 27.3409 142.1 27.4811 141.736 27.7614C141.372 28.0417 141.117 28.3409 140.969 28.6591L139.696 28.2045C139.924 27.6742 140.227 27.2614 140.605 26.9659C140.988 26.6667 141.405 26.4583 141.855 26.3409C142.31 26.2197 142.757 26.1591 143.196 26.1591C143.477 26.1591 143.799 26.1932 144.162 26.2614C144.53 26.3258 144.884 26.4602 145.225 26.6648C145.569 26.8693 145.855 27.178 146.083 27.5909C146.31 28.0038 146.424 28.5568 146.424 29.25V35H145.083V33.8182H145.014C144.924 34.0076 144.772 34.2102 144.56 34.4261C144.348 34.642 144.066 34.8258 143.713 34.9773C143.361 35.1288 142.931 35.2045 142.424 35.2045ZM142.628 34C143.158 34 143.605 33.8958 143.969 33.6875C144.336 33.4792 144.613 33.2102 144.799 32.8807C144.988 32.5511 145.083 32.2045 145.083 31.8409V30.6136C145.026 30.6818 144.901 30.7443 144.708 30.8011C144.518 30.8542 144.299 30.9015 144.049 30.9432C143.802 30.9811 143.562 31.0152 143.327 31.0455C143.096 31.072 142.908 31.0947 142.764 31.1136C142.416 31.1591 142.09 31.233 141.787 31.3352C141.488 31.4337 141.246 31.5833 141.06 31.7841C140.878 31.9811 140.787 32.25 140.787 32.5909C140.787 33.0568 140.96 33.4091 141.304 33.6477C141.653 33.8826 142.094 34 142.628 34ZM152.216 26.2727V27.4091H147.694V26.2727H152.216ZM149.012 24.1818H150.353V32.5C150.353 32.8788 150.408 33.1629 150.518 33.3523C150.631 33.5379 150.775 33.6629 150.949 33.7273C151.127 33.7879 151.315 33.8182 151.512 33.8182C151.66 33.8182 151.781 33.8106 151.876 33.7955C151.97 33.7765 152.046 33.7614 152.103 33.75L152.376 34.9545C152.285 34.9886 152.158 35.0227 151.995 35.0568C151.832 35.0947 151.626 35.1136 151.376 35.1136C150.997 35.1136 150.626 35.0322 150.262 34.8693C149.902 34.7064 149.603 34.4583 149.364 34.125C149.129 33.7917 149.012 33.3712 149.012 32.8636V24.1818ZM160.402 35.2045C159.849 35.2045 159.347 35.1004 158.896 34.892C158.445 34.6799 158.087 34.375 157.822 33.9773C157.557 33.5758 157.424 33.0909 157.424 32.5227C157.424 32.0227 157.523 31.6174 157.72 31.3068C157.917 30.9924 158.18 30.7462 158.51 30.5682C158.839 30.3902 159.203 30.2576 159.601 30.1705C160.002 30.0795 160.405 30.0076 160.811 29.9545C161.341 29.8864 161.771 29.8352 162.101 29.8011C162.434 29.7633 162.676 29.7008 162.828 29.6136C162.983 29.5265 163.061 29.375 163.061 29.1591V29.1136C163.061 28.553 162.907 28.1174 162.601 27.8068C162.298 27.4962 161.837 27.3409 161.22 27.3409C160.58 27.3409 160.078 27.4811 159.714 27.7614C159.351 28.0417 159.095 28.3409 158.947 28.6591L157.674 28.2045C157.902 27.6742 158.205 27.2614 158.584 26.9659C158.966 26.6667 159.383 26.4583 159.834 26.3409C160.288 26.2197 160.735 26.1591 161.174 26.1591C161.455 26.1591 161.777 26.1932 162.14 26.2614C162.508 26.3258 162.862 26.4602 163.203 26.6648C163.548 26.8693 163.834 27.178 164.061 27.5909C164.288 28.0038 164.402 28.5568 164.402 29.25V35H163.061V33.8182H162.993C162.902 34.0076 162.75 34.2102 162.538 34.4261C162.326 34.642 162.044 34.8258 161.691 34.9773C161.339 35.1288 160.909 35.2045 160.402 35.2045ZM160.606 34C161.137 34 161.584 33.8958 161.947 33.6875C162.315 33.4792 162.591 33.2102 162.777 32.8807C162.966 32.5511 163.061 32.2045 163.061 31.8409V30.6136C163.004 30.6818 162.879 30.7443 162.686 30.8011C162.496 30.8542 162.277 30.9015 162.027 30.9432C161.78 30.9811 161.54 31.0152 161.305 31.0455C161.074 31.072 160.887 31.0947 160.743 31.1136C160.394 31.1591 160.068 31.233 159.765 31.3352C159.466 31.4337 159.224 31.5833 159.038 31.7841C158.856 31.9811 158.765 32.25 158.765 32.5909C158.765 33.0568 158.938 33.4091 159.282 33.6477C159.631 33.8826 160.072 34 160.606 34ZM166.399 35V26.2727H167.695V27.5909H167.786C167.945 27.1591 168.232 26.8087 168.649 26.5398C169.066 26.2708 169.536 26.1364 170.058 26.1364C170.157 26.1364 170.28 26.1383 170.428 26.142C170.575 26.1458 170.687 26.1515 170.763 26.1591V27.5227C170.717 27.5114 170.613 27.4943 170.45 27.4716C170.291 27.4451 170.123 27.4318 169.945 27.4318C169.52 27.4318 169.142 27.5208 168.808 27.6989C168.479 27.8731 168.217 28.1155 168.024 28.4261C167.835 28.733 167.74 29.0833 167.74 29.4773V35H166.399ZM175.296 35.1818C174.455 35.1818 173.729 34.9962 173.12 34.625C172.514 34.25 172.046 33.7273 171.716 33.0568C171.39 32.3826 171.228 31.5985 171.228 30.7045C171.228 29.8106 171.39 29.0227 171.716 28.3409C172.046 27.6553 172.504 27.1212 173.091 26.7386C173.682 26.3523 174.371 26.1591 175.159 26.1591C175.614 26.1591 176.063 26.2348 176.506 26.3864C176.949 26.5379 177.353 26.7841 177.716 27.125C178.08 27.4621 178.37 27.9091 178.585 28.4659C178.801 29.0227 178.909 29.7083 178.909 30.5227V31.0909H172.182V29.9318H177.546C177.546 29.4394 177.447 29 177.25 28.6136C177.057 28.2273 176.781 27.9223 176.421 27.6989C176.065 27.4754 175.644 27.3636 175.159 27.3636C174.625 27.3636 174.163 27.4962 173.773 27.7614C173.387 28.0227 173.089 28.3636 172.881 28.7841C172.673 29.2045 172.568 29.6553 172.568 30.1364V30.9091C172.568 31.5682 172.682 32.1269 172.909 32.5852C173.14 33.0398 173.46 33.3864 173.87 33.625C174.279 33.8598 174.754 33.9773 175.296 33.9773C175.648 33.9773 175.966 33.928 176.25 33.8295C176.538 33.7273 176.786 33.5758 176.995 33.375C177.203 33.1705 177.364 32.9167 177.478 32.6136L178.773 32.9773C178.637 33.4167 178.407 33.803 178.085 34.1364C177.764 34.4659 177.366 34.7235 176.892 34.9091C176.419 35.0909 175.887 35.1818 175.296 35.1818ZM188.095 35.1818C187.276 35.1818 186.572 34.9886 185.981 34.6023C185.39 34.2159 184.936 33.6837 184.617 33.0057C184.299 32.3277 184.14 31.553 184.14 30.6818C184.14 29.7955 184.303 29.0133 184.629 28.3352C184.958 27.6534 185.417 27.1212 186.004 26.7386C186.595 26.3523 187.284 26.1591 188.072 26.1591C188.686 26.1591 189.239 26.2727 189.731 26.5C190.223 26.7273 190.627 27.0455 190.941 27.4545C191.256 27.8636 191.451 28.3409 191.526 28.8864H190.186C190.083 28.4886 189.856 28.1364 189.504 27.8295C189.155 27.5189 188.686 27.3636 188.095 27.3636C187.572 27.3636 187.114 27.5 186.72 27.7727C186.329 28.0417 186.025 28.4223 185.805 28.9148C185.589 29.4034 185.481 29.9773 185.481 30.6364C185.481 31.3106 185.587 31.8977 185.799 32.3977C186.015 32.8977 186.318 33.286 186.708 33.5625C187.102 33.839 187.564 33.9773 188.095 33.9773C188.443 33.9773 188.759 33.9167 189.043 33.7955C189.328 33.6742 189.568 33.5 189.765 33.2727C189.962 33.0455 190.102 32.7727 190.186 32.4545H191.526C191.451 32.9697 191.263 33.4337 190.964 33.8466C190.668 34.2557 190.276 34.5814 189.788 34.8239C189.303 35.0625 188.739 35.1818 188.095 35.1818ZM194.378 23.3636V35H193.037V23.3636H194.378ZM200.043 35.1818C199.202 35.1818 198.476 34.9962 197.866 34.625C197.26 34.25 196.793 33.7273 196.463 33.0568C196.137 32.3826 195.974 31.5985 195.974 30.7045C195.974 29.8106 196.137 29.0227 196.463 28.3409C196.793 27.6553 197.251 27.1212 197.838 26.7386C198.429 26.3523 199.118 26.1591 199.906 26.1591C200.361 26.1591 200.81 26.2348 201.253 26.3864C201.696 26.5379 202.099 26.7841 202.463 27.125C202.827 27.4621 203.116 27.9091 203.332 28.4659C203.548 29.0227 203.656 29.7083 203.656 30.5227V31.0909H196.929V29.9318H202.293C202.293 29.4394 202.194 29 201.997 28.6136C201.804 28.2273 201.527 27.9223 201.168 27.6989C200.812 27.4754 200.391 27.3636 199.906 27.3636C199.372 27.3636 198.91 27.4962 198.52 27.7614C198.134 28.0227 197.836 28.3636 197.628 28.7841C197.42 29.2045 197.315 29.6553 197.315 30.1364V30.9091C197.315 31.5682 197.429 32.1269 197.656 32.5852C197.887 33.0398 198.207 33.3864 198.616 33.625C199.026 33.8598 199.501 33.9773 200.043 33.9773C200.395 33.9773 200.713 33.928 200.997 33.8295C201.285 33.7273 201.533 33.5758 201.741 33.375C201.95 33.1705 202.111 32.9167 202.224 32.6136L203.52 32.9773C203.384 33.4167 203.154 33.803 202.832 34.1364C202.51 34.4659 202.113 34.7235 201.639 34.9091C201.166 35.0909 200.634 35.1818 200.043 35.1818ZM207.814 35.2045C207.261 35.2045 206.759 35.1004 206.309 34.892C205.858 34.6799 205.5 34.375 205.235 33.9773C204.969 33.5758 204.837 33.0909 204.837 32.5227C204.837 32.0227 204.935 31.6174 205.132 31.3068C205.329 30.9924 205.593 30.7462 205.922 30.5682C206.252 30.3902 206.615 30.2576 207.013 30.1705C207.415 30.0795 207.818 30.0076 208.223 29.9545C208.754 29.8864 209.184 29.8352 209.513 29.8011C209.846 29.7633 210.089 29.7008 210.24 29.6136C210.396 29.5265 210.473 29.375 210.473 29.1591V29.1136C210.473 28.553 210.32 28.1174 210.013 27.8068C209.71 27.4962 209.25 27.3409 208.632 27.3409C207.992 27.3409 207.49 27.4811 207.127 27.7614C206.763 28.0417 206.507 28.3409 206.36 28.6591L205.087 28.2045C205.314 27.6742 205.617 27.2614 205.996 26.9659C206.379 26.6667 206.795 26.4583 207.246 26.3409C207.701 26.2197 208.148 26.1591 208.587 26.1591C208.867 26.1591 209.189 26.1932 209.553 26.2614C209.92 26.3258 210.274 26.4602 210.615 26.6648C210.96 26.8693 211.246 27.178 211.473 27.5909C211.701 28.0038 211.814 28.5568 211.814 29.25V35H210.473V33.8182H210.405C210.314 34.0076 210.163 34.2102 209.951 34.4261C209.738 34.642 209.456 34.8258 209.104 34.9773C208.752 35.1288 208.322 35.2045 207.814 35.2045ZM208.019 34C208.549 34 208.996 33.8958 209.36 33.6875C209.727 33.4792 210.004 33.2102 210.189 32.8807C210.379 32.5511 210.473 32.2045 210.473 31.8409V30.6136C210.416 30.6818 210.291 30.7443 210.098 30.8011C209.909 30.8542 209.689 30.9015 209.439 30.9432C209.193 30.9811 208.952 31.0152 208.718 31.0455C208.487 31.072 208.299 31.0947 208.155 31.1136C207.807 31.1591 207.481 31.233 207.178 31.3352C206.879 31.4337 206.636 31.5833 206.451 31.7841C206.269 31.9811 206.178 32.25 206.178 32.5909C206.178 33.0568 206.35 33.4091 206.695 33.6477C207.043 33.8826 207.485 34 208.019 34ZM215.153 29.75V35H213.812V26.2727H215.107V27.6364H215.221C215.425 27.1932 215.736 26.8371 216.153 26.5682C216.569 26.2955 217.107 26.1591 217.766 26.1591C218.357 26.1591 218.874 26.2803 219.317 26.5227C219.761 26.7614 220.105 27.125 220.351 27.6136C220.598 28.0985 220.721 28.7121 220.721 29.4545V35H219.38V29.5455C219.38 28.8598 219.202 28.3258 218.846 27.9432C218.49 27.5568 218.001 27.3636 217.38 27.3636C216.952 27.3636 216.569 27.4564 216.232 27.642C215.899 27.8277 215.636 28.0985 215.442 28.4545C215.249 28.8106 215.153 29.2424 215.153 29.75ZM224.062 23.3636V35H222.721V23.3636H224.062ZM226.068 35V26.2727H227.409V35H226.068ZM226.75 24.8182C226.488 24.8182 226.263 24.7292 226.074 24.5511C225.888 24.3731 225.795 24.1591 225.795 23.9091C225.795 23.6591 225.888 23.4451 226.074 23.267C226.263 23.089 226.488 23 226.75 23C227.011 23 227.235 23.089 227.42 23.267C227.61 23.4451 227.704 23.6591 227.704 23.9091C227.704 24.1591 227.61 24.3731 227.42 24.5511C227.235 24.7292 227.011 24.8182 226.75 24.8182ZM230.756 29.75V35H229.415V26.2727H230.71V27.6364H230.824C231.028 27.1932 231.339 26.8371 231.756 26.5682C232.172 26.2955 232.71 26.1591 233.369 26.1591C233.96 26.1591 234.477 26.2803 234.92 26.5227C235.364 26.7614 235.708 27.125 235.955 27.6136C236.201 28.0985 236.324 28.7121 236.324 29.4545V35H234.983V29.5455C234.983 28.8598 234.805 28.3258 234.449 27.9432C234.093 27.5568 233.604 27.3636 232.983 27.3636C232.555 27.3636 232.172 27.4564 231.835 27.642C231.502 27.8277 231.239 28.0985 231.045 28.4545C230.852 28.8106 230.756 29.2424 230.756 29.75ZM241.983 35.1818C241.142 35.1818 240.417 34.9962 239.807 34.625C239.201 34.25 238.733 33.7273 238.404 33.0568C238.078 32.3826 237.915 31.5985 237.915 30.7045C237.915 29.8106 238.078 29.0227 238.404 28.3409C238.733 27.6553 239.192 27.1212 239.779 26.7386C240.37 26.3523 241.059 26.1591 241.847 26.1591C242.301 26.1591 242.75 26.2348 243.193 26.3864C243.637 26.5379 244.04 26.7841 244.404 27.125C244.767 27.4621 245.057 27.9091 245.273 28.4659C245.489 29.0227 245.597 29.7083 245.597 30.5227V31.0909H238.87V29.9318H244.233C244.233 29.4394 244.135 29 243.938 28.6136C243.745 28.2273 243.468 27.9223 243.108 27.6989C242.752 27.4754 242.332 27.3636 241.847 27.3636C241.313 27.3636 240.851 27.4962 240.46 27.7614C240.074 28.0227 239.777 28.3636 239.568 28.7841C239.36 29.2045 239.256 29.6553 239.256 30.1364V30.9091C239.256 31.5682 239.37 32.1269 239.597 32.5852C239.828 33.0398 240.148 33.3864 240.557 33.625C240.966 33.8598 241.442 33.9773 241.983 33.9773C242.335 33.9773 242.654 33.928 242.938 33.8295C243.226 33.7273 243.474 33.5758 243.682 33.375C243.89 33.1705 244.051 32.9167 244.165 32.6136L245.46 32.9773C245.324 33.4167 245.095 33.803 244.773 34.1364C244.451 34.4659 244.053 34.7235 243.58 34.9091C243.106 35.0909 242.574 35.1818 241.983 35.1818ZM253.368 28.2273L252.164 28.5682C252.088 28.3674 251.976 28.1723 251.829 27.983C251.685 27.7898 251.488 27.6307 251.238 27.5057C250.988 27.3807 250.668 27.3182 250.278 27.3182C249.743 27.3182 249.298 27.4413 248.942 27.6875C248.59 27.9299 248.414 28.2386 248.414 28.6136C248.414 28.947 248.535 29.2102 248.778 29.4034C249.02 29.5966 249.399 29.7576 249.914 29.8864L251.209 30.2045C251.99 30.3939 252.571 30.6837 252.954 31.0739C253.336 31.4602 253.528 31.9583 253.528 32.5682C253.528 33.0682 253.384 33.5152 253.096 33.9091C252.812 34.303 252.414 34.6136 251.903 34.8409C251.391 35.0682 250.797 35.1818 250.118 35.1818C249.228 35.1818 248.492 34.9886 247.908 34.6023C247.325 34.2159 246.956 33.6515 246.8 32.9091L248.073 32.5909C248.194 33.0606 248.423 33.4129 248.761 33.6477C249.101 33.8826 249.547 34 250.096 34C250.721 34 251.217 33.8674 251.584 33.6023C251.956 33.3333 252.141 33.0114 252.141 32.6364C252.141 32.3333 252.035 32.0795 251.823 31.875C251.611 31.6667 251.285 31.5114 250.846 31.4091L249.391 31.0682C248.592 30.8788 248.005 30.5852 247.63 30.1875C247.259 29.786 247.073 29.2841 247.073 28.6818C247.073 28.1894 247.211 27.7538 247.488 27.375C247.768 26.9962 248.149 26.6989 248.63 26.483C249.115 26.267 249.664 26.1591 250.278 26.1591C251.141 26.1591 251.819 26.3485 252.312 26.7273C252.808 27.1061 253.16 27.6061 253.368 28.2273ZM261.278 28.2273L260.073 28.5682C259.998 28.3674 259.886 28.1723 259.738 27.983C259.594 27.7898 259.397 27.6307 259.147 27.5057C258.897 27.3807 258.577 27.3182 258.187 27.3182C257.653 27.3182 257.208 27.4413 256.852 27.6875C256.499 27.9299 256.323 28.2386 256.323 28.6136C256.323 28.947 256.445 29.2102 256.687 29.4034C256.929 29.5966 257.308 29.7576 257.823 29.8864L259.119 30.2045C259.899 30.3939 260.48 30.6837 260.863 31.0739C261.246 31.4602 261.437 31.9583 261.437 32.5682C261.437 33.0682 261.293 33.5152 261.005 33.9091C260.721 34.303 260.323 34.6136 259.812 34.8409C259.301 35.0682 258.706 35.1818 258.028 35.1818C257.138 35.1818 256.401 34.9886 255.818 34.6023C255.234 34.2159 254.865 33.6515 254.71 32.9091L255.982 32.5909C256.104 33.0606 256.333 33.4129 256.67 33.6477C257.011 33.8826 257.456 34 258.005 34C258.63 34 259.126 33.8674 259.494 33.6023C259.865 33.3333 260.051 33.0114 260.051 32.6364C260.051 32.3333 259.945 32.0795 259.732 31.875C259.52 31.6667 259.195 31.5114 258.755 31.4091L257.301 31.0682C256.501 30.8788 255.914 30.5852 255.539 30.1875C255.168 29.786 254.982 29.2841 254.982 28.6818C254.982 28.1894 255.121 27.7538 255.397 27.375C255.677 26.9962 256.058 26.6989 256.539 26.483C257.024 26.267 257.573 26.1591 258.187 26.1591C259.051 26.1591 259.729 26.3485 260.221 26.7273C260.717 27.1061 261.07 27.6061 261.278 28.2273Z" fill="#151940"/>
</svg>
