<svg width="155" height="12" viewBox="0 0 155 12" fill="none" xmlns="http://www.w3.org/2000/svg">
<path d="M3.41477 11H0.118608V0.818182H3.51918C4.51681 0.818182 5.37358 1.02202 6.08949 1.42969C6.8054 1.83404 7.35393 2.41572 7.73509 3.17472C8.11956 3.9304 8.31179 4.83688 8.31179 5.89418C8.31179 6.95478 8.1179 7.86624 7.73011 8.62855C7.34564 9.39086 6.78883 9.97751 6.05966 10.3885C5.33049 10.7962 4.44886 11 3.41477 11ZM1.65483 9.65767H3.33026C4.10582 9.65767 4.75047 9.51184 5.2642 9.22017C5.77794 8.92519 6.16241 8.49929 6.41761 7.94247C6.67282 7.38234 6.80043 6.69957 6.80043 5.89418C6.80043 5.09541 6.67282 4.41761 6.41761 3.8608C6.16572 3.30398 5.78954 2.88139 5.28906 2.59304C4.78859 2.30469 4.16714 2.16051 3.42472 2.16051H1.65483V9.65767ZM13.3194 11.1541C12.6035 11.1541 11.9788 10.9901 11.4451 10.6619C10.9115 10.3338 10.4972 9.87476 10.2022 9.2848C9.90726 8.69484 9.75977 8.00544 9.75977 7.21662C9.75977 6.42448 9.90726 5.73177 10.2022 5.13849C10.4972 4.54522 10.9115 4.08452 11.4451 3.75639C11.9788 3.42827 12.6035 3.2642 13.3194 3.2642C14.0353 3.2642 14.6601 3.42827 15.1937 3.75639C15.7273 4.08452 16.1416 4.54522 16.4366 5.13849C16.7316 5.73177 16.8791 6.42448 16.8791 7.21662C16.8791 8.00544 16.7316 8.69484 16.4366 9.2848C16.1416 9.87476 15.7273 10.3338 15.1937 10.6619C14.6601 10.9901 14.0353 11.1541 13.3194 11.1541ZM13.3244 9.90625C13.7884 9.90625 14.1729 9.78362 14.4778 9.53835C14.7827 9.29309 15.0081 8.96662 15.1539 8.55895C15.3031 8.15128 15.3777 7.70218 15.3777 7.21165C15.3777 6.72443 15.3031 6.27699 15.1539 5.86932C15.0081 5.45833 14.7827 5.12855 14.4778 4.87997C14.1729 4.63139 13.7884 4.5071 13.3244 4.5071C12.8571 4.5071 12.4693 4.63139 12.161 4.87997C11.8561 5.12855 11.6291 5.45833 11.4799 5.86932C11.3341 6.27699 11.2612 6.72443 11.2612 7.21165C11.2612 7.70218 11.3341 8.15128 11.4799 8.55895C11.6291 8.96662 11.8561 9.29309 12.161 9.53835C12.4693 9.78362 12.8571 9.90625 13.3244 9.90625ZM20.0249 6.46591V11H18.5384V3.36364H19.9652V4.60653H20.0597C20.2353 4.20218 20.5104 3.87737 20.8849 3.6321C21.2628 3.38684 21.7384 3.2642 22.3118 3.2642C22.8321 3.2642 23.2879 3.37358 23.679 3.59233C24.0701 3.80777 24.3733 4.12926 24.5888 4.55682C24.8042 4.98437 24.9119 5.51302 24.9119 6.14276V11H23.4254V6.32173C23.4254 5.76823 23.2813 5.3357 22.9929 5.02415C22.7045 4.70928 22.3085 4.55185 21.8047 4.55185C21.46 4.55185 21.1534 4.62642 20.8849 4.77557C20.6198 4.92472 20.4093 5.14347 20.2536 5.43182C20.1011 5.71686 20.0249 6.06155 20.0249 6.46591ZM28.1832 0.818182V1.77273C28.1832 2.05445 28.1302 2.35109 28.0241 2.66264C27.9214 2.97088 27.7756 3.26752 27.5866 3.55256C27.3977 3.83759 27.1757 4.08286 26.9205 4.28835L26.1847 3.76136C26.3802 3.47633 26.5492 3.17306 26.6918 2.85156C26.8376 2.53007 26.9105 2.17543 26.9105 1.78764V0.818182H28.1832ZM33.478 3.36364V4.55682H29.3068V3.36364H33.478ZM30.4254 1.53409H31.9119V8.75781C31.9119 9.04616 31.955 9.26326 32.0412 9.40909C32.1274 9.55161 32.2384 9.64938 32.3743 9.70241C32.5135 9.75213 32.6643 9.77699 32.8267 9.77699C32.946 9.77699 33.0504 9.7687 33.1399 9.75213C33.2294 9.73556 33.299 9.7223 33.3487 9.71236L33.6172 10.9403C33.531 10.9735 33.4084 11.0066 33.2493 11.0398C33.0902 11.0762 32.8913 11.0961 32.6527 11.0994C32.2616 11.1061 31.897 11.0365 31.5589 10.8906C31.2209 10.7448 30.9474 10.5194 30.7386 10.2145C30.5298 9.90956 30.4254 9.52675 30.4254 9.06605V1.53409ZM40.3139 6.46591V11H38.8274V0.818182H40.294V4.60653H40.3885C40.5675 4.19555 40.8409 3.86908 41.2088 3.62713C41.5767 3.38518 42.0573 3.2642 42.6506 3.2642C43.1742 3.2642 43.6316 3.37192 44.0227 3.58736C44.4171 3.80279 44.7221 4.12429 44.9375 4.55185C45.1562 4.97609 45.2656 5.50639 45.2656 6.14276V11H43.7791V6.32173C43.7791 5.7616 43.6349 5.32741 43.3466 5.01918C43.0582 4.70762 42.6572 4.55185 42.1435 4.55185C41.7921 4.55185 41.4773 4.62642 41.1989 4.77557C40.9238 4.92472 40.7067 5.14347 40.5476 5.43182C40.3918 5.71686 40.3139 6.06155 40.3139 6.46591ZM49.4716 11.169C48.9877 11.169 48.5502 11.0795 48.1591 10.9006C47.768 10.7183 47.4581 10.4548 47.2294 10.1101C47.004 9.76539 46.8913 9.3428 46.8913 8.84233C46.8913 8.41146 46.9742 8.05682 47.1399 7.77841C47.3056 7.5 47.5294 7.27959 47.8111 7.11719C48.0928 6.95478 48.4077 6.83215 48.7557 6.74929C49.1037 6.66643 49.4583 6.60346 49.8196 6.56037C50.277 6.50734 50.6482 6.46425 50.9332 6.43111C51.2183 6.39465 51.4254 6.33665 51.5547 6.2571C51.6839 6.17756 51.7486 6.0483 51.7486 5.86932V5.83452C51.7486 5.40033 51.6259 5.06392 51.3807 4.82528C51.1387 4.58665 50.7775 4.46733 50.2969 4.46733C49.7964 4.46733 49.402 4.57836 49.1136 4.80043C48.8286 5.01918 48.6314 5.26278 48.522 5.53125L47.125 5.21307C47.2907 4.74905 47.5327 4.37453 47.8509 4.08949C48.1723 3.80114 48.5419 3.59233 48.9595 3.46307C49.3771 3.33049 49.8163 3.2642 50.277 3.2642C50.5819 3.2642 50.9051 3.30066 51.2464 3.37358C51.5911 3.44318 51.9126 3.57244 52.2109 3.76136C52.5125 3.95028 52.7595 4.22041 52.9517 4.57173C53.1439 4.91974 53.2401 5.37216 53.2401 5.92898V11H51.7884V9.95597H51.7287C51.6326 10.1482 51.4884 10.3371 51.2962 10.5227C51.1039 10.7083 50.857 10.8625 50.5554 10.9851C50.2538 11.1077 49.8925 11.169 49.4716 11.169ZM49.7947 9.97585C50.2057 9.97585 50.5571 9.89465 50.8487 9.73224C51.1437 9.56984 51.3674 9.35772 51.5199 9.09588C51.6757 8.83073 51.7536 8.54735 51.7536 8.24574V7.26136C51.7005 7.31439 51.5978 7.36411 51.4453 7.41051C51.2962 7.4536 51.1255 7.49171 50.9332 7.52486C50.741 7.55469 50.5537 7.58286 50.3714 7.60938C50.1892 7.63258 50.0367 7.65246 49.9141 7.66903C49.6257 7.70549 49.3622 7.76681 49.1236 7.85298C48.8883 7.93916 48.6993 8.06345 48.5568 8.22585C48.4176 8.38494 48.348 8.59706 48.348 8.86222C48.348 9.23011 48.4839 9.50852 48.7557 9.69744C49.0275 9.88305 49.3738 9.97585 49.7947 9.97585ZM61.4792 3.36364L58.71 11H57.1191L54.345 3.36364H55.9409L57.8748 9.24006H57.9544L59.8833 3.36364H61.4792ZM65.894 11.1541C65.1416 11.1541 64.4937 10.9934 63.9501 10.6719C63.4099 10.3471 62.9922 9.89134 62.6973 9.30469C62.4056 8.71473 62.2598 8.02367 62.2598 7.23153C62.2598 6.44934 62.4056 5.75994 62.6973 5.16335C62.9922 4.56676 63.4032 4.10109 63.9302 3.76633C64.4605 3.43158 65.0803 3.2642 65.7896 3.2642C66.2205 3.2642 66.6381 3.33546 67.0424 3.47798C67.4468 3.6205 67.8097 3.84422 68.1312 4.14915C68.4527 4.45407 68.7063 4.85014 68.8919 5.33736C69.0775 5.82126 69.1703 6.40956 69.1703 7.10227V7.62926H63.1V6.51562H67.7136C67.7136 6.12453 67.6341 5.77817 67.475 5.47656C67.3159 5.17164 67.0922 4.93134 66.8038 4.75568C66.5188 4.58002 66.184 4.49219 65.7995 4.49219C65.3819 4.49219 65.0173 4.59493 64.7058 4.80043C64.3975 5.0026 64.1589 5.26776 63.9899 5.59588C63.8242 5.92069 63.7413 6.27367 63.7413 6.65483V7.52486C63.7413 8.03527 63.8308 8.46946 64.0098 8.82741C64.1921 9.18537 64.4456 9.45881 64.7704 9.64773C65.0952 9.83333 65.4747 9.92614 65.9089 9.92614C66.1906 9.92614 66.4475 9.88636 66.6795 9.80682C66.9115 9.72396 67.112 9.60133 67.2811 9.43892C67.4501 9.27652 67.5794 9.07599 67.6689 8.83736L69.0758 9.09091C68.9631 9.50521 68.7609 9.86813 68.4693 10.1797C68.1809 10.4879 67.818 10.7282 67.3805 10.9006C66.9463 11.0696 66.4508 11.1541 65.894 11.1541ZM76.747 11.169C76.2631 11.169 75.8256 11.0795 75.4345 10.9006C75.0434 10.7183 74.7335 10.4548 74.5048 10.1101C74.2794 9.76539 74.1667 9.3428 74.1667 8.84233C74.1667 8.41146 74.2496 8.05682 74.4153 7.77841C74.581 7.5 74.8047 7.27959 75.0865 7.11719C75.3682 6.95478 75.6831 6.83215 76.0311 6.74929C76.3791 6.66643 76.7337 6.60346 77.095 6.56037C77.5524 6.50734 77.9236 6.46425 78.2086 6.43111C78.4937 6.39465 78.7008 6.33665 78.8301 6.2571C78.9593 6.17756 79.024 6.0483 79.024 5.86932V5.83452C79.024 5.40033 78.9013 5.06392 78.6561 4.82528C78.4141 4.58665 78.0529 4.46733 77.5723 4.46733C77.0718 4.46733 76.6774 4.57836 76.389 4.80043C76.104 5.01918 75.9068 5.26278 75.7974 5.53125L74.4004 5.21307C74.5661 4.74905 74.8081 4.37453 75.1262 4.08949C75.4477 3.80114 75.8173 3.59233 76.2349 3.46307C76.6525 3.33049 77.0917 3.2642 77.5524 3.2642C77.8573 3.2642 78.1805 3.30066 78.5218 3.37358C78.8665 3.44318 79.188 3.57244 79.4863 3.76136C79.7879 3.95028 80.0349 4.22041 80.2271 4.57173C80.4193 4.91974 80.5154 5.37216 80.5154 5.92898V11H79.0637V9.95597H79.0041C78.908 10.1482 78.7638 10.3371 78.5716 10.5227C78.3793 10.7083 78.1324 10.8625 77.8308 10.9851C77.5292 11.1077 77.1679 11.169 76.747 11.169ZM77.0701 9.97585C77.4811 9.97585 77.8324 9.89465 78.1241 9.73224C78.4191 9.56984 78.6428 9.35772 78.7953 9.09588C78.9511 8.83073 79.0289 8.54735 79.0289 8.24574V7.26136C78.9759 7.31439 78.8732 7.36411 78.7207 7.41051C78.5716 7.4536 78.4009 7.49171 78.2086 7.52486C78.0164 7.55469 77.8291 7.58286 77.6468 7.60938C77.4645 7.63258 77.3121 7.65246 77.1895 7.66903C76.9011 7.70549 76.6376 7.76681 76.399 7.85298C76.1636 7.93916 75.9747 8.06345 75.8322 8.22585C75.693 8.38494 75.6234 8.59706 75.6234 8.86222C75.6234 9.23011 75.7593 9.50852 76.0311 9.69744C76.3029 9.88305 76.6492 9.97585 77.0701 9.97585ZM83.9819 6.46591V11H82.4954V3.36364H83.9222V4.60653H84.0167C84.1924 4.20218 84.4674 3.87737 84.842 3.6321C85.2198 3.38684 85.6954 3.2642 86.2688 3.2642C86.7892 3.2642 87.2449 3.37358 87.636 3.59233C88.0271 3.80777 88.3304 4.12926 88.5458 4.55682C88.7612 4.98437 88.869 5.51302 88.869 6.14276V11H87.3825V6.32173C87.3825 5.76823 87.2383 5.3357 86.9499 5.02415C86.6616 4.70928 86.2655 4.55185 85.7617 4.55185C85.417 4.55185 85.1104 4.62642 84.842 4.77557C84.5768 4.92472 84.3664 5.14347 84.2106 5.43182C84.0581 5.71686 83.9819 6.06155 83.9819 6.46591ZM96.79 11.169C96.306 11.169 95.8685 11.0795 95.4775 10.9006C95.0864 10.7183 94.7765 10.4548 94.5478 10.1101C94.3224 9.76539 94.2097 9.3428 94.2097 8.84233C94.2097 8.41146 94.2926 8.05682 94.4583 7.77841C94.624 7.5 94.8477 7.27959 95.1294 7.11719C95.4112 6.95478 95.726 6.83215 96.074 6.74929C96.4221 6.66643 96.7767 6.60346 97.138 6.56037C97.5953 6.50734 97.9666 6.46425 98.2516 6.43111C98.5366 6.39465 98.7438 6.33665 98.873 6.2571C99.0023 6.17756 99.0669 6.0483 99.0669 5.86932V5.83452C99.0669 5.40033 98.9443 5.06392 98.699 4.82528C98.4571 4.58665 98.0958 4.46733 97.6152 4.46733C97.1148 4.46733 96.7203 4.57836 96.432 4.80043C96.147 5.01918 95.9498 5.26278 95.8404 5.53125L94.4434 5.21307C94.6091 4.74905 94.851 4.37453 95.1692 4.08949C95.4907 3.80114 95.8603 3.59233 96.2779 3.46307C96.6955 3.33049 97.1346 3.2642 97.5953 3.2642C97.9003 3.2642 98.2234 3.30066 98.5648 3.37358C98.9095 3.44318 99.231 3.57244 99.5293 3.76136C99.8309 3.95028 100.078 4.22041 100.27 4.57173C100.462 4.91974 100.558 5.37216 100.558 5.92898V11H99.1067V9.95597H99.0471C98.9509 10.1482 98.8068 10.3371 98.6145 10.5227C98.4223 10.7083 98.1754 10.8625 97.8738 10.9851C97.5721 11.1077 97.2109 11.169 96.79 11.169ZM97.1131 9.97585C97.5241 9.97585 97.8754 9.89465 98.1671 9.73224C98.4621 9.56984 98.6858 9.35772 98.8382 9.09588C98.994 8.83073 99.0719 8.54735 99.0719 8.24574V7.26136C99.0189 7.31439 98.9161 7.36411 98.7637 7.41051C98.6145 7.4536 98.4438 7.49171 98.2516 7.52486C98.0594 7.55469 97.8721 7.58286 97.6898 7.60938C97.5075 7.63258 97.3551 7.65246 97.2324 7.66903C96.9441 7.70549 96.6806 7.76681 96.4419 7.85298C96.2066 7.93916 96.0177 8.06345 95.8752 8.22585C95.736 8.38494 95.6664 8.59706 95.6664 8.86222C95.6664 9.23011 95.8023 9.50852 96.074 9.69744C96.3458 9.88305 96.6922 9.97585 97.1131 9.97585ZM105.755 11.1541C105.016 11.1541 104.379 10.9867 103.846 10.652C103.316 10.3139 102.908 9.84825 102.623 9.25497C102.338 8.66169 102.195 7.98224 102.195 7.21662C102.195 6.44105 102.341 5.75663 102.633 5.16335C102.924 4.56676 103.335 4.10109 103.866 3.76633C104.396 3.43158 105.021 3.2642 105.74 3.2642C106.32 3.2642 106.837 3.37192 107.291 3.58736C107.745 3.79948 108.112 4.09777 108.39 4.48224C108.672 4.86671 108.839 5.31581 108.892 5.82955H107.445C107.366 5.47159 107.183 5.16335 106.898 4.90483C106.617 4.64631 106.239 4.51705 105.765 4.51705C105.351 4.51705 104.988 4.62642 104.676 4.84517C104.368 5.06061 104.128 5.36884 103.955 5.76989C103.783 6.16761 103.697 6.63826 103.697 7.18182C103.697 7.73864 103.781 8.21922 103.95 8.62358C104.119 9.02794 104.358 9.34115 104.666 9.56321C104.978 9.78527 105.344 9.89631 105.765 9.89631C106.047 9.89631 106.302 9.84493 106.531 9.74219C106.763 9.63613 106.956 9.48532 107.112 9.28977C107.271 9.09422 107.382 8.8589 107.445 8.58381H108.892C108.839 9.07765 108.678 9.51847 108.41 9.90625C108.141 10.294 107.782 10.599 107.331 10.821C106.884 11.0431 106.358 11.1541 105.755 11.1541ZM113.698 11.1541C112.959 11.1541 112.323 10.9867 111.789 10.652C111.259 10.3139 110.851 9.84825 110.566 9.25497C110.281 8.66169 110.139 7.98224 110.139 7.21662C110.139 6.44105 110.285 5.75663 110.576 5.16335C110.868 4.56676 111.279 4.10109 111.809 3.76633C112.339 3.43158 112.964 3.2642 113.683 3.2642C114.263 3.2642 114.78 3.37192 115.235 3.58736C115.689 3.79948 116.055 4.09777 116.333 4.48224C116.615 4.86671 116.782 5.31581 116.835 5.82955H115.389C115.309 5.47159 115.127 5.16335 114.842 4.90483C114.56 4.64631 114.182 4.51705 113.708 4.51705C113.294 4.51705 112.931 4.62642 112.619 4.84517C112.311 5.06061 112.071 5.36884 111.899 5.76989C111.726 6.16761 111.64 6.63826 111.64 7.18182C111.64 7.73864 111.725 8.21922 111.894 8.62358C112.063 9.02794 112.301 9.34115 112.61 9.56321C112.921 9.78527 113.287 9.89631 113.708 9.89631C113.99 9.89631 114.245 9.84493 114.474 9.74219C114.706 9.63613 114.9 9.48532 115.056 9.28977C115.215 9.09422 115.326 8.8589 115.389 8.58381H116.835C116.782 9.07765 116.622 9.51847 116.353 9.90625C116.085 10.294 115.725 10.599 115.274 10.821C114.827 11.0431 114.302 11.1541 113.698 11.1541ZM121.642 11.1541C120.926 11.1541 120.301 10.9901 119.767 10.6619C119.234 10.3338 118.819 9.87476 118.525 9.2848C118.23 8.69484 118.082 8.00544 118.082 7.21662C118.082 6.42448 118.23 5.73177 118.525 5.13849C118.819 4.54522 119.234 4.08452 119.767 3.75639C120.301 3.42827 120.926 3.2642 121.642 3.2642C122.358 3.2642 122.982 3.42827 123.516 3.75639C124.05 4.08452 124.464 4.54522 124.759 5.13849C125.054 5.73177 125.201 6.42448 125.201 7.21662C125.201 8.00544 125.054 8.69484 124.759 9.2848C124.464 9.87476 124.05 10.3338 123.516 10.6619C122.982 10.9901 122.358 11.1541 121.642 11.1541ZM121.647 9.90625C122.111 9.90625 122.495 9.78362 122.8 9.53835C123.105 9.29309 123.33 8.96662 123.476 8.55895C123.625 8.15128 123.7 7.70218 123.7 7.21165C123.7 6.72443 123.625 6.27699 123.476 5.86932C123.33 5.45833 123.105 5.12855 122.8 4.87997C122.495 4.63139 122.111 4.5071 121.647 4.5071C121.179 4.5071 120.792 4.63139 120.483 4.87997C120.178 5.12855 119.951 5.45833 119.802 5.86932C119.656 6.27699 119.583 6.72443 119.583 7.21165C119.583 7.70218 119.656 8.15128 119.802 8.55895C119.951 8.96662 120.178 9.29309 120.483 9.53835C120.792 9.78362 121.179 9.90625 121.647 9.90625ZM131.698 7.8331V3.36364H133.189V11H131.728V9.67756H131.648C131.473 10.0852 131.191 10.425 130.803 10.6967C130.419 10.9652 129.94 11.0994 129.366 11.0994C128.876 11.0994 128.442 10.9917 128.064 10.7763C127.689 10.5575 127.394 10.2344 127.179 9.80682C126.967 9.37926 126.861 8.85062 126.861 8.22088V3.36364H128.347V8.0419C128.347 8.56226 128.491 8.97656 128.78 9.2848C129.068 9.59304 129.443 9.74716 129.903 9.74716C130.182 9.74716 130.458 9.67756 130.733 9.53835C131.012 9.39915 131.242 9.18868 131.425 8.90696C131.61 8.62524 131.701 8.26728 131.698 7.8331ZM136.673 6.46591V11H135.187V3.36364H136.614V4.60653H136.708C136.884 4.20218 137.159 3.87737 137.533 3.6321C137.911 3.38684 138.387 3.2642 138.96 3.2642C139.481 3.2642 139.936 3.37358 140.327 3.59233C140.719 3.80777 141.022 4.12926 141.237 4.55682C141.453 4.98437 141.56 5.51302 141.56 6.14276V11H140.074V6.32173C140.074 5.76823 139.93 5.3357 139.641 5.02415C139.353 4.70928 138.957 4.55185 138.453 4.55185C138.108 4.55185 137.802 4.62642 137.533 4.77557C137.268 4.92472 137.058 5.14347 136.902 5.43182C136.75 5.71686 136.673 6.06155 136.673 6.46591ZM147.119 3.36364V4.55682H142.947V3.36364H147.119ZM144.066 1.53409H145.553V8.75781C145.553 9.04616 145.596 9.26326 145.682 9.40909C145.768 9.55161 145.879 9.64938 146.015 9.70241C146.154 9.75213 146.305 9.77699 146.467 9.77699C146.587 9.77699 146.691 9.7687 146.781 9.75213C146.87 9.73556 146.94 9.7223 146.989 9.71236L147.258 10.9403C147.172 10.9735 147.049 11.0066 146.89 11.0398C146.731 11.0762 146.532 11.0961 146.293 11.0994C145.902 11.1061 145.538 11.0365 145.2 10.8906C144.862 10.7448 144.588 10.5194 144.379 10.2145C144.17 9.90956 144.066 9.52675 144.066 9.06605V1.53409ZM150.389 8.07173V7.97727C150.395 7.3608 150.457 6.87026 150.573 6.50568C150.692 6.1411 150.861 5.84612 151.08 5.62074C151.298 5.39536 151.562 5.18987 151.87 5.00426C152.069 4.87831 152.248 4.73745 152.407 4.58168C152.566 4.4259 152.692 4.24692 152.785 4.04474C152.878 3.84257 152.924 3.61884 152.924 3.37358C152.924 3.0786 152.855 2.82339 152.715 2.60795C152.576 2.39252 152.391 2.2268 152.159 2.1108C151.93 1.99148 151.675 1.93182 151.393 1.93182C151.138 1.93182 150.894 1.98485 150.662 2.09091C150.43 2.19697 150.238 2.36269 150.085 2.58807C149.933 2.81013 149.845 3.09683 149.822 3.44815H148.311C148.334 2.85156 148.485 2.34777 148.763 1.93679C149.041 1.52249 149.409 1.20928 149.867 0.997158C150.327 0.785037 150.836 0.678977 151.393 0.678977C152.003 0.678977 152.536 0.793324 152.994 1.02202C153.451 1.2474 153.806 1.56392 154.058 1.97159C154.313 2.37595 154.441 2.84825 154.441 3.38849C154.441 3.75971 154.383 4.09446 154.267 4.39276C154.151 4.68774 153.985 4.95123 153.769 5.18324C153.557 5.41525 153.302 5.62074 153.004 5.79972C152.722 5.97538 152.493 6.15767 152.318 6.34659C152.145 6.53551 152.019 6.75923 151.94 7.01776C151.86 7.27628 151.817 7.59612 151.811 7.97727V8.07173H150.389ZM151.139 11.0945C150.868 11.0945 150.634 10.9983 150.438 10.8061C150.243 10.6106 150.145 10.3752 150.145 10.1001C150.145 9.82836 150.243 9.59635 150.438 9.40412C150.634 9.20857 150.868 9.1108 151.139 9.1108C151.408 9.1108 151.64 9.20857 151.835 9.40412C152.034 9.59635 152.134 9.82836 152.134 10.1001C152.134 10.2824 152.087 10.4498 151.994 10.6023C151.905 10.7514 151.786 10.8707 151.637 10.9602C151.487 11.0497 151.322 11.0945 151.139 11.0945Z" fill="#151940"/>
</svg>
