<svg width="161" height="53" viewBox="0 0 161 53" fill="none" xmlns="http://www.w3.org/2000/svg">
<rect width="161" height="53" rx="5" fill="#F5F6FA"/>
<path d="M47.2192 25.0348C47.1231 24.7332 46.9938 24.4631 46.8314 24.2244C46.6723 23.9825 46.4817 23.777 46.2597 23.608C46.0376 23.4356 45.7841 23.3047 45.499 23.2152C45.2173 23.1257 44.9074 23.081 44.5693 23.081C43.9959 23.081 43.4789 23.2285 43.0182 23.5234C42.5575 23.8184 42.1929 24.2509 41.9244 24.821C41.6593 25.3878 41.5267 26.0821 41.5267 26.9041C41.5267 27.7294 41.661 28.4271 41.9294 28.9972C42.1979 29.5672 42.5658 29.9998 43.0331 30.2947C43.5004 30.5897 44.0324 30.7372 44.629 30.7372C45.1825 30.7372 45.6647 30.6245 46.0757 30.3991C46.49 30.1738 46.8099 29.8556 47.0352 29.4446C47.2639 29.0303 47.3783 28.5431 47.3783 27.983L47.776 28.0575H44.8627V26.7898H48.8648V27.9482C48.8648 28.8033 48.6825 29.5457 48.3179 30.1754C47.9566 30.8018 47.4562 31.2857 46.8165 31.6271C46.1801 31.9685 45.451 32.1392 44.629 32.1392C43.7076 32.1392 42.8989 31.9271 42.2029 31.5028C41.5102 31.0786 40.9699 30.477 40.5821 29.6982C40.1943 28.916 40.0004 27.9879 40.0004 26.9141C40.0004 26.102 40.1131 25.3729 40.3385 24.7266C40.5639 24.0803 40.8804 23.5317 41.2881 23.081C41.6991 22.6269 42.1813 22.2805 42.7348 22.0419C43.2916 21.8 43.8998 21.679 44.5594 21.679C45.1096 21.679 45.6217 21.7602 46.0956 21.9226C46.5729 22.085 46.9971 22.3153 47.3683 22.6136C47.7429 22.9119 48.0528 23.2666 48.298 23.6776C48.5433 24.0852 48.709 24.5376 48.7952 25.0348H47.2192ZM62.2094 26.9091C62.2094 27.9962 62.0105 28.9309 61.6128 29.7131C61.215 30.492 60.6698 31.0919 59.9771 31.5128C59.2877 31.9304 58.5039 32.1392 57.6256 32.1392C56.7439 32.1392 55.9568 31.9304 55.264 31.5128C54.5747 31.0919 54.0311 30.4903 53.6334 29.7081C53.2356 28.9259 53.0368 27.9929 53.0368 26.9091C53.0368 25.822 53.2356 24.889 53.6334 24.1101C54.0311 23.3279 54.5747 22.728 55.264 22.3104C55.9568 21.8894 56.7439 21.679 57.6256 21.679C58.5039 21.679 59.2877 21.8894 59.9771 22.3104C60.6698 22.728 61.215 23.3279 61.6128 24.1101C62.0105 24.889 62.2094 25.822 62.2094 26.9091ZM60.6881 26.9091C60.6881 26.0805 60.5538 25.3828 60.2854 24.8161C60.0202 24.246 59.6556 23.8151 59.1916 23.5234C58.7309 23.2285 58.2089 23.081 57.6256 23.081C57.0389 23.081 56.5152 23.2285 56.0545 23.5234C55.5938 23.8151 55.2292 24.246 54.9608 24.8161C54.6956 25.3828 54.5631 26.0805 54.5631 26.9091C54.5631 27.7377 54.6956 28.437 54.9608 29.0071C55.2292 29.5739 55.5938 30.0047 56.0545 30.2997C56.5152 30.5914 57.0389 30.7372 57.6256 30.7372C58.2089 30.7372 58.7309 30.5914 59.1916 30.2997C59.6556 30.0047 60.0202 29.5739 60.2854 29.0071C60.5538 28.437 60.6881 27.7377 60.6881 26.9091ZM75.5191 26.9091C75.5191 27.9962 75.3203 28.9309 74.9225 29.7131C74.5248 30.492 73.9796 31.0919 73.2869 31.5128C72.5975 31.9304 71.8136 32.1392 70.9353 32.1392C70.0537 32.1392 69.2665 31.9304 68.5738 31.5128C67.8844 31.0919 67.3409 30.4903 66.9431 29.7081C66.5454 28.9259 66.3465 27.9929 66.3465 26.9091C66.3465 25.822 66.5454 24.889 66.9431 24.1101C67.3409 23.3279 67.8844 22.728 68.5738 22.3104C69.2665 21.8894 70.0537 21.679 70.9353 21.679C71.8136 21.679 72.5975 21.8894 73.2869 22.3104C73.9796 22.728 74.5248 23.3279 74.9225 24.1101C75.3203 24.889 75.5191 25.822 75.5191 26.9091ZM73.9978 26.9091C73.9978 26.0805 73.8636 25.3828 73.5951 24.8161C73.33 24.246 72.9654 23.8151 72.5014 23.5234C72.0407 23.2285 71.5186 23.081 70.9353 23.081C70.3487 23.081 69.825 23.2285 69.3643 23.5234C68.9036 23.8151 68.539 24.246 68.2705 24.8161C68.0054 25.3828 67.8728 26.0805 67.8728 26.9091C67.8728 27.7377 68.0054 28.437 68.2705 29.0071C68.539 29.5739 68.9036 30.0047 69.3643 30.2997C69.825 30.5914 70.3487 30.7372 70.9353 30.7372C71.5186 30.7372 72.0407 30.5914 72.5014 30.2997C72.9654 30.0047 73.33 29.5739 73.5951 29.0071C73.8636 28.437 73.9978 27.7377 73.9978 26.9091ZM86.8751 25.0348C86.7789 24.7332 86.6497 24.4631 86.4873 24.2244C86.3282 23.9825 86.1376 23.777 85.9155 23.608C85.6935 23.4356 85.4399 23.3047 85.1549 23.2152C84.8732 23.1257 84.5633 23.081 84.2252 23.081C83.6518 23.081 83.1348 23.2285 82.6741 23.5234C82.2134 23.8184 81.8488 24.2509 81.5803 24.821C81.3152 25.3878 81.1826 26.0821 81.1826 26.9041C81.1826 27.7294 81.3168 28.4271 81.5853 28.9972C81.8537 29.5672 82.2216 29.9998 82.689 30.2947C83.1563 30.5897 83.6883 30.7372 84.2849 30.7372C84.8384 30.7372 85.3206 30.6245 85.7316 30.3991C86.1459 30.1738 86.4657 29.8556 86.6911 29.4446C86.9198 29.0303 87.0341 28.5431 87.0341 27.983L87.4319 28.0575H84.5185V26.7898H88.5207V27.9482C88.5207 28.8033 88.3384 29.5457 87.9738 30.1754C87.6125 30.8018 87.112 31.2857 86.4724 31.6271C85.836 31.9685 85.1068 32.1392 84.2849 32.1392C83.3635 32.1392 82.5547 31.9271 81.8587 31.5028C81.166 31.0786 80.6258 30.477 80.238 29.6982C79.8502 28.916 79.6563 27.9879 79.6563 26.9141C79.6563 26.102 79.769 25.3729 79.9944 24.7266C80.2198 24.0803 80.5363 23.5317 80.9439 23.081C81.3549 22.6269 81.8372 22.2805 82.3907 22.0419C82.9475 21.8 83.5557 21.679 84.2153 21.679C84.7654 21.679 85.2775 21.7602 85.7515 21.9226C86.2287 22.085 86.653 22.3153 87.0242 22.6136C87.3987 22.9119 87.7086 23.2666 87.9539 23.6776C88.1992 24.0852 88.3649 24.5376 88.451 25.0348H86.8751ZM93.0208 32V21.8182H94.557V30.6776H99.1706V32H93.0208ZM103.473 32V21.8182H109.857V23.1406H105.009V26.2429H109.524V27.5604H105.009V30.6776H109.916V32H103.473Z" fill="#151940"/>
</svg>
