<svg width="247" height="45" viewBox="0 0 247 45" fill="none" xmlns="http://www.w3.org/2000/svg">
<path d="M10.1123 0.604999H11.2713V14H10.1123V7.711H1.56232V14H0.403317V0.604999H1.56232V6.685H10.1123V0.604999ZM18.1855 14.133C17.3369 14.133 16.5895 13.9367 15.9435 13.544C15.3102 13.1513 14.8162 12.594 14.4615 11.872C14.1069 11.15 13.9295 10.3077 13.9295 9.345C13.9295 8.38233 14.1069 7.54 14.4615 6.818C14.8162 6.096 15.3102 5.53867 15.9435 5.146C16.5895 4.75333 17.3369 4.557 18.1855 4.557C19.0215 4.557 19.7625 4.75333 20.4085 5.146C21.0545 5.53867 21.5485 6.096 21.8905 6.818C22.2452 7.54 22.4225 8.38233 22.4225 9.345C22.4225 10.3077 22.2452 11.15 21.8905 11.872C21.5485 12.594 21.0545 13.1513 20.4085 13.544C19.7625 13.9367 19.0215 14.133 18.1855 14.133ZM18.1665 13.107C19.1419 13.107 19.8955 12.784 20.4275 12.138C20.9595 11.492 21.2255 10.561 21.2255 9.345C21.2255 8.15433 20.9532 7.22967 20.4085 6.571C19.8765 5.89967 19.1355 5.564 18.1855 5.564C17.2229 5.564 16.4755 5.89967 15.9435 6.571C15.4115 7.22967 15.1455 8.15433 15.1455 9.345C15.1455 10.561 15.4052 11.492 15.9245 12.138C16.4439 12.784 17.1912 13.107 18.1665 13.107ZM37.3383 4.785H38.5353L35.1723 14H33.9753L31.2013 6.286L28.4083 14H27.2113L23.8673 4.785H25.1023L27.8383 12.632L30.6693 4.785H31.8093L34.5833 12.632L37.3383 4.785ZM52.1182 4.785H53.2962L47.8622 17.42H46.6842L48.1852 14L44.2332 4.785H45.4682L48.7932 12.822L52.1182 4.785ZM58.6904 14.133C57.8418 14.133 57.0944 13.9367 56.4484 13.544C55.8151 13.1513 55.3211 12.594 54.9664 11.872C54.6118 11.15 54.4344 10.3077 54.4344 9.345C54.4344 8.38233 54.6118 7.54 54.9664 6.818C55.3211 6.096 55.8151 5.53867 56.4484 5.146C57.0944 4.75333 57.8418 4.557 58.6904 4.557C59.5264 4.557 60.2674 4.75333 60.9134 5.146C61.5594 5.53867 62.0534 6.096 62.3954 6.818C62.7501 7.54 62.9274 8.38233 62.9274 9.345C62.9274 10.3077 62.7501 11.15 62.3954 11.872C62.0534 12.594 61.5594 13.1513 60.9134 13.544C60.2674 13.9367 59.5264 14.133 58.6904 14.133ZM58.6714 13.107C59.6468 13.107 60.4004 12.784 60.9324 12.138C61.4644 11.492 61.7304 10.561 61.7304 9.345C61.7304 8.15433 61.4581 7.22967 60.9134 6.571C60.3814 5.89967 59.6404 5.564 58.6904 5.564C57.7278 5.564 56.9804 5.89967 56.4484 6.571C55.9164 7.22967 55.6504 8.15433 55.6504 9.345C55.6504 10.561 55.9101 11.492 56.4294 12.138C56.9488 12.784 57.6961 13.107 58.6714 13.107ZM72.8439 4.785V14H71.7039V12.347C71.4126 12.9297 70.9946 13.373 70.4499 13.677C69.9179 13.981 69.3099 14.133 68.6259 14.133C67.5366 14.133 66.7133 13.8353 66.1559 13.24C65.6113 12.632 65.3389 11.739 65.3389 10.561V4.785H66.4979V10.485C66.4979 11.3843 66.6753 12.0493 67.0299 12.48C67.3973 12.898 67.9673 13.107 68.7399 13.107C69.6266 13.107 70.3359 12.8283 70.8679 12.271C71.4126 11.701 71.6849 10.9473 71.6849 10.01V4.785H72.8439ZM93.225 4.785H94.422L91.059 14H89.862L87.088 6.286L84.295 14H83.098L79.754 4.785H80.989L83.725 12.632L86.556 4.785H87.696L90.47 12.632L93.225 4.785ZM100.123 14.133C99.2744 14.133 98.527 13.9367 97.881 13.544C97.2477 13.1513 96.7537 12.594 96.399 11.872C96.0444 11.15 95.867 10.3077 95.867 9.345C95.867 8.38233 96.0444 7.54 96.399 6.818C96.7537 6.096 97.2477 5.53867 97.881 5.146C98.527 4.75333 99.2744 4.557 100.123 4.557C100.959 4.557 101.7 4.75333 102.346 5.146C102.992 5.53867 103.486 6.096 103.828 6.818C104.183 7.54 104.36 8.38233 104.36 9.345C104.36 10.3077 104.183 11.15 103.828 11.872C103.486 12.594 102.992 13.1513 102.346 13.544C101.7 13.9367 100.959 14.133 100.123 14.133ZM100.104 13.107C101.079 13.107 101.833 12.784 102.365 12.138C102.897 11.492 103.163 10.561 103.163 9.345C103.163 8.15433 102.891 7.22967 102.346 6.571C101.814 5.89967 101.073 5.564 100.123 5.564C99.1604 5.564 98.413 5.89967 97.881 6.571C97.349 7.22967 97.083 8.15433 97.083 9.345C97.083 10.561 97.3427 11.492 97.862 12.138C98.3814 12.784 99.1287 13.107 100.104 13.107ZM114.277 4.785V14H113.137V12.347C112.845 12.9297 112.427 13.373 111.883 13.677C111.351 13.981 110.743 14.133 110.059 14.133C108.969 14.133 108.146 13.8353 107.589 13.24C107.044 12.632 106.772 11.739 106.772 10.561V4.785H107.931V10.485C107.931 11.3843 108.108 12.0493 108.463 12.48C108.83 12.898 109.4 13.107 110.173 13.107C111.059 13.107 111.769 12.8283 112.301 12.271C112.845 11.701 113.118 10.9473 113.118 10.01V4.785H114.277ZM117.312 14V0.604999H118.471V14H117.312ZM129.37 0.604999V14H128.211V12.233C127.933 12.8537 127.521 13.3287 126.976 13.658C126.432 13.9747 125.786 14.133 125.038 14.133C124.228 14.133 123.512 13.9367 122.891 13.544C122.271 13.1387 121.789 12.575 121.447 11.853C121.105 11.1183 120.934 10.2697 120.934 9.307C120.934 8.357 121.105 7.52733 121.447 6.818C121.789 6.096 122.271 5.53867 122.891 5.146C123.512 4.75333 124.228 4.557 125.038 4.557C125.786 4.557 126.432 4.72167 126.976 5.051C127.521 5.36767 127.933 5.83633 128.211 6.457V0.604999H129.37ZM125.19 13.107C126.153 13.107 126.894 12.784 127.413 12.138C127.945 11.4793 128.211 10.5483 128.211 9.345C128.211 8.14167 127.952 7.21067 127.432 6.552C126.913 5.89333 126.172 5.564 125.209 5.564C124.234 5.564 123.48 5.89333 122.948 6.552C122.416 7.198 122.15 8.11633 122.15 9.307C122.15 10.5103 122.416 11.4477 122.948 12.119C123.48 12.7777 124.228 13.107 125.19 13.107ZM137.202 14V0.604999H138.361V14H137.202ZM141.414 14V4.785H142.573V14H141.414ZM141.243 0.889999H142.763V2.353H141.243V0.889999ZM153.378 14H151.82L146.785 9.516V14H145.626V0.604999H146.785V9.041L151.364 4.785H152.865L148.077 9.212L153.378 14ZM162.225 9.535H155.252C155.29 10.6877 155.594 11.5743 156.164 12.195C156.734 12.803 157.544 13.107 158.596 13.107C159.71 13.107 160.717 12.727 161.617 11.967L162.073 12.879C161.667 13.259 161.148 13.563 160.515 13.791C159.894 14.019 159.254 14.133 158.596 14.133C157.19 14.133 156.081 13.7087 155.271 12.86C154.46 12.0113 154.055 10.846 154.055 9.364C154.055 8.414 154.232 7.578 154.587 6.856C154.954 6.12133 155.461 5.55767 156.107 5.165C156.765 4.75967 157.519 4.557 158.368 4.557C159.571 4.557 160.515 4.94967 161.199 5.735C161.883 6.52033 162.225 7.616 162.225 9.022V9.535ZM158.368 5.507C157.481 5.507 156.772 5.78567 156.24 6.343C155.708 6.90033 155.391 7.67933 155.29 8.68H161.161C161.135 7.66667 160.882 6.88767 160.401 6.343C159.919 5.78567 159.242 5.507 158.368 5.507ZM173.175 13.145C173.453 13.145 173.726 13.126 173.992 13.088L173.935 14.057C173.656 14.095 173.358 14.114 173.042 14.114C172.003 14.114 171.218 13.8353 170.686 13.278C170.154 12.708 169.888 11.9353 169.888 10.96V5.716H168.064V4.785H169.888V1.935H171.047V4.785H173.745V5.716H171.047V10.808C171.047 11.5807 171.224 12.1633 171.579 12.556C171.946 12.9487 172.478 13.145 173.175 13.145ZM179.314 14.133C178.466 14.133 177.718 13.9367 177.072 13.544C176.439 13.1513 175.945 12.594 175.59 11.872C175.236 11.15 175.058 10.3077 175.058 9.345C175.058 8.38233 175.236 7.54 175.59 6.818C175.945 6.096 176.439 5.53867 177.072 5.146C177.718 4.75333 178.466 4.557 179.314 4.557C180.15 4.557 180.891 4.75333 181.537 5.146C182.183 5.53867 182.677 6.096 183.019 6.818C183.374 7.54 183.551 8.38233 183.551 9.345C183.551 10.3077 183.374 11.15 183.019 11.872C182.677 12.594 182.183 13.1513 181.537 13.544C180.891 13.9367 180.15 14.133 179.314 14.133ZM179.295 13.107C180.271 13.107 181.024 12.784 181.556 12.138C182.088 11.492 182.354 10.561 182.354 9.345C182.354 8.15433 182.082 7.22967 181.537 6.571C181.005 5.89967 180.264 5.564 179.314 5.564C178.352 5.564 177.604 5.89967 177.072 6.571C176.54 7.22967 176.274 8.15433 176.274 9.345C176.274 10.561 176.534 11.492 177.053 12.138C177.573 12.784 178.32 13.107 179.295 13.107ZM195.614 5.564L194.797 5.64C193.796 5.74133 193.068 6.06433 192.612 6.609C192.169 7.15367 191.947 7.81867 191.947 8.604V14H190.788V4.785H191.928V6.4C192.207 5.83 192.599 5.40567 193.106 5.127C193.625 4.83567 194.265 4.65833 195.025 4.595L195.519 4.557L195.614 5.564ZM204.622 9.535H197.649C197.687 10.6877 197.991 11.5743 198.561 12.195C199.131 12.803 199.942 13.107 200.993 13.107C202.108 13.107 203.115 12.727 204.014 11.967L204.47 12.879C204.065 13.259 203.545 13.563 202.912 13.791C202.291 14.019 201.652 14.133 200.993 14.133C199.587 14.133 198.479 13.7087 197.668 12.86C196.857 12.0113 196.452 10.846 196.452 9.364C196.452 8.414 196.629 7.578 196.984 6.856C197.351 6.12133 197.858 5.55767 198.504 5.165C199.163 4.75967 199.916 4.557 200.765 4.557C201.968 4.557 202.912 4.94967 203.596 5.735C204.28 6.52033 204.622 7.616 204.622 9.022V9.535ZM200.765 5.507C199.878 5.507 199.169 5.78567 198.637 6.343C198.105 6.90033 197.788 7.67933 197.687 8.68H203.558C203.533 7.66667 203.279 6.88767 202.798 6.343C202.317 5.78567 201.639 5.507 200.765 5.507ZM210.044 14.133C208.587 14.133 207.397 13.7213 206.472 12.898L206.909 12.005C207.403 12.4103 207.897 12.7017 208.391 12.879C208.885 13.0437 209.455 13.126 210.101 13.126C210.848 13.126 211.418 12.993 211.811 12.727C212.216 12.461 212.419 12.0873 212.419 11.606C212.419 11.2007 212.286 10.8777 212.02 10.637C211.754 10.3837 211.33 10.1937 210.747 10.067L209.189 9.706C208.442 9.52867 207.853 9.22467 207.422 8.794C207.004 8.35067 206.795 7.83133 206.795 7.236C206.795 6.438 207.105 5.792 207.726 5.298C208.347 4.804 209.176 4.557 210.215 4.557C210.861 4.557 211.463 4.66467 212.02 4.88C212.59 5.08267 213.059 5.38033 213.426 5.773L212.989 6.666C212.558 6.286 212.115 6.00733 211.659 5.83C211.216 5.65267 210.734 5.564 210.215 5.564C209.518 5.564 208.974 5.70333 208.581 5.982C208.188 6.26067 207.992 6.647 207.992 7.141C207.992 7.54633 208.112 7.87567 208.353 8.129C208.606 8.38233 208.993 8.57233 209.512 8.699L211.089 9.079C212.761 9.459 213.597 10.2823 213.597 11.549C213.597 12.3343 213.274 12.9613 212.628 13.43C211.995 13.8987 211.133 14.133 210.044 14.133ZM219.765 13.145C220.044 13.145 220.316 13.126 220.582 13.088L220.525 14.057C220.247 14.095 219.949 14.114 219.632 14.114C218.594 14.114 217.808 13.8353 217.276 13.278C216.744 12.708 216.478 11.9353 216.478 10.96V5.716H214.654V4.785H216.478V1.935H217.637V4.785H220.335V5.716H217.637V10.808C217.637 11.5807 217.815 12.1633 218.169 12.556C218.537 12.9487 219.069 13.145 219.765 13.145ZM225.905 14.133C225.057 14.133 224.309 13.9367 223.663 13.544C223.03 13.1513 222.536 12.594 222.181 11.872C221.827 11.15 221.649 10.3077 221.649 9.345C221.649 8.38233 221.827 7.54 222.181 6.818C222.536 6.096 223.03 5.53867 223.663 5.146C224.309 4.75333 225.057 4.557 225.905 4.557C226.741 4.557 227.482 4.75333 228.128 5.146C228.774 5.53867 229.268 6.096 229.61 6.818C229.965 7.54 230.142 8.38233 230.142 9.345C230.142 10.3077 229.965 11.15 229.61 11.872C229.268 12.594 228.774 13.1513 228.128 13.544C227.482 13.9367 226.741 14.133 225.905 14.133ZM225.886 13.107C226.862 13.107 227.615 12.784 228.147 12.138C228.679 11.492 228.945 10.561 228.945 9.345C228.945 8.15433 228.673 7.22967 228.128 6.571C227.596 5.89967 226.855 5.564 225.905 5.564C224.943 5.564 224.195 5.89967 223.663 6.571C223.131 7.22967 222.865 8.15433 222.865 9.345C222.865 10.561 223.125 11.492 223.644 12.138C224.164 12.784 224.911 13.107 225.886 13.107ZM237.418 5.564L236.601 5.64C235.6 5.74133 234.872 6.06433 234.416 6.609C233.972 7.15367 233.751 7.81867 233.751 8.604V14H232.592V4.785H233.732V6.4C234.01 5.83 234.403 5.40567 234.91 5.127C235.429 4.83567 236.069 4.65833 236.829 4.595L237.323 4.557L237.418 5.564ZM246.426 9.535H239.453C239.491 10.6877 239.795 11.5743 240.365 12.195C240.935 12.803 241.745 13.107 242.797 13.107C243.911 13.107 244.918 12.727 245.818 11.967L246.274 12.879C245.868 13.259 245.349 13.563 244.716 13.791C244.095 14.019 243.455 14.133 242.797 14.133C241.391 14.133 240.282 13.7087 239.472 12.86C238.661 12.0113 238.256 10.846 238.256 9.364C238.256 8.414 238.433 7.578 238.788 6.856C239.155 6.12133 239.662 5.55767 240.308 5.165C240.966 4.75967 241.72 4.557 242.569 4.557C243.772 4.557 244.716 4.94967 245.4 5.735C246.084 6.52033 246.426 7.616 246.426 9.022V9.535ZM242.569 5.507C241.682 5.507 240.973 5.78567 240.441 6.343C239.909 6.90033 239.592 7.67933 239.491 8.68H245.362C245.336 7.66667 245.083 6.88767 244.602 6.343C244.12 5.78567 243.443 5.507 242.569 5.507ZM65.1529 31.785H66.3309L60.8969 44.42H59.7189L61.2199 41L57.2679 31.785H58.5029L61.8279 39.822L65.1529 31.785ZM71.7251 41.133C70.8764 41.133 70.1291 40.9367 69.4831 40.544C68.8498 40.1513 68.3558 39.594 68.0011 38.872C67.6464 38.15 67.4691 37.3077 67.4691 36.345C67.4691 35.3823 67.6464 34.54 68.0011 33.818C68.3558 33.096 68.8498 32.5387 69.4831 32.146C70.1291 31.7533 70.8764 31.557 71.7251 31.557C72.5611 31.557 73.3021 31.7533 73.9481 32.146C74.5941 32.5387 75.0881 33.096 75.4301 33.818C75.7848 34.54 75.9621 35.3823 75.9621 36.345C75.9621 37.3077 75.7848 38.15 75.4301 38.872C75.0881 39.594 74.5941 40.1513 73.9481 40.544C73.3021 40.9367 72.5611 41.133 71.7251 41.133ZM71.7061 40.107C72.6814 40.107 73.4351 39.784 73.9671 39.138C74.4991 38.492 74.7651 37.561 74.7651 36.345C74.7651 35.1543 74.4928 34.2297 73.9481 33.571C73.4161 32.8997 72.6751 32.564 71.7251 32.564C70.7624 32.564 70.0151 32.8997 69.4831 33.571C68.9511 34.2297 68.6851 35.1543 68.6851 36.345C68.6851 37.561 68.9448 38.492 69.4641 39.138C69.9834 39.784 70.7308 40.107 71.7061 40.107ZM85.8786 31.785V41H84.7386V39.347C84.4473 39.9297 84.0293 40.373 83.4846 40.677C82.9526 40.981 82.3446 41.133 81.6606 41.133C80.5713 41.133 79.7479 40.8353 79.1906 40.24C78.6459 39.632 78.3736 38.739 78.3736 37.561V31.785H79.5326V37.485C79.5326 38.3843 79.7099 39.0493 80.0646 39.48C80.4319 39.898 81.0019 40.107 81.7746 40.107C82.6613 40.107 83.3706 39.8283 83.9026 39.271C84.4473 38.701 84.7196 37.9473 84.7196 37.01V31.785H85.8786ZM93.7396 32.564L92.9226 32.64C91.9219 32.7413 91.1936 33.0643 90.7376 33.609C90.2942 34.1537 90.0726 34.8187 90.0726 35.604V41H88.9136V31.785H90.0536V33.4C90.3322 32.83 90.7249 32.4057 91.2316 32.127C91.7509 31.8357 92.3906 31.6583 93.1506 31.595L93.6446 31.557L93.7396 32.564ZM104.471 31.557C105.282 31.557 105.997 31.7597 106.618 32.165C107.239 32.5577 107.72 33.1213 108.062 33.856C108.404 34.578 108.575 35.4203 108.575 36.383C108.575 37.333 108.404 38.169 108.062 38.891C107.72 39.6003 107.239 40.1513 106.618 40.544C105.997 40.9367 105.282 41.133 104.471 41.133C103.724 41.133 103.078 40.9747 102.533 40.658C101.988 40.3287 101.577 39.8537 101.298 39.233V44.42H100.139V31.785H101.298V33.457C101.577 32.8363 101.988 32.3677 102.533 32.051C103.078 31.7217 103.724 31.557 104.471 31.557ZM104.3 40.107C105.275 40.107 106.029 39.784 106.561 39.138C107.106 38.4793 107.378 37.561 107.378 36.383C107.378 35.1797 107.106 34.2423 106.561 33.571C106.029 32.8997 105.282 32.564 104.319 32.564C103.356 32.564 102.609 32.8933 102.077 33.552C101.558 34.2107 101.298 35.1417 101.298 36.345C101.298 37.5483 101.558 38.4793 102.077 39.138C102.596 39.784 103.337 40.107 104.3 40.107ZM114.679 31.557C115.793 31.557 116.623 31.8483 117.168 32.431C117.725 33.0137 118.004 33.894 118.004 35.072V41H116.864V39.347C116.598 39.917 116.211 40.3603 115.705 40.677C115.198 40.981 114.615 41.133 113.957 41.133C113.361 41.133 112.817 41.0127 112.323 40.772C111.829 40.5313 111.436 40.1957 111.145 39.765C110.866 39.3343 110.727 38.8593 110.727 38.34C110.727 37.656 110.904 37.124 111.259 36.744C111.613 36.364 112.202 36.0917 113.026 35.927C113.849 35.7623 114.995 35.68 116.465 35.68H116.864V34.977C116.864 34.141 116.693 33.533 116.351 33.153C116.009 32.7603 115.47 32.564 114.736 32.564C114.178 32.564 113.64 32.6463 113.121 32.811C112.614 32.963 112.088 33.2163 111.544 33.571L111.107 32.678C111.575 32.336 112.133 32.0637 112.779 31.861C113.425 31.6583 114.058 31.557 114.679 31.557ZM114.052 40.126C114.875 40.126 115.546 39.8473 116.066 39.29C116.598 38.7327 116.864 38.0233 116.864 37.162V36.535H116.503C115.287 36.535 114.356 36.5857 113.71 36.687C113.064 36.7883 112.608 36.9657 112.342 37.219C112.076 37.4597 111.943 37.8143 111.943 38.283C111.943 38.815 112.145 39.2583 112.551 39.613C112.956 39.955 113.456 40.126 114.052 40.126ZM124.034 41.133C122.577 41.133 121.386 40.7213 120.462 39.898L120.899 39.005C121.393 39.4103 121.887 39.7017 122.381 39.879C122.875 40.0437 123.445 40.126 124.091 40.126C124.838 40.126 125.408 39.993 125.801 39.727C126.206 39.461 126.409 39.0873 126.409 38.606C126.409 38.2007 126.276 37.8777 126.01 37.637C125.744 37.3837 125.319 37.1937 124.737 37.067L123.179 36.706C122.431 36.5287 121.842 36.2247 121.412 35.794C120.994 35.3507 120.785 34.8313 120.785 34.236C120.785 33.438 121.095 32.792 121.716 32.298C122.336 31.804 123.166 31.557 124.205 31.557C124.851 31.557 125.452 31.6647 126.01 31.88C126.58 32.0827 127.048 32.3803 127.416 32.773L126.979 33.666C126.548 33.286 126.105 33.0073 125.649 32.83C125.205 32.6527 124.724 32.564 124.205 32.564C123.508 32.564 122.963 32.7033 122.571 32.982C122.178 33.2607 121.982 33.647 121.982 34.141C121.982 34.5463 122.102 34.8757 122.343 35.129C122.596 35.3823 122.982 35.5723 123.502 35.699L125.079 36.079C126.751 36.459 127.587 37.2823 127.587 38.549C127.587 39.3343 127.264 39.9613 126.618 40.43C125.984 40.8987 125.123 41.133 124.034 41.133ZM133.107 41.133C131.65 41.133 130.46 40.7213 129.535 39.898L129.972 39.005C130.466 39.4103 130.96 39.7017 131.454 39.879C131.948 40.0437 132.518 40.126 133.164 40.126C133.911 40.126 134.481 39.993 134.874 39.727C135.279 39.461 135.482 39.0873 135.482 38.606C135.482 38.2007 135.349 37.8777 135.083 37.637C134.817 37.3837 134.393 37.1937 133.81 37.067L132.252 36.706C131.505 36.5287 130.916 36.2247 130.485 35.794C130.067 35.3507 129.858 34.8313 129.858 34.236C129.858 33.438 130.168 32.792 130.789 32.298C131.41 31.804 132.239 31.557 133.278 31.557C133.924 31.557 134.526 31.6647 135.083 31.88C135.653 32.0827 136.122 32.3803 136.489 32.773L136.052 33.666C135.621 33.286 135.178 33.0073 134.722 32.83C134.279 32.6527 133.797 32.564 133.278 32.564C132.581 32.564 132.037 32.7033 131.644 32.982C131.251 33.2607 131.055 33.647 131.055 34.141C131.055 34.5463 131.175 34.8757 131.416 35.129C131.669 35.3823 132.056 35.5723 132.575 35.699L134.152 36.079C135.824 36.459 136.66 37.2823 136.66 38.549C136.66 39.3343 136.337 39.9613 135.691 40.43C135.058 40.8987 134.196 41.133 133.107 41.133ZM151.552 31.785H152.749L149.386 41H148.189L145.415 33.286L142.622 41H141.425L138.081 31.785H139.316L142.052 39.632L144.883 31.785H146.023L148.797 39.632L151.552 31.785ZM158.45 41.133C157.601 41.133 156.854 40.9367 156.208 40.544C155.574 40.1513 155.08 39.594 154.726 38.872C154.371 38.15 154.194 37.3077 154.194 36.345C154.194 35.3823 154.371 34.54 154.726 33.818C155.08 33.096 155.574 32.5387 156.208 32.146C156.854 31.7533 157.601 31.557 158.45 31.557C159.286 31.557 160.027 31.7533 160.673 32.146C161.319 32.5387 161.813 33.096 162.155 33.818C162.509 34.54 162.687 35.3823 162.687 36.345C162.687 37.3077 162.509 38.15 162.155 38.872C161.813 39.594 161.319 40.1513 160.673 40.544C160.027 40.9367 159.286 41.133 158.45 41.133ZM158.431 40.107C159.406 40.107 160.16 39.784 160.692 39.138C161.224 38.492 161.49 37.561 161.49 36.345C161.49 35.1543 161.217 34.2297 160.673 33.571C160.141 32.8997 159.4 32.564 158.45 32.564C157.487 32.564 156.74 32.8997 156.208 33.571C155.676 34.2297 155.41 35.1543 155.41 36.345C155.41 37.561 155.669 38.492 156.189 39.138C156.708 39.784 157.455 40.107 158.431 40.107ZM169.962 32.564L169.145 32.64C168.145 32.7413 167.416 33.0643 166.96 33.609C166.517 34.1537 166.295 34.8187 166.295 35.604V41H165.136V31.785H166.276V33.4C166.555 32.83 166.948 32.4057 167.454 32.127C167.974 31.8357 168.613 31.6583 169.373 31.595L169.867 31.557L169.962 32.564ZM179.236 27.605V41H178.077V39.233C177.798 39.8537 177.387 40.3287 176.842 40.658C176.297 40.9747 175.651 41.133 174.904 41.133C174.093 41.133 173.378 40.9367 172.757 40.544C172.136 40.1387 171.655 39.575 171.313 38.853C170.971 38.1183 170.8 37.2697 170.8 36.307C170.8 35.357 170.971 34.5273 171.313 33.818C171.655 33.096 172.136 32.5387 172.757 32.146C173.378 31.7533 174.093 31.557 174.904 31.557C175.651 31.557 176.297 31.7217 176.842 32.051C177.387 32.3677 177.798 32.8363 178.077 33.457V27.605H179.236ZM175.056 40.107C176.019 40.107 176.76 39.784 177.279 39.138C177.811 38.4793 178.077 37.5483 178.077 36.345C178.077 35.1417 177.817 34.2107 177.298 33.552C176.779 32.8933 176.038 32.564 175.075 32.564C174.1 32.564 173.346 32.8933 172.814 33.552C172.282 34.198 172.016 35.1163 172.016 36.307C172.016 37.5103 172.282 38.4477 172.814 39.119C173.346 39.7777 174.093 40.107 175.056 40.107ZM184.238 37.39C184.238 36.8073 184.314 36.2817 184.466 35.813C184.63 35.3317 184.827 34.92 185.055 34.578C185.283 34.2233 185.587 33.8053 185.967 33.324C186.423 32.7287 186.758 32.2283 186.974 31.823C187.202 31.405 187.316 30.9363 187.316 30.417C187.316 29.8217 187.107 29.353 186.689 29.011C186.271 28.669 185.707 28.498 184.998 28.498C184.364 28.498 183.731 28.6373 183.098 28.916C182.464 29.182 181.856 29.5747 181.274 30.094L180.78 29.163C181.324 28.6437 181.977 28.232 182.737 27.928C183.497 27.624 184.257 27.472 185.017 27.472C186.068 27.472 186.91 27.738 187.544 28.27C188.19 28.7893 188.513 29.486 188.513 30.36C188.513 31.0313 188.367 31.6203 188.076 32.127C187.797 32.6337 187.373 33.2227 186.803 33.894C186.245 34.5527 185.815 35.1417 185.511 35.661C185.207 36.1803 185.023 36.782 184.96 37.466L184.941 37.713H184.238V37.39ZM183.782 41V39.366H185.397V41H183.782Z" fill="black"/>
</svg>
