<svg width="282" height="13" viewBox="0 0 282 13" fill="none" xmlns="http://www.w3.org/2000/svg">
<path d="M1.11364 1.27273V10H0.0568182V1.27273H1.11364ZM3.9826 1.27273V2.03977C3.9826 2.27273 3.93999 2.52131 3.85476 2.78551C3.77237 3.04688 3.65021 3.30114 3.48828 3.5483C3.32919 3.79261 3.13601 4.00568 2.90874 4.1875L2.36328 3.74432C2.54226 3.48864 2.69709 3.22301 2.82777 2.94744C2.96129 2.66903 3.02805 2.37216 3.02805 2.05682V1.27273H3.9826ZM10.8391 3.45455L8.41868 10H7.39595L4.9755 3.45455H6.06641L7.87322 8.67045H7.94141L9.74822 3.45455H10.8391ZM14.6765 10.1364C14.0458 10.1364 13.5018 9.99716 13.0444 9.71875C12.5898 9.4375 12.239 9.04545 11.9918 8.54261C11.7475 8.03693 11.6254 7.44886 11.6254 6.77841C11.6254 6.10795 11.7475 5.51705 11.9918 5.00568C12.239 4.49148 12.5827 4.09091 13.0231 3.80398C13.4663 3.5142 13.9833 3.36932 14.5742 3.36932C14.9151 3.36932 15.2518 3.42614 15.5842 3.53977C15.9165 3.65341 16.2191 3.83807 16.4918 4.09375C16.7646 4.34659 16.9819 4.68182 17.1438 5.09943C17.3058 5.51705 17.3867 6.03125 17.3867 6.64205V7.06818H12.3413V6.19886H16.364C16.364 5.82955 16.2901 5.5 16.1424 5.21023C15.9975 4.92045 15.7901 4.69176 15.5202 4.52415C15.2532 4.35653 14.9379 4.27273 14.5742 4.27273C14.1737 4.27273 13.8271 4.37216 13.5344 4.57102C13.2447 4.76705 13.0217 5.02273 12.8654 5.33807C12.7092 5.65341 12.631 5.99148 12.631 6.35227V6.93182C12.631 7.42614 12.7163 7.84517 12.8867 8.18892C13.06 8.52983 13.3001 8.78977 13.6069 8.96875C13.9137 9.14489 14.2702 9.23295 14.6765 9.23295C14.9407 9.23295 15.1793 9.19602 15.3924 9.12216C15.6083 9.04545 15.7944 8.93182 15.9506 8.78125C16.1069 8.62784 16.2276 8.4375 16.3129 8.21023L17.2844 8.48295C17.1822 8.8125 17.0103 9.10227 16.7688 9.35227C16.5273 9.59943 16.229 9.79261 15.8739 9.93182C15.5188 10.0682 15.1197 10.1364 14.6765 10.1364ZM22.2915 10V3.45455H23.2631V4.44318H23.3313C23.4506 4.11932 23.6665 3.85653 23.979 3.65483C24.2915 3.45312 24.6438 3.35227 25.0359 3.35227C25.1097 3.35227 25.2021 3.35369 25.3129 3.35653C25.4237 3.35937 25.5075 3.36364 25.5643 3.36932V4.39205C25.5302 4.38352 25.4521 4.37074 25.3299 4.35369C25.2106 4.33381 25.0842 4.32386 24.9506 4.32386C24.6325 4.32386 24.3484 4.39062 24.0984 4.52415C23.8512 4.65483 23.6552 4.83665 23.5103 5.0696C23.3683 5.29972 23.2972 5.5625 23.2972 5.85795V10H22.2915ZM29.3015 10.1364C28.6708 10.1364 28.1268 9.99716 27.6694 9.71875C27.2148 9.4375 26.864 9.04545 26.6168 8.54261C26.3725 8.03693 26.2504 7.44886 26.2504 6.77841C26.2504 6.10795 26.3725 5.51705 26.6168 5.00568C26.864 4.49148 27.2077 4.09091 27.6481 3.80398C28.0913 3.5142 28.6083 3.36932 29.1992 3.36932C29.5401 3.36932 29.8768 3.42614 30.2092 3.53977C30.5415 3.65341 30.8441 3.83807 31.1168 4.09375C31.3896 4.34659 31.6069 4.68182 31.7688 5.09943C31.9308 5.51705 32.0117 6.03125 32.0117 6.64205V7.06818H26.9663V6.19886H30.989C30.989 5.82955 30.9151 5.5 30.7674 5.21023C30.6225 4.92045 30.4151 4.69176 30.1452 4.52415C29.8782 4.35653 29.5629 4.27273 29.1992 4.27273C28.7987 4.27273 28.4521 4.37216 28.1594 4.57102C27.8697 4.76705 27.6467 5.02273 27.4904 5.33807C27.3342 5.65341 27.256 5.99148 27.256 6.35227V6.93182C27.256 7.42614 27.3413 7.84517 27.5117 8.18892C27.685 8.52983 27.9251 8.78977 28.2319 8.96875C28.5387 9.14489 28.8952 9.23295 29.3015 9.23295C29.5657 9.23295 29.8043 9.19602 30.0174 9.12216C30.2333 9.04545 30.4194 8.93182 30.5756 8.78125C30.7319 8.62784 30.8526 8.4375 30.9379 8.21023L31.9094 8.48295C31.8072 8.8125 31.6353 9.10227 31.3938 9.35227C31.1523 9.59943 30.854 9.79261 30.4989 9.93182C30.1438 10.0682 29.7447 10.1364 29.3015 10.1364ZM35.4677 10.1534C35.0529 10.1534 34.6765 10.0753 34.3384 9.91903C34.0004 9.75994 33.7319 9.53125 33.533 9.23295C33.3342 8.93182 33.2347 8.56818 33.2347 8.14205C33.2347 7.76705 33.3086 7.46307 33.4563 7.23011C33.604 6.99432 33.8015 6.80966 34.0487 6.67614C34.2958 6.54261 34.5685 6.44318 34.8668 6.37784C35.168 6.30966 35.4705 6.25568 35.7745 6.21591C36.1722 6.16477 36.4947 6.12642 36.7418 6.10085C36.9918 6.07244 37.1737 6.02557 37.2873 5.96023C37.4038 5.89489 37.462 5.78125 37.462 5.61932V5.58523C37.462 5.16477 37.3469 4.83807 37.1168 4.60511C36.8896 4.37216 36.5444 4.25568 36.0813 4.25568C35.6012 4.25568 35.2248 4.3608 34.9521 4.57102C34.6793 4.78125 34.4876 5.00568 34.3768 5.24432L33.4222 4.90341C33.5927 4.50568 33.82 4.19602 34.104 3.97443C34.391 3.75 34.7035 3.59375 35.0415 3.50568C35.3825 3.41477 35.7177 3.36932 36.0472 3.36932C36.2575 3.36932 36.4989 3.39489 36.7717 3.44602C37.0472 3.49432 37.3129 3.59517 37.5685 3.74858C37.8271 3.90199 38.0415 4.13352 38.212 4.44318C38.3825 4.75284 38.4677 5.16761 38.4677 5.6875V10H37.462V9.11364H37.4109C37.3427 9.25568 37.229 9.40767 37.07 9.5696C36.9109 9.73153 36.6992 9.86932 36.435 9.98295C36.1708 10.0966 35.8484 10.1534 35.4677 10.1534ZM35.6211 9.25C36.0188 9.25 36.354 9.17188 36.6268 9.01562C36.9023 8.85938 37.1097 8.65767 37.2489 8.41051C37.391 8.16335 37.462 7.90341 37.462 7.63068V6.71023C37.4194 6.76136 37.3256 6.80824 37.1808 6.85085C37.0387 6.89062 36.8739 6.92614 36.6864 6.95739C36.5018 6.9858 36.3214 7.01136 36.1452 7.03409C35.9719 7.05398 35.8313 7.07102 35.7234 7.08523C35.462 7.11932 35.2177 7.17472 34.9904 7.25142C34.766 7.32528 34.5842 7.4375 34.445 7.58807C34.3086 7.7358 34.2404 7.9375 34.2404 8.19318C34.2404 8.54261 34.3697 8.80682 34.6282 8.9858C34.8896 9.16193 35.2205 9.25 35.6211 9.25ZM42.7749 10.1364C42.2294 10.1364 41.7479 9.99858 41.3303 9.72301C40.9126 9.4446 40.5859 9.05256 40.3501 8.54688C40.1143 8.03835 39.9964 7.4375 39.9964 6.74432C39.9964 6.05682 40.1143 5.46023 40.3501 4.95455C40.5859 4.44886 40.9141 4.05824 41.3345 3.78267C41.755 3.5071 42.2408 3.36932 42.7919 3.36932C43.218 3.36932 43.5547 3.44034 43.8018 3.58239C44.0518 3.72159 44.2422 3.88068 44.3729 4.05966C44.5064 4.2358 44.6101 4.38068 44.6839 4.49432H44.7692V1.27273H45.7749V10H44.8033V8.99432H44.6839C44.6101 9.11364 44.505 9.2642 44.3686 9.44602C44.2322 9.625 44.0376 9.78551 43.7848 9.92756C43.532 10.0668 43.1953 10.1364 42.7749 10.1364ZM42.9112 9.23295C43.3146 9.23295 43.6555 9.12784 43.9339 8.91761C44.2124 8.70455 44.424 8.41051 44.5689 8.03551C44.7138 7.65767 44.7862 7.22159 44.7862 6.72727C44.7862 6.23864 44.7152 5.81108 44.5732 5.4446C44.4311 5.07528 44.2209 4.78835 43.9425 4.58381C43.6641 4.37642 43.3203 4.27273 42.9112 4.27273C42.4851 4.27273 42.13 4.3821 41.8459 4.60085C41.5646 4.81676 41.353 5.1108 41.2109 5.48295C41.0717 5.85227 41.0021 6.26705 41.0021 6.72727C41.0021 7.19318 41.0732 7.61648 41.2152 7.99716C41.3601 8.375 41.5732 8.67614 41.8544 8.90057C42.1385 9.12216 42.4908 9.23295 42.9112 9.23295ZM53.0575 10.1534C52.6428 10.1534 52.2663 10.0753 51.9283 9.91903C51.5902 9.75994 51.3217 9.53125 51.1229 9.23295C50.924 8.93182 50.8246 8.56818 50.8246 8.14205C50.8246 7.76705 50.8984 7.46307 51.0462 7.23011C51.1939 6.99432 51.3913 6.80966 51.6385 6.67614C51.8857 6.54261 52.1584 6.44318 52.4567 6.37784C52.7578 6.30966 53.0604 6.25568 53.3643 6.21591C53.7621 6.16477 54.0845 6.12642 54.3317 6.10085C54.5817 6.07244 54.7635 6.02557 54.8771 5.96023C54.9936 5.89489 55.0518 5.78125 55.0518 5.61932V5.58523C55.0518 5.16477 54.9368 4.83807 54.7067 4.60511C54.4794 4.37216 54.1342 4.25568 53.6712 4.25568C53.1911 4.25568 52.8146 4.3608 52.5419 4.57102C52.2692 4.78125 52.0774 5.00568 51.9666 5.24432L51.0121 4.90341C51.1825 4.50568 51.4098 4.19602 51.6939 3.97443C51.9808 3.75 52.2933 3.59375 52.6314 3.50568C52.9723 3.41477 53.3075 3.36932 53.6371 3.36932C53.8473 3.36932 54.0888 3.39489 54.3615 3.44602C54.6371 3.49432 54.9027 3.59517 55.1584 3.74858C55.4169 3.90199 55.6314 4.13352 55.8018 4.44318C55.9723 4.75284 56.0575 5.16761 56.0575 5.6875V10H55.0518V9.11364H55.0007C54.9325 9.25568 54.8189 9.40767 54.6598 9.5696C54.5007 9.73153 54.2891 9.86932 54.0249 9.98295C53.7607 10.0966 53.4382 10.1534 53.0575 10.1534ZM53.2109 9.25C53.6087 9.25 53.9439 9.17188 54.2166 9.01562C54.4922 8.85938 54.6996 8.65767 54.8388 8.41051C54.9808 8.16335 55.0518 7.90341 55.0518 7.63068V6.71023C55.0092 6.76136 54.9155 6.80824 54.7706 6.85085C54.6286 6.89062 54.4638 6.92614 54.2763 6.95739C54.0916 6.9858 53.9112 7.01136 53.7351 7.03409C53.5618 7.05398 53.4212 7.07102 53.3132 7.08523C53.0518 7.11932 52.8075 7.17472 52.5803 7.25142C52.3558 7.32528 52.174 7.4375 52.0348 7.58807C51.8984 7.7358 51.8303 7.9375 51.8303 8.19318C51.8303 8.54261 51.9595 8.80682 52.218 8.9858C52.4794 9.16193 52.8104 9.25 53.2109 9.25ZM58.8988 6.0625V10H57.8931V3.45455H58.8647V4.47727H58.9499C59.1033 4.14489 59.3363 3.87784 59.6488 3.67614C59.9613 3.47159 60.3647 3.36932 60.859 3.36932C61.3022 3.36932 61.69 3.46023 62.0224 3.64205C62.3548 3.82102 62.6133 4.09375 62.7979 4.46023C62.9826 4.82386 63.0749 5.28409 63.0749 5.84091V10H62.0692V5.90909C62.0692 5.39489 61.9357 4.99432 61.6687 4.70739C61.4016 4.41761 61.0352 4.27273 60.5692 4.27273C60.2482 4.27273 59.9613 4.34233 59.7085 4.48153C59.4585 4.62074 59.261 4.82386 59.1161 5.09091C58.9712 5.35795 58.8988 5.68182 58.8988 6.0625ZM67.3842 10.1364C66.8388 10.1364 66.3572 9.99858 65.9396 9.72301C65.522 9.4446 65.1953 9.05256 64.9595 8.54688C64.7237 8.03835 64.6058 7.4375 64.6058 6.74432C64.6058 6.05682 64.7237 5.46023 64.9595 4.95455C65.1953 4.44886 65.5234 4.05824 65.9439 3.78267C66.3643 3.5071 66.8501 3.36932 67.4013 3.36932C67.8274 3.36932 68.1641 3.44034 68.4112 3.58239C68.6612 3.72159 68.8516 3.88068 68.9822 4.05966C69.1158 4.2358 69.2195 4.38068 69.2933 4.49432H69.3786V1.27273H70.3842V10H69.4126V8.99432H69.2933C69.2195 9.11364 69.1143 9.2642 68.978 9.44602C68.8416 9.625 68.647 9.78551 68.3942 9.92756C68.1413 10.0668 67.8047 10.1364 67.3842 10.1364ZM67.5206 9.23295C67.924 9.23295 68.2649 9.12784 68.5433 8.91761C68.8217 8.70455 69.0334 8.41051 69.1783 8.03551C69.3232 7.65767 69.3956 7.22159 69.3956 6.72727C69.3956 6.23864 69.3246 5.81108 69.1825 5.4446C69.0405 5.07528 68.8303 4.78835 68.5518 4.58381C68.2734 4.37642 67.9297 4.27273 67.5206 4.27273C67.0945 4.27273 66.7393 4.3821 66.4553 4.60085C66.174 4.81676 65.9624 5.1108 65.8203 5.48295C65.6811 5.85227 65.6115 6.26705 65.6115 6.72727C65.6115 7.19318 65.6825 7.61648 65.8246 7.99716C65.9695 8.375 66.1825 8.67614 66.4638 8.90057C66.7479 9.12216 67.1001 9.23295 67.5206 9.23295ZM77.6669 10.1534C77.2521 10.1534 76.8757 10.0753 76.5376 9.91903C76.1996 9.75994 75.9311 9.53125 75.7322 9.23295C75.5334 8.93182 75.4339 8.56818 75.4339 8.14205C75.4339 7.76705 75.5078 7.46307 75.6555 7.23011C75.8033 6.99432 76.0007 6.80966 76.2479 6.67614C76.495 6.54261 76.7678 6.44318 77.0661 6.37784C77.3672 6.30966 77.6697 6.25568 77.9737 6.21591C78.3714 6.16477 78.6939 6.12642 78.9411 6.10085C79.1911 6.07244 79.3729 6.02557 79.4865 5.96023C79.603 5.89489 79.6612 5.78125 79.6612 5.61932V5.58523C79.6612 5.16477 79.5462 4.83807 79.3161 4.60511C79.0888 4.37216 78.7436 4.25568 78.2805 4.25568C77.8004 4.25568 77.424 4.3608 77.1513 4.57102C76.8786 4.78125 76.6868 5.00568 76.576 5.24432L75.6214 4.90341C75.7919 4.50568 76.0192 4.19602 76.3033 3.97443C76.5902 3.75 76.9027 3.59375 77.2408 3.50568C77.5817 3.41477 77.9169 3.36932 78.2464 3.36932C78.4567 3.36932 78.6982 3.39489 78.9709 3.44602C79.2464 3.49432 79.5121 3.59517 79.7678 3.74858C80.0263 3.90199 80.2408 4.13352 80.4112 4.44318C80.5817 4.75284 80.6669 5.16761 80.6669 5.6875V10H79.6612V9.11364H79.6101C79.5419 9.25568 79.4283 9.40767 79.2692 9.5696C79.1101 9.73153 78.8984 9.86932 78.6342 9.98295C78.37 10.0966 78.0476 10.1534 77.6669 10.1534ZM77.8203 9.25C78.218 9.25 78.5533 9.17188 78.826 9.01562C79.1016 8.85938 79.3089 8.65767 79.4482 8.41051C79.5902 8.16335 79.6612 7.90341 79.6612 7.63068V6.71023C79.6186 6.76136 79.5249 6.80824 79.38 6.85085C79.2379 6.89062 79.0732 6.92614 78.8857 6.95739C78.701 6.9858 78.5206 7.01136 78.3445 7.03409C78.1712 7.05398 78.0305 7.07102 77.9226 7.08523C77.6612 7.11932 77.4169 7.17472 77.1896 7.25142C76.9652 7.32528 76.7834 7.4375 76.6442 7.58807C76.5078 7.7358 76.4396 7.9375 76.4396 8.19318C76.4396 8.54261 76.5689 8.80682 76.8274 8.9858C77.0888 9.16193 77.4197 9.25 77.8203 9.25ZM85.1445 12.5909C84.6587 12.5909 84.2411 12.5284 83.8917 12.4034C83.5423 12.2812 83.2511 12.1193 83.0181 11.9176C82.788 11.7188 82.6048 11.5057 82.4684 11.2784L83.2695 10.7159C83.3604 10.8352 83.4755 10.9716 83.6147 11.125C83.7539 11.2812 83.9442 11.4162 84.1857 11.5298C84.43 11.6463 84.7496 11.7045 85.1445 11.7045C85.6729 11.7045 86.109 11.5767 86.4528 11.321C86.7965 11.0653 86.9684 10.6648 86.9684 10.1193V8.78977H86.8832C86.8093 8.90909 86.7042 9.05682 86.5678 9.23295C86.4343 9.40625 86.2411 9.56108 85.9883 9.69744C85.7383 9.83097 85.4002 9.89773 84.9741 9.89773C84.4457 9.89773 83.9712 9.77273 83.5508 9.52273C83.1332 9.27273 82.8022 8.90909 82.5579 8.43182C82.3164 7.95455 82.1957 7.375 82.1957 6.69318C82.1957 6.02273 82.3136 5.43892 82.5494 4.94176C82.7852 4.44176 83.1133 4.0554 83.5337 3.78267C83.9542 3.5071 84.44 3.36932 84.9911 3.36932C85.4173 3.36932 85.7553 3.44034 86.0053 3.58239C86.2582 3.72159 86.4513 3.88068 86.5849 4.05966C86.7212 4.2358 86.8263 4.38068 86.9002 4.49432H87.0025V3.45455H87.9741V10.1875C87.9741 10.75 87.8462 11.2074 87.5906 11.5597C87.3377 11.9148 86.9968 12.1747 86.5678 12.3395C86.1417 12.5071 85.6673 12.5909 85.1445 12.5909ZM85.1104 8.99432C85.5138 8.99432 85.8548 8.90199 86.1332 8.71733C86.4116 8.53267 86.6232 8.26705 86.7681 7.92045C86.913 7.57386 86.9854 7.15909 86.9854 6.67614C86.9854 6.20455 86.9144 5.78835 86.7724 5.42756C86.6303 5.06676 86.4201 4.78409 86.1417 4.57955C85.8633 4.375 85.5195 4.27273 85.1104 4.27273C84.6843 4.27273 84.3292 4.38068 84.0451 4.59659C83.7638 4.8125 83.5522 5.10227 83.4102 5.46591C83.271 5.82955 83.2013 6.23295 83.2013 6.67614C83.2013 7.13068 83.2724 7.53267 83.4144 7.8821C83.5593 8.22869 83.7724 8.50142 84.0536 8.70028C84.3377 8.89631 84.69 8.99432 85.1104 8.99432ZM89.815 10V3.45455H90.7866V4.44318H90.8548C90.9741 4.11932 91.19 3.85653 91.5025 3.65483C91.815 3.45312 92.1673 3.35227 92.5593 3.35227C92.6332 3.35227 92.7255 3.35369 92.8363 3.35653C92.9471 3.35937 93.0309 3.36364 93.0877 3.36932V4.39205C93.0536 4.38352 92.9755 4.37074 92.8533 4.35369C92.734 4.33381 92.6076 4.32386 92.4741 4.32386C92.1559 4.32386 91.8718 4.39062 91.6218 4.52415C91.3746 4.65483 91.1786 4.83665 91.0337 5.0696C90.8917 5.29972 90.8207 5.5625 90.8207 5.85795V10H89.815ZM96.8249 10.1364C96.1942 10.1364 95.6502 9.99716 95.1928 9.71875C94.7383 9.4375 94.3874 9.04545 94.1403 8.54261C93.896 8.03693 93.7738 7.44886 93.7738 6.77841C93.7738 6.10795 93.896 5.51705 94.1403 5.00568C94.3874 4.49148 94.7312 4.09091 95.1715 3.80398C95.6147 3.5142 96.1317 3.36932 96.7227 3.36932C97.0636 3.36932 97.4002 3.42614 97.7326 3.53977C98.065 3.65341 98.3675 3.83807 98.6403 4.09375C98.913 4.34659 99.1303 4.68182 99.2923 5.09943C99.4542 5.51705 99.5352 6.03125 99.5352 6.64205V7.06818H94.4897V6.19886H98.5124C98.5124 5.82955 98.4386 5.5 98.2908 5.21023C98.146 4.92045 97.9386 4.69176 97.6687 4.52415C97.4016 4.35653 97.0863 4.27273 96.7227 4.27273C96.3221 4.27273 95.9755 4.37216 95.6829 4.57102C95.3931 4.76705 95.1701 5.02273 95.0138 5.33807C94.8576 5.65341 94.7795 5.99148 94.7795 6.35227V6.93182C94.7795 7.42614 94.8647 7.84517 95.0352 8.18892C95.2085 8.52983 95.4485 8.78977 95.7553 8.96875C96.0621 9.14489 96.4187 9.23295 96.8249 9.23295C97.0891 9.23295 97.3278 9.19602 97.5408 9.12216C97.7567 9.04545 97.9428 8.93182 98.0991 8.78125C98.2553 8.62784 98.3761 8.4375 98.4613 8.21023L99.4329 8.48295C99.3306 8.8125 99.1587 9.10227 98.9173 9.35227C98.6758 9.59943 98.3775 9.79261 98.0224 9.93182C97.6673 10.0682 97.2681 10.1364 96.8249 10.1364ZM103.809 10.1364C103.179 10.1364 102.635 9.99716 102.177 9.71875C101.723 9.4375 101.372 9.04545 101.125 8.54261C100.88 8.03693 100.758 7.44886 100.758 6.77841C100.758 6.10795 100.88 5.51705 101.125 5.00568C101.372 4.49148 101.716 4.09091 102.156 3.80398C102.599 3.5142 103.116 3.36932 103.707 3.36932C104.048 3.36932 104.385 3.42614 104.717 3.53977C105.049 3.65341 105.352 3.83807 105.625 4.09375C105.897 4.34659 106.115 4.68182 106.277 5.09943C106.439 5.51705 106.52 6.03125 106.52 6.64205V7.06818H101.474V6.19886H105.497C105.497 5.82955 105.423 5.5 105.275 5.21023C105.13 4.92045 104.923 4.69176 104.653 4.52415C104.386 4.35653 104.071 4.27273 103.707 4.27273C103.306 4.27273 102.96 4.37216 102.667 4.57102C102.377 4.76705 102.154 5.02273 101.998 5.33807C101.842 5.65341 101.764 5.99148 101.764 6.35227V6.93182C101.764 7.42614 101.849 7.84517 102.02 8.18892C102.193 8.52983 102.433 8.78977 102.74 8.96875C103.047 9.14489 103.403 9.23295 103.809 9.23295C104.074 9.23295 104.312 9.19602 104.525 9.12216C104.741 9.04545 104.927 8.93182 105.083 8.78125C105.24 8.62784 105.36 8.4375 105.446 8.21023L106.417 8.48295C106.315 8.8125 106.143 9.10227 105.902 9.35227C105.66 9.59943 105.362 9.79261 105.007 9.93182C104.652 10.0682 104.252 10.1364 103.809 10.1364ZM114.271 3.45455V4.30682H110.879V3.45455H114.271ZM111.868 1.88636H112.873V8.125C112.873 8.40909 112.914 8.62216 112.997 8.7642C113.082 8.90341 113.19 8.99716 113.321 9.04545C113.454 9.09091 113.595 9.11364 113.743 9.11364C113.853 9.11364 113.944 9.10795 114.015 9.09659C114.086 9.08239 114.143 9.07102 114.186 9.0625L114.39 9.96591C114.322 9.99148 114.227 10.017 114.105 10.0426C113.983 10.071 113.828 10.0852 113.64 10.0852C113.356 10.0852 113.078 10.0241 112.805 9.90199C112.535 9.77983 112.311 9.59375 112.132 9.34375C111.956 9.09375 111.868 8.77841 111.868 8.39773V1.88636ZM118.373 10.1364C117.782 10.1364 117.263 9.99574 116.817 9.71449C116.374 9.43324 116.027 9.03977 115.777 8.53409C115.53 8.02841 115.407 7.4375 115.407 6.76136C115.407 6.07955 115.53 5.48437 115.777 4.97585C116.027 4.46733 116.374 4.07244 116.817 3.79119C117.263 3.50994 117.782 3.36932 118.373 3.36932C118.963 3.36932 119.48 3.50994 119.924 3.79119C120.37 4.07244 120.716 4.46733 120.963 4.97585C121.213 5.48437 121.338 6.07955 121.338 6.76136C121.338 7.4375 121.213 8.02841 120.963 8.53409C120.716 9.03977 120.37 9.43324 119.924 9.71449C119.48 9.99574 118.963 10.1364 118.373 10.1364ZM118.373 9.23295C118.821 9.23295 119.191 9.1179 119.48 8.88778C119.77 8.65767 119.985 8.35511 120.124 7.98011C120.263 7.60511 120.333 7.19886 120.333 6.76136C120.333 6.32386 120.263 5.91619 120.124 5.53835C119.985 5.16051 119.77 4.85511 119.48 4.62216C119.191 4.3892 118.821 4.27273 118.373 4.27273C117.924 4.27273 117.554 4.3892 117.265 4.62216C116.975 4.85511 116.76 5.16051 116.621 5.53835C116.482 5.91619 116.412 6.32386 116.412 6.76136C116.412 7.19886 116.482 7.60511 116.621 7.98011C116.76 8.35511 116.975 8.65767 117.265 8.88778C117.554 9.1179 117.924 9.23295 118.373 9.23295ZM129.095 3.45455V4.30682H125.703V3.45455H129.095ZM126.692 1.88636H127.697V8.125C127.697 8.40909 127.739 8.62216 127.821 8.7642C127.906 8.90341 128.014 8.99716 128.145 9.04545C128.278 9.09091 128.419 9.11364 128.567 9.11364C128.678 9.11364 128.768 9.10795 128.839 9.09659C128.911 9.08239 128.967 9.07102 129.01 9.0625L129.214 9.96591C129.146 9.99148 129.051 10.017 128.929 10.0426C128.807 10.071 128.652 10.0852 128.464 10.0852C128.18 10.0852 127.902 10.0241 127.629 9.90199C127.359 9.77983 127.135 9.59375 126.956 9.34375C126.78 9.09375 126.692 8.77841 126.692 8.39773V1.88636ZM131.754 6.0625V10H130.749V1.27273H131.754V4.47727H131.839C131.993 4.1392 132.223 3.87074 132.53 3.67188C132.839 3.47017 133.251 3.36932 133.766 3.36932C134.212 3.36932 134.602 3.45881 134.938 3.63778C135.273 3.81392 135.533 4.08523 135.717 4.4517C135.905 4.81534 135.999 5.27841 135.999 5.84091V10H134.993V5.90909C134.993 5.3892 134.858 4.98722 134.588 4.70312C134.321 4.41619 133.95 4.27273 133.476 4.27273C133.146 4.27273 132.851 4.34233 132.589 4.48153C132.331 4.62074 132.126 4.82386 131.976 5.09091C131.828 5.35795 131.754 5.68182 131.754 6.0625ZM140.583 10.1364C139.952 10.1364 139.408 9.99716 138.951 9.71875C138.496 9.4375 138.145 9.04545 137.898 8.54261C137.654 8.03693 137.532 7.44886 137.532 6.77841C137.532 6.10795 137.654 5.51705 137.898 5.00568C138.145 4.49148 138.489 4.09091 138.929 3.80398C139.373 3.5142 139.89 3.36932 140.48 3.36932C140.821 3.36932 141.158 3.42614 141.49 3.53977C141.823 3.65341 142.125 3.83807 142.398 4.09375C142.671 4.34659 142.888 4.68182 143.05 5.09943C143.212 5.51705 143.293 6.03125 143.293 6.64205V7.06818H138.248V6.19886H142.27C142.27 5.82955 142.196 5.5 142.049 5.21023C141.904 4.92045 141.696 4.69176 141.426 4.52415C141.159 4.35653 140.844 4.27273 140.48 4.27273C140.08 4.27273 139.733 4.37216 139.441 4.57102C139.151 4.76705 138.928 5.02273 138.772 5.33807C138.615 5.65341 138.537 5.99148 138.537 6.35227V6.93182C138.537 7.42614 138.623 7.84517 138.793 8.18892C138.966 8.52983 139.206 8.78977 139.513 8.96875C139.82 9.14489 140.176 9.23295 140.583 9.23295C140.847 9.23295 141.086 9.19602 141.299 9.12216C141.515 9.04545 141.701 8.93182 141.857 8.78125C142.013 8.62784 142.134 8.4375 142.219 8.21023L143.191 8.48295C143.088 8.8125 142.917 9.10227 142.675 9.35227C142.434 9.59943 142.135 9.79261 141.78 9.93182C141.425 10.0682 141.026 10.1364 140.583 10.1364ZM188.591 10.1364C188 10.1364 187.482 9.99574 187.036 9.71449C186.593 9.43324 186.246 9.03977 185.996 8.53409C185.749 8.02841 185.625 7.4375 185.625 6.76136C185.625 6.07955 185.749 5.48437 185.996 4.97585C186.246 4.46733 186.593 4.07244 187.036 3.79119C187.482 3.50994 188 3.36932 188.591 3.36932C189.182 3.36932 189.699 3.50994 190.142 3.79119C190.588 4.07244 190.935 4.46733 191.182 4.97585C191.432 5.48437 191.557 6.07955 191.557 6.76136C191.557 7.4375 191.432 8.02841 191.182 8.53409C190.935 9.03977 190.588 9.43324 190.142 9.71449C189.699 9.99574 189.182 10.1364 188.591 10.1364ZM188.591 9.23295C189.04 9.23295 189.409 9.1179 189.699 8.88778C189.989 8.65767 190.203 8.35511 190.343 7.98011C190.482 7.60511 190.551 7.19886 190.551 6.76136C190.551 6.32386 190.482 5.91619 190.343 5.53835C190.203 5.16051 189.989 4.85511 189.699 4.62216C189.409 4.3892 189.04 4.27273 188.591 4.27273C188.142 4.27273 187.773 4.3892 187.483 4.62216C187.194 4.85511 186.979 5.16051 186.84 5.53835C186.701 5.91619 186.631 6.32386 186.631 6.76136C186.631 7.19886 186.701 7.60511 186.84 7.98011C186.979 8.35511 187.194 8.65767 187.483 8.88778C187.773 9.1179 188.142 9.23295 188.591 9.23295ZM196.007 3.45455V4.30682H192.479V3.45455H196.007ZM193.536 10V2.55114C193.536 2.17614 193.624 1.86364 193.8 1.61364C193.976 1.36364 194.205 1.17614 194.486 1.05114C194.767 0.926136 195.064 0.863636 195.376 0.863636C195.624 0.863636 195.825 0.883522 195.982 0.923295C196.138 0.963068 196.254 1 196.331 1.03409L196.041 1.90341C195.99 1.88636 195.919 1.86506 195.828 1.83949C195.74 1.81392 195.624 1.80114 195.479 1.80114C195.146 1.80114 194.906 1.88494 194.759 2.05256C194.614 2.22017 194.541 2.46591 194.541 2.78977V10H193.536Z" fill="#7F8192"/>
<path d="M151.483 3.45455V4.81818H147.542V3.45455H151.483ZM148.436 1.88636H150.252V7.98864C150.252 8.15625 150.277 8.28693 150.328 8.38068C150.38 8.47159 150.451 8.53551 150.542 8.57244C150.635 8.60937 150.743 8.62784 150.865 8.62784C150.951 8.62784 151.036 8.62074 151.121 8.60653C151.206 8.58949 151.272 8.5767 151.317 8.56818L151.603 9.91903C151.512 9.94744 151.384 9.98011 151.219 10.017C151.054 10.0568 150.854 10.081 150.618 10.0895C150.181 10.1065 149.797 10.0483 149.468 9.91477C149.141 9.78125 148.887 9.57386 148.705 9.29261C148.523 9.01136 148.434 8.65625 148.436 8.22727V1.88636ZM155.578 10.1278C154.905 10.1278 154.326 9.99148 153.84 9.71875C153.357 9.44318 152.985 9.05398 152.723 8.55114C152.462 8.04545 152.331 7.44744 152.331 6.7571C152.331 6.08381 152.462 5.4929 152.723 4.98438C152.985 4.47585 153.353 4.07955 153.827 3.79545C154.304 3.51136 154.864 3.36932 155.506 3.36932C155.938 3.36932 156.34 3.43892 156.712 3.57812C157.087 3.71449 157.414 3.92045 157.692 4.19602C157.973 4.47159 158.192 4.81818 158.348 5.2358C158.505 5.65057 158.583 6.13636 158.583 6.69318V7.19176H153.056V6.06676H156.874C156.874 5.8054 156.817 5.57386 156.703 5.37216C156.59 5.17045 156.432 5.01278 156.23 4.89915C156.032 4.78267 155.8 4.72443 155.536 4.72443C155.26 4.72443 155.016 4.78835 154.803 4.91619C154.593 5.04119 154.428 5.21023 154.309 5.4233C154.189 5.63352 154.128 5.8679 154.125 6.12642V7.19602C154.125 7.51989 154.185 7.79972 154.304 8.03551C154.426 8.27131 154.598 8.45312 154.82 8.58097C155.042 8.70881 155.304 8.77273 155.608 8.77273C155.81 8.77273 155.995 8.74432 156.162 8.6875C156.33 8.63068 156.473 8.54545 156.593 8.43182C156.712 8.31818 156.803 8.17898 156.865 8.0142L158.544 8.125C158.459 8.52841 158.284 8.88068 158.02 9.18182C157.759 9.48011 157.421 9.71307 157.006 9.88068C156.594 10.0455 156.118 10.1278 155.578 10.1278ZM159.767 10V3.45455H161.527V4.59659H161.596C161.715 4.19034 161.915 3.88352 162.196 3.67614C162.478 3.46591 162.801 3.3608 163.168 3.3608C163.259 3.3608 163.357 3.36648 163.462 3.37784C163.567 3.3892 163.659 3.40483 163.739 3.42472V5.03551C163.654 5.00994 163.536 4.98722 163.385 4.96733C163.235 4.94744 163.097 4.9375 162.972 4.9375C162.705 4.9375 162.466 4.99574 162.256 5.11222C162.049 5.22585 161.884 5.38494 161.762 5.58949C161.642 5.79403 161.583 6.02983 161.583 6.29688V10H159.767ZM164.678 10V3.45455H166.408V4.60938H166.484C166.621 4.22585 166.848 3.9233 167.166 3.7017C167.484 3.48011 167.865 3.36932 168.308 3.36932C168.757 3.36932 169.139 3.48153 169.455 3.70597C169.77 3.92756 169.98 4.22869 170.085 4.60938H170.153C170.287 4.23438 170.528 3.93466 170.878 3.71023C171.23 3.48295 171.646 3.36932 172.126 3.36932C172.737 3.36932 173.233 3.56392 173.614 3.95312C173.997 4.33949 174.189 4.88778 174.189 5.59801V10H172.378V5.95597C172.378 5.59233 172.281 5.3196 172.088 5.13778C171.895 4.95597 171.653 4.86506 171.364 4.86506C171.034 4.86506 170.777 4.97017 170.592 5.1804C170.408 5.38778 170.315 5.66193 170.315 6.00284V10H168.555V5.91761C168.555 5.59659 168.463 5.34091 168.278 5.15057C168.097 4.96023 167.857 4.86506 167.558 4.86506C167.357 4.86506 167.175 4.91619 167.013 5.01847C166.854 5.1179 166.727 5.25852 166.634 5.44034C166.54 5.61932 166.493 5.82955 166.493 6.07102V10H164.678ZM181.069 5.32102L179.407 5.4233C179.379 5.28125 179.317 5.15341 179.224 5.03977C179.13 4.9233 179.006 4.83097 178.853 4.76278C178.702 4.69176 178.522 4.65625 178.312 4.65625C178.031 4.65625 177.793 4.71591 177.6 4.83523C177.407 4.9517 177.31 5.10795 177.31 5.30398C177.31 5.46023 177.373 5.59233 177.498 5.70028C177.623 5.80824 177.837 5.89489 178.141 5.96023L179.326 6.19886C179.962 6.32955 180.437 6.53977 180.749 6.82955C181.062 7.11932 181.218 7.5 181.218 7.97159C181.218 8.40057 181.092 8.77699 180.839 9.10085C180.589 9.42472 180.245 9.67756 179.808 9.85938C179.373 10.0384 178.871 10.1278 178.303 10.1278C177.437 10.1278 176.746 9.94744 176.232 9.58665C175.721 9.22301 175.421 8.72869 175.333 8.10369L177.119 8.00994C177.173 8.27415 177.303 8.47585 177.511 8.61506C177.718 8.75142 177.984 8.8196 178.308 8.8196C178.626 8.8196 178.881 8.75852 179.075 8.63636C179.271 8.51136 179.37 8.35085 179.373 8.15483C179.37 7.99006 179.3 7.85511 179.164 7.75C179.028 7.64205 178.817 7.55966 178.533 7.50284L177.4 7.27699C176.761 7.14915 176.285 6.92756 175.972 6.61222C175.663 6.29687 175.508 5.89489 175.508 5.40625C175.508 4.9858 175.621 4.62358 175.849 4.3196C176.079 4.01562 176.401 3.78125 176.816 3.61648C177.234 3.4517 177.722 3.36932 178.282 3.36932C179.109 3.36932 179.759 3.54403 180.234 3.89347C180.711 4.2429 180.989 4.71875 181.069 5.32102ZM200.596 12.4545V3.45455H202.385V4.55398H202.466C202.546 4.37784 202.661 4.19886 202.811 4.01705C202.965 3.83239 203.164 3.67898 203.408 3.55682C203.655 3.43182 203.962 3.36932 204.328 3.36932C204.806 3.36932 205.246 3.49432 205.65 3.74432C206.053 3.99148 206.375 4.36506 206.617 4.86506C206.858 5.36222 206.979 5.9858 206.979 6.7358C206.979 7.46591 206.861 8.08239 206.625 8.58523C206.392 9.08523 206.074 9.46449 205.671 9.72301C205.27 9.97869 204.821 10.1065 204.324 10.1065C203.972 10.1065 203.672 10.0483 203.425 9.93182C203.181 9.81534 202.98 9.66903 202.824 9.4929C202.668 9.31392 202.549 9.13352 202.466 8.9517H202.411V12.4545H200.596ZM202.373 6.72727C202.373 7.11648 202.426 7.45597 202.534 7.74574C202.642 8.03551 202.799 8.26136 203.003 8.4233C203.208 8.58239 203.456 8.66193 203.749 8.66193C204.044 8.66193 204.294 8.58097 204.499 8.41903C204.703 8.25426 204.858 8.02699 204.963 7.73722C205.071 7.4446 205.125 7.10795 205.125 6.72727C205.125 6.34943 205.073 6.01705 204.968 5.73011C204.863 5.44318 204.708 5.21875 204.503 5.05682C204.299 4.89489 204.047 4.81392 203.749 4.81392C203.453 4.81392 203.203 4.89205 202.999 5.0483C202.797 5.20455 202.642 5.42614 202.534 5.71307C202.426 6 202.373 6.33807 202.373 6.72727ZM208.189 10V3.45455H209.949V4.59659H210.017C210.137 4.19034 210.337 3.88352 210.618 3.67614C210.9 3.46591 211.223 3.3608 211.59 3.3608C211.681 3.3608 211.779 3.36648 211.884 3.37784C211.989 3.3892 212.081 3.40483 212.161 3.42472V5.03551C212.076 5.00994 211.958 4.98722 211.807 4.96733C211.657 4.94744 211.519 4.9375 211.394 4.9375C211.127 4.9375 210.888 4.99574 210.678 5.11222C210.471 5.22585 210.306 5.38494 210.184 5.58949C210.064 5.79403 210.005 6.02983 210.005 6.29688V10H208.189ZM213.099 10V3.45455H214.915V10H213.099ZM214.011 2.6108C213.741 2.6108 213.51 2.52131 213.317 2.34233C213.126 2.16051 213.031 1.94318 213.031 1.69034C213.031 1.44034 213.126 1.22585 213.317 1.04688C213.51 0.865057 213.741 0.774147 214.011 0.774147C214.281 0.774147 214.511 0.865057 214.702 1.04688C214.895 1.22585 214.991 1.44034 214.991 1.69034C214.991 1.94318 214.895 2.16051 214.702 2.34233C214.511 2.52131 214.281 2.6108 214.011 2.6108ZM222.471 3.45455L220.183 10H218.137L215.849 3.45455H217.767L219.126 8.13778H219.194L220.549 3.45455H222.471ZM225.091 10.1236C224.673 10.1236 224.301 10.0511 223.974 9.90625C223.648 9.75852 223.389 9.54119 223.199 9.25426C223.011 8.96449 222.918 8.60369 222.918 8.17188C222.918 7.80824 222.984 7.50284 223.118 7.25568C223.251 7.00852 223.433 6.80966 223.663 6.65909C223.893 6.50852 224.155 6.39489 224.447 6.31818C224.743 6.24148 225.053 6.1875 225.376 6.15625C225.757 6.11648 226.064 6.07955 226.297 6.04545C226.53 6.00852 226.699 5.95455 226.804 5.88352C226.909 5.8125 226.962 5.70739 226.962 5.56818V5.54261C226.962 5.27273 226.876 5.06392 226.706 4.91619C226.538 4.76847 226.3 4.6946 225.99 4.6946C225.663 4.6946 225.403 4.76705 225.21 4.91193C225.017 5.05398 224.889 5.23295 224.827 5.44886L223.148 5.3125C223.233 4.91477 223.401 4.57102 223.651 4.28125C223.901 3.98864 224.223 3.7642 224.618 3.60795C225.016 3.44886 225.476 3.36932 225.999 3.36932C226.362 3.36932 226.71 3.41193 227.043 3.49716C227.378 3.58239 227.675 3.71449 227.933 3.89347C228.195 4.07244 228.401 4.30256 228.551 4.58381C228.702 4.86222 228.777 5.19602 228.777 5.58523V10H227.055V9.09233H227.004C226.899 9.29688 226.759 9.47727 226.582 9.63352C226.406 9.78693 226.195 9.90767 225.947 9.99574C225.7 10.081 225.415 10.1236 225.091 10.1236ZM225.611 8.87074C225.878 8.87074 226.114 8.81818 226.318 8.71307C226.523 8.60511 226.683 8.46023 226.8 8.27841C226.916 8.09659 226.974 7.89062 226.974 7.66051V6.96591C226.918 7.00284 226.839 7.03693 226.74 7.06818C226.643 7.09659 226.534 7.12358 226.412 7.14915C226.29 7.17187 226.168 7.19318 226.045 7.21307C225.923 7.23011 225.812 7.24574 225.713 7.25994C225.5 7.29119 225.314 7.34091 225.155 7.40909C224.996 7.47727 224.872 7.5696 224.784 7.68608C224.696 7.79972 224.652 7.94176 224.652 8.11222C224.652 8.35938 224.741 8.5483 224.92 8.67898C225.102 8.80682 225.332 8.87074 225.611 8.87074ZM233.143 10.1278C232.472 10.1278 231.896 9.9858 231.413 9.7017C230.933 9.41477 230.563 9.01705 230.305 8.50852C230.049 8 229.921 7.41477 229.921 6.75284C229.921 6.08239 230.05 5.49432 230.309 4.98864C230.57 4.48011 230.941 4.08381 231.421 3.79972C231.901 3.51278 232.472 3.36932 233.134 3.36932C233.705 3.36932 234.205 3.47301 234.634 3.6804C235.063 3.88778 235.403 4.17898 235.653 4.55398C235.903 4.92898 236.04 5.36932 236.066 5.875H234.353C234.305 5.5483 234.177 5.28551 233.969 5.08665C233.765 4.88494 233.496 4.78409 233.164 4.78409C232.883 4.78409 232.637 4.8608 232.427 5.0142C232.219 5.16477 232.058 5.38494 231.941 5.67472C231.825 5.96449 231.766 6.31534 231.766 6.72727C231.766 7.14489 231.823 7.5 231.937 7.79261C232.053 8.08523 232.217 8.30824 232.427 8.46165C232.637 8.61506 232.883 8.69176 233.164 8.69176C233.371 8.69176 233.558 8.64915 233.722 8.56392C233.89 8.47869 234.028 8.35511 234.136 8.19318C234.246 8.02841 234.319 7.83097 234.353 7.60085H236.066C236.038 8.10085 235.901 8.54119 235.657 8.92188C235.415 9.29972 235.082 9.59517 234.656 9.80824C234.229 10.0213 233.725 10.1278 233.143 10.1278ZM238.349 12.4545C238.119 12.4545 237.903 12.4361 237.701 12.3991C237.502 12.3651 237.338 12.321 237.207 12.267L237.616 10.9119C237.829 10.9773 238.021 11.0128 238.191 11.0185C238.365 11.0241 238.514 10.9844 238.639 10.8991C238.767 10.8139 238.87 10.669 238.95 10.4645L239.056 10.1875L236.708 3.45455H238.618L239.973 8.26136H240.041L241.409 3.45455H243.331L240.787 10.7074C240.664 11.0597 240.498 11.3665 240.288 11.6278C240.081 11.892 239.818 12.0952 239.5 12.2372C239.181 12.3821 238.798 12.4545 238.349 12.4545ZM247.037 12.4545V3.45455H248.827V4.55398H248.908C248.987 4.37784 249.102 4.19886 249.253 4.01705C249.406 3.83239 249.605 3.67898 249.849 3.55682C250.097 3.43182 250.403 3.36932 250.77 3.36932C251.247 3.36932 251.688 3.49432 252.091 3.74432C252.494 3.99148 252.817 4.36506 253.058 4.86506C253.3 5.36222 253.42 5.9858 253.42 6.7358C253.42 7.46591 253.303 8.08239 253.067 8.58523C252.834 9.08523 252.516 9.46449 252.112 9.72301C251.712 9.97869 251.263 10.1065 250.766 10.1065C250.413 10.1065 250.114 10.0483 249.866 9.93182C249.622 9.81534 249.422 9.66903 249.266 9.4929C249.109 9.31392 248.99 9.13352 248.908 8.9517H248.852V12.4545H247.037ZM248.814 6.72727C248.814 7.11648 248.868 7.45597 248.976 7.74574C249.084 8.03551 249.24 8.26136 249.445 8.4233C249.649 8.58239 249.898 8.66193 250.19 8.66193C250.486 8.66193 250.736 8.58097 250.94 8.41903C251.145 8.25426 251.3 8.02699 251.405 7.73722C251.513 7.4446 251.567 7.10795 251.567 6.72727C251.567 6.34943 251.514 6.01705 251.409 5.73011C251.304 5.44318 251.149 5.21875 250.945 5.05682C250.74 4.89489 250.489 4.81392 250.19 4.81392C249.895 4.81392 249.645 4.89205 249.44 5.0483C249.239 5.20455 249.084 5.42614 248.976 5.71307C248.868 6 248.814 6.33807 248.814 6.72727ZM257.588 10.1278C256.926 10.1278 256.354 9.98722 255.871 9.70597C255.391 9.42187 255.02 9.02699 254.759 8.52131C254.497 8.01278 254.366 7.4233 254.366 6.75284C254.366 6.0767 254.497 5.4858 254.759 4.98011C255.02 4.47159 255.391 4.0767 255.871 3.79545C256.354 3.51136 256.926 3.36932 257.588 3.36932C258.25 3.36932 258.821 3.51136 259.301 3.79545C259.784 4.0767 260.156 4.47159 260.418 4.98011C260.679 5.4858 260.81 6.0767 260.81 6.75284C260.81 7.4233 260.679 8.01278 260.418 8.52131C260.156 9.02699 259.784 9.42187 259.301 9.70597C258.821 9.98722 258.25 10.1278 257.588 10.1278ZM257.597 8.72159C257.898 8.72159 258.149 8.63636 258.351 8.46591C258.553 8.29261 258.705 8.05682 258.807 7.75852C258.912 7.46023 258.964 7.12074 258.964 6.74006C258.964 6.35938 258.912 6.01989 258.807 5.72159C258.705 5.4233 258.553 5.1875 258.351 5.0142C258.149 4.84091 257.898 4.75426 257.597 4.75426C257.293 4.75426 257.037 4.84091 256.83 5.0142C256.625 5.1875 256.47 5.4233 256.365 5.72159C256.263 6.01989 256.212 6.35938 256.212 6.74006C256.212 7.12074 256.263 7.46023 256.365 7.75852C256.47 8.05682 256.625 8.29261 256.83 8.46591C257.037 8.63636 257.293 8.72159 257.597 8.72159ZM263.805 1.27273V10H261.99V1.27273H263.805ZM265.26 10V3.45455H267.075V10H265.26ZM266.172 2.6108C265.902 2.6108 265.67 2.52131 265.477 2.34233C265.287 2.16051 265.191 1.94318 265.191 1.69034C265.191 1.44034 265.287 1.22585 265.477 1.04688C265.67 0.865057 265.902 0.774147 266.172 0.774147C266.441 0.774147 266.672 0.865057 266.862 1.04688C267.055 1.22585 267.152 1.44034 267.152 1.69034C267.152 1.94318 267.055 2.16051 266.862 2.34233C266.672 2.52131 266.441 2.6108 266.172 2.6108ZM271.487 10.1278C270.816 10.1278 270.239 9.9858 269.756 9.7017C269.276 9.41477 268.907 9.01705 268.648 8.50852C268.393 8 268.265 7.41477 268.265 6.75284C268.265 6.08239 268.394 5.49432 268.653 4.98864C268.914 4.48011 269.285 4.08381 269.765 3.79972C270.245 3.51278 270.816 3.36932 271.478 3.36932C272.049 3.36932 272.549 3.47301 272.978 3.6804C273.407 3.88778 273.746 4.17898 273.996 4.55398C274.246 4.92898 274.384 5.36932 274.41 5.875H272.697C272.648 5.5483 272.521 5.28551 272.313 5.08665C272.109 4.88494 271.84 4.78409 271.508 4.78409C271.227 4.78409 270.981 4.8608 270.771 5.0142C270.563 5.16477 270.401 5.38494 270.285 5.67472C270.168 5.96449 270.11 6.31534 270.11 6.72727C270.11 7.14489 270.167 7.5 270.281 7.79261C270.397 8.08523 270.56 8.30824 270.771 8.46165C270.981 8.61506 271.227 8.69176 271.508 8.69176C271.715 8.69176 271.901 8.64915 272.066 8.56392C272.234 8.47869 272.371 8.35511 272.479 8.19318C272.59 8.02841 272.663 7.83097 272.697 7.60085H274.41C274.381 8.10085 274.245 8.54119 274.001 8.92188C273.759 9.29972 273.425 9.59517 272.999 9.80824C272.573 10.0213 272.069 10.1278 271.487 10.1278ZM276.693 12.4545C276.463 12.4545 276.247 12.4361 276.045 12.3991C275.846 12.3651 275.681 12.321 275.551 12.267L275.96 10.9119C276.173 10.9773 276.365 11.0128 276.535 11.0185C276.708 11.0241 276.858 10.9844 276.983 10.8991C277.11 10.8139 277.214 10.669 277.294 10.4645L277.4 10.1875L275.052 3.45455H276.961L278.316 8.26136H278.385L279.752 3.45455H281.674L279.13 10.7074C279.008 11.0597 278.842 11.3665 278.632 11.6278C278.424 11.892 278.162 12.0952 277.843 12.2372C277.525 12.3821 277.142 12.4545 276.693 12.4545Z" fill="#71CBFF"/>
</svg>
