<svg width="332" height="56" viewBox="0 0 332 56" fill="none" xmlns="http://www.w3.org/2000/svg">
<path d="M0 8C0 3.58172 3.58172 0 8 0H324C328.418 0 332 3.58172 332 8V48C332 52.4183 328.418 56 324 56H7.99999C3.58172 56 0 52.4183 0 48V8Z" fill="#71CBFF"/>
<path d="M143.836 33C143.716 33 143.614 32.958 143.53 32.874C143.446 32.79 143.404 32.688 143.404 32.568V20.832C143.404 20.712 143.446 20.61 143.53 20.526C143.614 20.442 143.716 20.4 143.836 20.4H145.51C145.63 20.4 145.732 20.442 145.816 20.526C145.9 20.61 145.942 20.712 145.942 20.832V30.858H151.648C151.78 30.858 151.888 30.9 151.972 30.984C152.056 31.068 152.098 31.176 152.098 31.308V32.568C152.098 32.688 152.056 32.79 151.972 32.874C151.888 32.958 151.78 33 151.648 33H143.836ZM157.629 33.18C156.669 33.18 155.859 33.012 155.199 32.676C154.551 32.34 154.053 31.866 153.705 31.254C153.369 30.642 153.177 29.928 153.129 29.112C153.117 28.896 153.111 28.632 153.111 28.32C153.111 28.008 153.117 27.744 153.129 27.528C153.177 26.7 153.375 25.986 153.723 25.386C154.083 24.774 154.587 24.3 155.235 23.964C155.895 23.628 156.693 23.46 157.629 23.46C158.565 23.46 159.357 23.628 160.005 23.964C160.665 24.3 161.169 24.774 161.517 25.386C161.877 25.986 162.081 26.7 162.129 27.528C162.141 27.744 162.147 28.008 162.147 28.32C162.147 28.632 162.141 28.896 162.129 29.112C162.081 29.928 161.883 30.642 161.535 31.254C161.199 31.866 160.701 32.34 160.041 32.676C159.393 33.012 158.589 33.18 157.629 33.18ZM157.629 31.398C158.265 31.398 158.757 31.2 159.105 30.804C159.453 30.396 159.645 29.802 159.681 29.022C159.693 28.842 159.699 28.608 159.699 28.32C159.699 28.032 159.693 27.798 159.681 27.618C159.645 26.85 159.453 26.262 159.105 25.854C158.757 25.446 158.265 25.242 157.629 25.242C156.993 25.242 156.501 25.446 156.153 25.854C155.805 26.262 155.613 26.85 155.577 27.618C155.565 27.798 155.559 28.032 155.559 28.32C155.559 28.608 155.565 28.842 155.577 29.022C155.613 29.802 155.805 30.396 156.153 30.804C156.501 31.2 156.993 31.398 157.629 31.398ZM168.371 36.96C167.495 36.96 166.775 36.846 166.211 36.618C165.647 36.39 165.203 36.114 164.879 35.79C164.555 35.466 164.321 35.142 164.177 34.818C164.045 34.506 163.973 34.26 163.961 34.08C163.949 33.96 163.985 33.852 164.069 33.756C164.165 33.672 164.273 33.63 164.393 33.63H165.959C166.079 33.63 166.175 33.654 166.247 33.702C166.319 33.762 166.379 33.864 166.427 34.008C166.499 34.164 166.595 34.332 166.715 34.512C166.835 34.692 167.015 34.842 167.255 34.962C167.507 35.094 167.849 35.16 168.281 35.16C168.737 35.16 169.121 35.094 169.433 34.962C169.745 34.83 169.979 34.608 170.135 34.296C170.303 33.984 170.387 33.552 170.387 33V31.776C170.099 32.124 169.727 32.406 169.271 32.622C168.827 32.838 168.275 32.946 167.615 32.946C166.967 32.946 166.409 32.844 165.941 32.64C165.473 32.424 165.083 32.13 164.771 31.758C164.459 31.374 164.219 30.924 164.051 30.408C163.895 29.892 163.805 29.322 163.781 28.698C163.769 28.374 163.769 28.05 163.781 27.726C163.805 27.126 163.895 26.568 164.051 26.052C164.207 25.536 164.441 25.086 164.753 24.702C165.077 24.306 165.473 24 165.941 23.784C166.409 23.568 166.967 23.46 167.615 23.46C168.299 23.46 168.875 23.592 169.343 23.856C169.811 24.108 170.195 24.426 170.495 24.81V24.09C170.495 23.958 170.537 23.85 170.621 23.766C170.705 23.682 170.807 23.64 170.927 23.64H172.385C172.505 23.64 172.607 23.682 172.691 23.766C172.775 23.85 172.817 23.958 172.817 24.09L172.835 32.766C172.835 33.63 172.673 34.374 172.349 34.998C172.025 35.622 171.533 36.102 170.873 36.438C170.225 36.786 169.391 36.96 168.371 36.96ZM168.281 31.038C168.773 31.038 169.169 30.93 169.469 30.714C169.769 30.498 169.991 30.216 170.135 29.868C170.279 29.52 170.363 29.166 170.387 28.806C170.399 28.65 170.405 28.452 170.405 28.212C170.405 27.972 170.399 27.78 170.387 27.636C170.363 27.264 170.279 26.91 170.135 26.574C169.991 26.226 169.769 25.944 169.469 25.728C169.169 25.5 168.773 25.386 168.281 25.386C167.789 25.386 167.393 25.5 167.093 25.728C166.793 25.944 166.577 26.232 166.445 26.592C166.325 26.952 166.253 27.348 166.229 27.78C166.205 28.068 166.205 28.362 166.229 28.662C166.253 29.082 166.325 29.478 166.445 29.85C166.577 30.21 166.793 30.498 167.093 30.714C167.393 30.93 167.789 31.038 168.281 31.038ZM175.665 33C175.545 33 175.443 32.958 175.359 32.874C175.275 32.79 175.233 32.688 175.233 32.568V24.072C175.233 23.952 175.275 23.85 175.359 23.766C175.443 23.682 175.545 23.64 175.665 23.64H177.159C177.291 23.64 177.393 23.682 177.465 23.766C177.549 23.85 177.591 23.952 177.591 24.072V32.568C177.591 32.688 177.549 32.79 177.465 32.874C177.393 32.958 177.291 33 177.159 33H175.665ZM175.593 22.092C175.461 22.092 175.353 22.056 175.269 21.984C175.197 21.9 175.161 21.792 175.161 21.66V20.364C175.161 20.244 175.197 20.142 175.269 20.058C175.353 19.974 175.461 19.932 175.593 19.932H177.231C177.363 19.932 177.471 19.974 177.555 20.058C177.639 20.142 177.681 20.244 177.681 20.364V21.66C177.681 21.792 177.639 21.9 177.555 21.984C177.471 22.056 177.363 22.092 177.231 22.092H175.593ZM180.78 33C180.66 33 180.558 32.958 180.474 32.874C180.39 32.79 180.348 32.688 180.348 32.568V24.072C180.348 23.952 180.39 23.85 180.474 23.766C180.558 23.682 180.66 23.64 180.78 23.64H182.256C182.376 23.64 182.478 23.682 182.562 23.766C182.646 23.85 182.688 23.952 182.688 24.072V24.81C183 24.426 183.396 24.108 183.876 23.856C184.368 23.592 184.974 23.46 185.694 23.46C186.426 23.46 187.062 23.628 187.602 23.964C188.142 24.288 188.556 24.75 188.844 25.35C189.144 25.95 189.294 26.67 189.294 27.51V32.568C189.294 32.688 189.252 32.79 189.168 32.874C189.084 32.958 188.982 33 188.862 33H187.278C187.158 33 187.056 32.958 186.972 32.874C186.888 32.79 186.846 32.688 186.846 32.568V27.618C186.846 26.922 186.672 26.376 186.324 25.98C185.988 25.584 185.496 25.386 184.848 25.386C184.224 25.386 183.726 25.584 183.354 25.98C182.982 26.376 182.796 26.922 182.796 27.618V32.568C182.796 32.688 182.754 32.79 182.67 32.874C182.586 32.958 182.484 33 182.364 33H180.78Z" fill="white"/>
</svg>
