<svg width="209" height="32" viewBox="0 0 209 32" fill="none" xmlns="http://www.w3.org/2000/svg">
<path d="M19.2995 25.288L15.8435 13.64C15.7368 13.32 15.6835 13.0427 15.6835 12.808H15.4275C15.4275 13.0427 15.3635 13.32 15.2355 13.64L11.3635 25.288H9.0915L2.4035 5.48C2.25416 5.032 2.06216 4.744 1.8275 4.616C1.59283 4.46667 1.07016 4.296 0.259497 4.104L0.483497 2.824H7.6195L7.7475 4.136L5.9555 4.744C5.80616 4.76533 5.7315 4.82933 5.7315 4.936C5.7315 5.02133 5.77416 5.192 5.8595 5.448L10.3075 19.816C10.4995 20.4987 10.5955 20.8613 10.5955 20.904H10.9155L14.5955 9.256L13.4755 5.48C13.4115 5.224 13.3368 5.032 13.2515 4.904C13.1875 4.776 13.0595 4.65867 12.8675 4.552C12.6115 4.424 12.1742 4.27467 11.5555 4.104L11.7795 2.824H18.5315L18.6595 4.136L16.3875 4.744C16.2382 4.76533 16.1635 4.82933 16.1635 4.936C16.1635 5.02133 16.2062 5.192 16.2915 5.448L20.5155 19.816C20.7075 20.4773 20.8035 20.84 20.8035 20.904H21.1235L25.6035 6.792C25.8382 6.00267 25.9555 5.48 25.9555 5.224C25.9555 4.75467 25.1342 4.38133 23.4915 4.104L23.6835 2.824H30.2435L30.3715 4.168C29.4968 4.36 28.9315 4.56267 28.6755 4.776C28.4195 4.98933 28.1955 5.384 28.0035 5.96L21.6035 25.288H19.2995ZM39.9295 25.288C37.6255 25.288 35.8548 24.6053 34.6175 23.24C33.3802 21.8747 32.7615 19.9653 32.7615 17.512C32.7615 15.0587 33.4122 13.096 34.7135 11.624C36.0362 10.1307 37.8495 9.384 40.1535 9.384C42.4788 9.384 44.2602 10.0773 45.4975 11.464C46.7348 12.8293 47.3535 14.7387 47.3535 17.192C47.3535 19.6453 46.6922 21.608 45.3695 23.08C44.0682 24.552 42.2548 25.288 39.9295 25.288ZM35.8655 17.096C35.8655 18.9947 36.2495 20.552 37.0175 21.768C37.7855 22.984 38.8308 23.592 40.1535 23.592C41.4762 23.592 42.4148 23.272 42.9695 22.632C43.3535 22.2053 43.6628 21.5333 43.8975 20.616C44.1322 19.6773 44.2495 18.664 44.2495 17.576C44.2495 15.6773 43.8655 14.12 43.0975 12.904C42.3295 11.688 41.2842 11.08 39.9615 11.08C38.6388 11.08 37.7002 11.4 37.1455 12.04C36.7615 12.4667 36.4522 13.1493 36.2175 14.088C35.9828 15.0053 35.8655 16.008 35.8655 17.096ZM51.2425 25L51.0505 23.752C52.1812 23.56 52.8745 23.3467 53.1305 23.112C53.3865 22.8773 53.5145 22.4827 53.5145 21.928V12.712C53.5145 12.1573 53.3652 11.7627 53.0665 11.528C52.7892 11.272 52.0532 11.0587 50.8585 10.888L51.0505 9.864L55.4025 9.448C55.5518 9.448 55.7118 9.66133 55.8825 10.088C56.0532 10.5147 56.1385 10.9627 56.1385 11.432C56.1385 11.88 56.0958 12.4027 56.0105 13L56.2665 13.096L56.6825 12.168C57.0665 11.3147 57.6425 10.6427 58.4105 10.152C59.1998 9.64 59.9892 9.384 60.7785 9.384C61.5892 9.384 62.3358 9.55467 63.0185 9.896C63.0185 11.6453 62.8585 13.3947 62.5385 15.144L60.9705 15.304C60.7998 13.512 60.6292 12.4987 60.4585 12.264C60.2878 12.008 59.9998 11.88 59.5945 11.88C59.2105 11.88 58.7518 12.0613 58.2185 12.424C57.6852 12.7653 57.2478 13.1387 56.9065 13.544C56.5652 13.928 56.3945 14.568 56.3945 15.464V22.696C56.3945 22.9733 56.4478 23.1547 56.5545 23.24C56.6825 23.304 56.8425 23.3467 57.0345 23.368L59.9465 23.752L59.8185 25H51.2425ZM66.655 25L66.463 23.752C67.5083 23.5387 68.1377 23.3253 68.351 23.112C68.5857 22.8773 68.703 22.4827 68.703 21.928V3.336C68.703 2.888 68.5323 2.568 68.191 2.376C67.8497 2.16267 67.2097 1.96 66.271 1.768L66.463 0.743999C68.7457 0.445333 70.335 0.296 71.231 0.296L71.583 0.615999V17.608L77.087 12.456C77.2577 12.264 77.343 12.0827 77.343 11.912C77.343 11.592 76.607 11.3253 75.135 11.112L75.327 9.864H81.695L81.823 11.112C80.8417 11.2613 80.255 11.432 80.063 11.624L75.679 15.816L80.319 22.44C80.6603 22.8667 81.0337 23.176 81.439 23.368C81.8657 23.56 82.4737 23.688 83.263 23.752L83.071 25H78.623L73.663 17.768L71.583 19.752V22.696C71.583 22.952 71.6363 23.1227 71.743 23.208C71.871 23.272 72.031 23.3253 72.223 23.368L73.631 23.752L73.503 25H66.655ZM104.621 25.224C101.784 24.9893 99.5975 23.8907 98.0615 21.928C96.5255 19.9653 95.7575 17.3093 95.7575 13.96C95.7575 10.5893 96.6855 7.848 98.5415 5.736C100.397 3.60267 102.936 2.536 106.157 2.536C109.4 2.536 111.896 3.51733 113.645 5.48C115.395 7.42133 116.269 10.0453 116.269 13.352C116.269 16.1893 115.683 18.6 114.509 20.584C113.357 22.568 111.715 23.9333 109.581 24.68V24.808C109.987 24.9573 110.723 25.416 111.789 26.184C112.856 26.9733 113.635 27.368 114.125 27.368C114.616 27.368 115.277 27.208 116.109 26.888L116.845 28.04C116.376 28.424 115.992 28.712 115.693 28.904C114.819 29.544 113.997 29.864 113.229 29.864C112.461 29.864 111.693 29.6293 110.925 29.16C110.179 28.712 109.517 28.2107 108.941 27.656C108.387 27.1013 107.715 26.568 106.925 26.056C106.136 25.5653 105.368 25.288 104.621 25.224ZM106.285 23.592C107.437 23.592 108.44 23.3253 109.293 22.792C110.168 22.2587 110.851 21.5227 111.341 20.584C112.259 18.7707 112.717 16.488 112.717 13.736C112.717 10.984 112.109 8.712 110.893 6.92C109.699 5.128 107.981 4.232 105.741 4.232C104.589 4.232 103.576 4.49867 102.701 5.032C101.848 5.544 101.187 6.25867 100.717 7.176C99.7788 8.94667 99.3095 11.208 99.3095 13.96C99.3095 16.6907 99.9068 18.984 101.101 20.84C102.296 22.6747 104.024 23.592 106.285 23.592ZM121.931 21.032V12.584C121.931 12.136 121.761 11.816 121.419 11.624C121.078 11.4107 120.438 11.208 119.499 11.016L119.691 9.992C121.974 9.69333 123.563 9.544 124.459 9.544L124.811 9.864V19.656C124.811 21.8747 125.654 22.984 127.339 22.984C128.427 22.984 129.558 22.568 130.731 21.736C131.009 21.544 131.19 21.3627 131.275 21.192C131.361 21 131.403 20.6907 131.403 20.264V12.584C131.403 12.136 131.233 11.816 130.891 11.624C130.55 11.4107 129.91 11.208 128.971 11.016L129.163 9.992C131.446 9.69333 133.035 9.544 133.931 9.544L134.283 9.864V21.832C134.283 22.3867 134.411 22.7813 134.667 23.016C134.945 23.2293 135.627 23.4427 136.715 23.656L136.523 24.68L132.395 25.128C132.246 25.1493 132.086 24.872 131.915 24.296C131.766 23.6987 131.691 23.1867 131.691 22.76V22.568L131.435 22.472L131.051 22.92C129.707 24.4987 128.065 25.288 126.123 25.288C124.822 25.288 123.798 24.9467 123.051 24.264C122.305 23.56 121.931 22.4827 121.931 21.032ZM140.4 21.064C140.4 19.464 141.083 18.2693 142.448 17.48C143.814 16.6907 146.032 16.2853 149.104 16.264V15.24C149.104 12.4667 148.102 11.08 146.096 11.08C145.136 11.08 144.528 11.2187 144.272 11.496C144.038 11.7733 143.782 12.68 143.504 14.216L141.776 14.024C141.606 13.3627 141.52 12.68 141.52 11.976C141.52 11.2507 141.531 10.7813 141.552 10.568C142.811 9.77867 144.464 9.384 146.512 9.384C148.56 9.384 149.979 9.77867 150.768 10.568C151.579 11.3573 151.984 12.6587 151.984 14.472V21.832C151.984 22.3867 152.112 22.7813 152.368 23.016C152.646 23.2293 153.328 23.4427 154.416 23.656L154.224 24.68L150.384 25.096C150.171 25.096 149.947 24.8933 149.712 24.488C149.478 24.0827 149.36 23.7093 149.36 23.368C149.36 23.0053 149.371 22.7387 149.392 22.568L149.136 22.472L148.752 23.048C147.75 24.5413 146.374 25.288 144.624 25.288C143.43 25.288 142.427 24.9147 141.616 24.168C140.806 23.4213 140.4 22.3867 140.4 21.064ZM143.504 20.776C143.504 21.544 143.707 22.1307 144.112 22.536C144.518 22.92 145.094 23.112 145.84 23.112C146.587 23.112 147.43 22.7493 148.368 22.024C148.859 21.64 149.104 21.2347 149.104 20.808V17.672C147.184 17.7147 145.766 17.9707 144.848 18.44C143.952 18.9093 143.504 19.688 143.504 20.776ZM158.311 25L158.119 23.752C159.165 23.5387 159.794 23.3253 160.007 23.112C160.242 22.8773 160.359 22.4827 160.359 21.928V3.336C160.359 2.888 160.189 2.568 159.847 2.376C159.506 2.16267 158.866 1.96 157.927 1.768L158.119 0.743999C160.402 0.445333 161.991 0.296 162.887 0.296L163.239 0.615999V22.696C163.239 22.952 163.293 23.1227 163.399 23.208C163.527 23.272 163.687 23.3253 163.879 23.368L165.447 23.752L165.319 25H158.311ZM169.823 25L169.631 23.752C170.676 23.5387 171.305 23.3253 171.519 23.112C171.753 22.8773 171.871 22.4827 171.871 21.928V12.744C171.871 12.296 171.7 11.976 171.359 11.784C171.017 11.5707 170.377 11.368 169.439 11.176L169.631 10.152C171.913 9.85333 173.503 9.704 174.399 9.704L174.751 10.024V22.696C174.751 22.952 174.804 23.1227 174.911 23.208C175.039 23.272 175.199 23.3253 175.391 23.368L176.959 23.752L176.831 25H169.823ZM174.783 4.008C174.783 4.54133 174.612 4.98933 174.271 5.352C173.951 5.71467 173.513 5.896 172.959 5.896C172.425 5.896 171.977 5.736 171.615 5.416C171.273 5.096 171.103 4.65867 171.103 4.104C171.103 3.528 171.263 3.06933 171.583 2.728C171.924 2.38667 172.383 2.216 172.959 2.216C174.175 2.216 174.783 2.81333 174.783 4.008ZM182.545 20.616V11.816H180.465L180.337 10.44L181.905 10.056C182.31 9.94933 182.577 9.71467 182.705 9.352C182.854 8.968 183.11 7.77333 183.473 5.768L185.425 5.576V9.864H189.873L189.617 11.368L185.425 11.848V19.656C185.425 21.8747 186.108 22.984 187.473 22.984C188.241 22.984 189.052 22.664 189.905 22.024L190.577 22.952C189.425 24.5093 188.017 25.288 186.353 25.288C185.158 25.288 184.22 24.872 183.537 24.04C182.876 23.208 182.545 22.0667 182.545 20.616ZM193.541 28.744C194.053 28.808 194.757 28.84 195.653 28.84C196.57 28.84 197.295 28.7227 197.829 28.488C198.362 28.2747 199.002 27.112 199.749 25L194.437 12.264C194.266 11.8587 194.106 11.6027 193.957 11.496C193.829 11.3893 193.423 11.2613 192.741 11.112L192.933 9.864H199.525L199.653 11.112L197.701 11.592C197.551 11.6133 197.477 11.6987 197.477 11.848C197.477 11.8693 197.519 12.008 197.605 12.264L200.869 20.808C200.975 21.1067 201.029 21.4373 201.029 21.8H201.285L204.677 13C204.805 12.6587 204.869 12.3813 204.869 12.168C204.869 11.9333 204.709 11.7413 204.389 11.592C204.09 11.4427 203.546 11.2827 202.757 11.112L202.949 9.864H208.645L208.773 11.112C207.834 11.3253 207.333 11.5067 207.269 11.656L202.213 24.2C201.786 25.2667 201.445 26.0773 201.189 26.632C200.933 27.208 200.581 27.848 200.133 28.552C199.685 29.256 199.215 29.8 198.725 30.184C197.509 31.1013 196.037 31.7093 194.309 32.008C193.754 31.4533 193.477 30.5787 193.477 29.384C193.477 29.256 193.498 29.0427 193.541 28.744Z" fill="#71CBFF"/>
</svg>
