<svg width="140" height="25" viewBox="0 0 140 25" fill="none" xmlns="http://www.w3.org/2000/svg">
<path d="M10.7258 19.328C11.6004 19.328 12.3364 19.2 12.9338 18.944C13.5524 18.688 14.0751 18.4 14.5018 18.08C14.9284 17.76 15.3018 17.472 15.6218 17.216C15.9631 16.96 16.3044 16.832 16.6458 16.832C17.0724 16.832 17.2858 17.152 17.2858 17.792C17.2858 18.1333 17.2431 18.5493 17.1578 19.04C17.0724 19.5093 16.9551 20.0427 16.8058 20.64C16.7204 21.0027 16.5071 21.3973 16.1658 21.824C15.8458 22.2507 15.3978 22.656 14.8218 23.04C14.2458 23.4027 13.5311 23.712 12.6778 23.968C11.8458 24.2027 10.8858 24.32 9.79775 24.32C8.70975 24.32 7.62175 24.16 6.53375 23.84C5.44575 23.52 4.47509 22.976 3.62175 22.208C2.76842 21.44 2.07508 20.4053 1.54175 19.104C1.00842 17.8027 0.741752 16.1707 0.741752 14.208C0.741752 13.504 0.784418 12.6933 0.869752 11.776C0.976418 10.8373 1.16842 9.87733 1.44575 8.896C1.72308 7.91467 2.10708 6.95467 2.59775 6.016C3.10975 5.056 3.76042 4.20267 4.54975 3.456C5.33909 2.70933 6.29909 2.112 7.42975 1.664C8.58175 1.19467 9.94709 0.959999 11.5258 0.959999C12.7844 0.959999 13.8724 1.10933 14.7898 1.408C15.7284 1.70667 16.4964 2.12267 17.0938 2.656C17.7124 3.168 18.1604 3.776 18.4378 4.48C18.7364 5.184 18.8858 5.93067 18.8858 6.72C18.8858 8.08533 18.4804 9.088 17.6698 9.728C16.8804 10.3467 15.7498 10.656 14.2778 10.656C13.8084 10.656 13.5098 10.624 13.3818 10.56C13.2751 10.4747 13.2218 10.3147 13.2218 10.08C13.2004 9.35467 13.1791 8.72533 13.1578 8.192C13.1364 7.65867 13.0618 7.22133 12.9338 6.88C12.8058 6.51733 12.6031 6.26133 12.3258 6.112C12.0698 5.94133 11.7071 5.856 11.2378 5.856C10.5551 5.856 9.96842 6.00533 9.47775 6.304C9.00842 6.58133 8.60309 6.95467 8.26175 7.424C7.94175 7.872 7.67509 8.384 7.46175 8.96C7.26975 9.536 7.10975 10.1227 6.98175 10.72C6.87509 11.3173 6.80042 11.8933 6.75775 12.448C6.73642 13.0027 6.72575 13.4827 6.72575 13.888C6.72575 15.8507 7.04575 17.248 7.68575 18.08C8.34708 18.912 9.36042 19.328 10.7258 19.328ZM25.8678 24.288C24.5451 24.288 23.5958 23.936 23.0198 23.232C22.4438 22.528 22.1558 21.3653 22.1558 19.744C22.1558 19.488 22.1664 19.168 22.1878 18.784C22.2304 18.4 22.2731 17.9093 22.3158 17.312C22.3798 16.6933 22.4544 15.936 22.5398 15.04C22.6251 14.144 22.7104 13.056 22.7958 11.776C22.9024 10.496 23.0091 8.992 23.1158 7.264C23.2438 5.536 23.3718 3.53067 23.4998 1.248C23.5211 0.778666 23.5744 0.501332 23.6598 0.415998C23.7238 0.351999 23.8944 0.32 24.1718 0.32H25.4198C26.0598 0.32 26.5931 0.394666 27.0198 0.543999C27.4464 0.693333 27.7878 0.895999 28.0438 1.152C28.2998 1.408 28.4811 1.70667 28.5878 2.048C28.6944 2.368 28.7478 2.70933 28.7478 3.072C28.7478 3.49867 28.7158 4.11733 28.6518 4.928C28.6091 5.71733 28.5451 6.61333 28.4598 7.616C28.3744 8.61867 28.2891 9.664 28.2038 10.752C28.1184 11.84 28.0331 12.8853 27.9478 13.888C27.8624 14.8693 27.7878 15.7547 27.7238 16.544C27.6811 17.3333 27.6598 17.9307 27.6598 18.336C27.6598 18.8907 27.7558 19.2853 27.9478 19.52C28.1611 19.7547 28.3851 19.9253 28.6198 20.032C28.8544 20.1173 29.0678 20.1813 29.2598 20.224C29.4731 20.2453 29.5798 20.3093 29.5798 20.416C29.5798 20.8853 29.5264 21.3547 29.4198 21.824C29.3131 22.272 29.1211 22.688 28.8438 23.072C28.5664 23.4347 28.1824 23.7333 27.6918 23.968C27.2224 24.1813 26.6144 24.288 25.8678 24.288ZM40.804 24.32C39.8653 24.32 38.9267 24.2027 37.988 23.968C37.0707 23.7333 36.2387 23.328 35.492 22.752C34.7667 22.176 34.1693 21.408 33.7 20.448C33.2307 19.488 32.996 18.2827 32.996 16.832C32.996 16.2987 33.0387 15.6587 33.124 14.912C33.2093 14.1653 33.3693 13.3973 33.604 12.608C33.86 11.8187 34.2013 11.04 34.628 10.272C35.076 9.48267 35.652 8.77867 36.356 8.16C37.06 7.54133 37.9133 7.04 38.916 6.656C39.9187 6.272 41.1133 6.08 42.5 6.08C43.6093 6.08 44.548 6.208 45.316 6.464C46.084 6.72 46.7027 7.072 47.172 7.52C47.6413 7.94667 47.9827 8.448 48.196 9.024C48.4093 9.6 48.516 10.2187 48.516 10.88C48.516 11.8613 48.3133 12.6933 47.908 13.376C47.524 14.0587 47.012 14.6347 46.372 15.104C45.7533 15.552 45.06 15.904 44.292 16.16C43.524 16.416 42.7667 16.6187 42.02 16.768C41.2733 16.896 40.58 16.9813 39.94 17.024C39.3213 17.0453 38.8413 17.056 38.5 17.056C38.5 17.4613 38.5533 17.8667 38.66 18.272C38.788 18.656 38.9693 18.9973 39.204 19.296C39.4387 19.5947 39.748 19.84 40.132 20.032C40.516 20.224 40.9853 20.32 41.54 20.32C42.0947 20.32 42.5213 20.2347 42.82 20.064C43.14 19.872 43.396 19.6693 43.588 19.456C43.78 19.2213 43.94 19.0187 44.068 18.848C44.2173 18.656 44.4093 18.56 44.644 18.56C44.7507 18.56 44.932 18.592 45.188 18.656C45.4653 18.6987 45.7427 18.8053 46.02 18.976C46.2973 19.1467 46.5427 19.3813 46.756 19.68C46.9693 19.9787 47.076 20.3627 47.076 20.832C47.076 21.4507 46.884 21.984 46.5 22.432C46.116 22.88 45.6147 23.2427 44.996 23.52C44.3987 23.7973 43.7267 24 42.98 24.128C42.2333 24.256 41.508 24.32 40.804 24.32ZM41.412 10.336C40.9427 10.336 40.5373 10.4747 40.196 10.752C39.876 11.008 39.5987 11.3387 39.364 11.744C39.1507 12.1493 38.98 12.5973 38.852 13.088C38.7453 13.5787 38.66 14.048 38.596 14.496C39.9187 14.4747 40.9853 14.2507 41.796 13.824C42.628 13.3973 43.044 12.7893 43.044 12C43.044 11.5733 42.9053 11.1893 42.628 10.848C42.372 10.5067 41.9667 10.336 41.412 10.336ZM51.0833 20.064C51.0833 18.144 51.9473 16.64 53.6753 15.552C55.4033 14.464 57.9526 13.8773 61.3233 13.792C61.3446 13.5573 61.3553 13.3653 61.3553 13.216C61.3766 13.0453 61.3873 12.8427 61.3873 12.608C61.3873 11.9253 61.2593 11.3813 61.0033 10.976C60.7473 10.5707 60.2139 10.368 59.4033 10.368C58.9553 10.368 58.5926 10.432 58.3153 10.56C58.0379 10.688 57.8139 10.8693 57.6433 11.104C57.4726 11.3173 57.3339 11.584 57.2273 11.904C57.1206 12.224 57.0246 12.576 56.9393 12.96C56.8966 13.152 56.8006 13.28 56.6513 13.344C56.5019 13.3867 56.2673 13.408 55.9473 13.408C53.7713 13.408 52.6833 12.5867 52.6833 10.944C52.6833 10.2827 52.8326 9.65333 53.1313 9.056C53.4513 8.45867 53.9099 7.94667 54.5073 7.52C55.1259 7.072 55.8939 6.72 56.8113 6.464C57.7286 6.208 58.7953 6.08 60.0113 6.08C62.3793 6.08 64.0966 6.57067 65.1633 7.552C66.2299 8.53333 66.7633 9.92 66.7633 11.712C66.7633 11.9467 66.7313 12.3733 66.6673 12.992C66.6246 13.5893 66.5606 14.2293 66.4753 14.912C66.4113 15.5733 66.3473 16.2027 66.2833 16.8C66.2406 17.3973 66.2193 17.8133 66.2193 18.048C66.2193 18.5813 66.3153 18.9653 66.5073 19.2C66.6993 19.4133 66.9126 19.5627 67.1473 19.648C67.4033 19.7333 67.6273 19.7973 67.8193 19.84C68.0113 19.8827 68.1073 19.9893 68.1073 20.16C68.1073 20.6293 68.0433 21.1093 67.9153 21.6C67.7873 22.0907 67.5739 22.5387 67.2753 22.944C66.9979 23.3493 66.6033 23.68 66.0913 23.936C65.6006 24.192 64.9926 24.32 64.2673 24.32C63.2433 24.32 62.4753 24.0747 61.9633 23.584C61.4513 23.0933 61.1099 22.4107 60.9393 21.536C60.4273 22.2827 59.7553 22.9333 58.9233 23.488C58.1126 24.0427 57.0459 24.32 55.7233 24.32C55.0833 24.32 54.4753 24.2453 53.8993 24.096C53.3446 23.9467 52.8539 23.7013 52.4273 23.36C52.0219 23.0187 51.6913 22.5813 51.4353 22.048C51.2006 21.4933 51.0833 20.832 51.0833 20.064ZM61.0353 16.416C60.4806 16.416 59.9366 16.4587 59.4033 16.544C58.8699 16.6293 58.3899 16.768 57.9633 16.96C57.5579 17.1307 57.2273 17.3653 56.9713 17.664C56.7153 17.9627 56.5873 18.3253 56.5873 18.752C56.5873 19.2427 56.7366 19.584 57.0353 19.776C57.3553 19.968 57.6966 20.064 58.0593 20.064C58.4006 20.064 58.7419 19.9893 59.0833 19.84C59.4246 19.6907 59.7233 19.4667 59.9793 19.168C60.2566 18.848 60.4913 18.464 60.6833 18.016C60.8753 17.568 60.9926 17.0347 61.0353 16.416ZM82.5865 21.184C82.5865 20.7147 82.6185 20.1067 82.6825 19.36C82.7678 18.592 82.8425 17.792 82.9065 16.96C82.9918 16.1067 83.0665 15.2853 83.1305 14.496C83.2158 13.7067 83.2585 13.0453 83.2585 12.512C83.2585 11.9573 83.1198 11.4667 82.8425 11.04C82.5865 10.592 82.0745 10.368 81.3065 10.368C80.5598 10.368 79.9412 10.5493 79.4505 10.912C78.9598 11.2747 78.5438 11.936 78.2025 12.896C77.8825 13.856 77.6158 15.1787 77.4025 16.864C77.1892 18.5493 76.9865 20.7147 76.7945 23.36C76.7732 23.616 76.7198 23.7867 76.6345 23.872C76.5492 23.9573 76.3678 24 76.0905 24H74.9385C74.2772 24 73.7332 23.936 73.3065 23.808C72.9012 23.6587 72.5705 23.456 72.3145 23.2C72.0798 22.944 71.9092 22.6347 71.8025 22.272C71.7172 21.888 71.6745 21.4507 71.6745 20.96C71.6745 20.64 71.6852 20.192 71.7065 19.616C71.7492 19.0187 71.8132 18.208 71.8985 17.184C71.9838 16.1387 72.0798 14.8267 72.1865 13.248C72.3145 11.648 72.4638 9.67467 72.6345 7.328C72.6558 6.85867 72.7092 6.58133 72.7945 6.496C72.8585 6.432 73.0292 6.4 73.3065 6.4H74.5545C75.1945 6.4 75.7172 6.47467 76.1225 6.624C76.5492 6.77333 76.8905 6.976 77.1465 7.232C77.4025 7.46667 77.5838 7.75467 77.6905 8.096C77.7972 8.416 77.8612 8.74667 77.8825 9.088C78.5438 7.95733 79.3012 7.17867 80.1545 6.752C81.0078 6.304 82.0745 6.08 83.3545 6.08C84.2505 6.08 85.0292 6.176 85.6905 6.368C86.3518 6.56 86.8958 6.89067 87.3225 7.36C87.7705 7.808 88.1012 8.40533 88.3145 9.152C88.5278 9.87733 88.6345 10.784 88.6345 11.872C88.6345 12.2133 88.6132 12.704 88.5705 13.344C88.5278 13.984 88.4745 14.688 88.4105 15.456C88.3465 16.2027 88.2718 16.992 88.1865 17.824C88.1225 18.6347 88.0585 19.392 87.9945 20.096C87.9305 20.8 87.8772 21.4187 87.8345 21.952C87.7918 22.4853 87.7705 22.8373 87.7705 23.008C87.7705 23.4773 87.7172 23.7653 87.6105 23.872C87.5038 23.9573 87.2692 24 86.9065 24H85.8825C85.1998 24 84.6452 23.936 84.2185 23.808C83.7918 23.68 83.4612 23.4987 83.2265 23.264C82.9918 23.0293 82.8212 22.7413 82.7145 22.4C82.6292 22.0373 82.5865 21.632 82.5865 21.184ZM111.482 19.328C112.357 19.328 113.093 19.2 113.69 18.944C114.309 18.688 114.831 18.4 115.258 18.08C115.685 17.76 116.058 17.472 116.378 17.216C116.719 16.96 117.061 16.832 117.402 16.832C117.829 16.832 118.042 17.152 118.042 17.792C118.042 18.1333 117.999 18.5493 117.914 19.04C117.829 19.5093 117.711 20.0427 117.562 20.64C117.477 21.0027 117.263 21.3973 116.922 21.824C116.602 22.2507 116.154 22.656 115.578 23.04C115.002 23.4027 114.287 23.712 113.434 23.968C112.602 24.2027 111.642 24.32 110.554 24.32C109.466 24.32 108.378 24.16 107.29 23.84C106.202 23.52 105.231 22.976 104.378 22.208C103.525 21.44 102.831 20.4053 102.298 19.104C101.765 17.8027 101.498 16.1707 101.498 14.208C101.498 13.504 101.541 12.6933 101.626 11.776C101.733 10.8373 101.925 9.87733 102.202 8.896C102.479 7.91467 102.863 6.95467 103.354 6.016C103.866 5.056 104.517 4.20267 105.306 3.456C106.095 2.70933 107.055 2.112 108.186 1.664C109.338 1.19467 110.703 0.959999 112.282 0.959999C113.541 0.959999 114.629 1.10933 115.546 1.408C116.485 1.70667 117.253 2.12267 117.85 2.656C118.469 3.168 118.917 3.776 119.194 4.48C119.493 5.184 119.642 5.93067 119.642 6.72C119.642 8.08533 119.237 9.088 118.426 9.728C117.637 10.3467 116.506 10.656 115.034 10.656C114.565 10.656 114.266 10.624 114.138 10.56C114.031 10.4747 113.978 10.3147 113.978 10.08C113.957 9.35467 113.935 8.72533 113.914 8.192C113.893 7.65867 113.818 7.22133 113.69 6.88C113.562 6.51733 113.359 6.26133 113.082 6.112C112.826 5.94133 112.463 5.856 111.994 5.856C111.311 5.856 110.725 6.00533 110.234 6.304C109.765 6.58133 109.359 6.95467 109.018 7.424C108.698 7.872 108.431 8.384 108.218 8.96C108.026 9.536 107.866 10.1227 107.738 10.72C107.631 11.3173 107.557 11.8933 107.514 12.448C107.493 13.0027 107.482 13.4827 107.482 13.888C107.482 15.8507 107.802 17.248 108.442 18.08C109.103 18.912 110.117 19.328 111.482 19.328ZM129.861 24.32C128.389 24.32 127.163 24.1173 126.181 23.712C125.221 23.2853 124.453 22.7093 123.877 21.984C123.301 21.2587 122.896 20.416 122.661 19.456C122.427 18.4747 122.309 17.4293 122.309 16.32C122.309 15.04 122.459 13.792 122.757 12.576C123.077 11.3387 123.611 10.24 124.357 9.28C125.104 8.32 126.085 7.552 127.301 6.976C128.539 6.37867 130.075 6.08 131.909 6.08C134.597 6.08 136.517 6.74133 137.669 8.064C138.843 9.36533 139.429 11.2 139.429 13.568C139.429 14.2293 139.376 14.9653 139.269 15.776C139.184 16.5653 139.003 17.3547 138.725 18.144C138.469 18.9333 138.107 19.7013 137.637 20.448C137.189 21.1947 136.613 21.856 135.909 22.432C135.205 23.008 134.352 23.4667 133.349 23.808C132.368 24.1493 131.205 24.32 129.861 24.32ZM131.365 10.336C130.555 10.336 129.904 10.5493 129.413 10.976C128.944 11.3813 128.581 11.8827 128.325 12.48C128.091 13.056 127.931 13.6747 127.845 14.336C127.781 14.976 127.749 15.52 127.749 15.968C127.749 17.376 127.973 18.4107 128.421 19.072C128.869 19.7333 129.509 20.064 130.341 20.064C131.088 20.064 131.696 19.8293 132.165 19.36C132.656 18.8907 133.029 18.3253 133.285 17.664C133.563 17.0027 133.744 16.3093 133.829 15.584C133.936 14.8587 133.989 14.2507 133.989 13.76C133.989 12.6933 133.787 11.8613 133.381 11.264C132.997 10.6453 132.325 10.336 131.365 10.336Z" fill="#71CBFF"/>
</svg>
