<svg width="259" height="32" viewBox="0 0 259 32" fill="none" xmlns="http://www.w3.org/2000/svg">
<path d="M0.291875 14.408C0.291875 11.976 0.793208 9.81067 1.79588 7.912C2.96921 5.672 4.72921 4.11467 7.07588 3.24C8.37721 2.77067 9.73188 2.536 11.1399 2.536C12.5479 2.536 13.9025 2.64267 15.2039 2.856C16.5052 3.06933 17.3585 3.26133 17.7639 3.432C17.8919 4.22133 17.9559 5.05333 17.9559 5.928C17.9559 6.78133 17.9345 7.74133 17.8919 8.808L16.0679 9.064C15.5985 6.58933 15.1825 5.224 14.8199 4.968C14.6279 4.81867 14.1265 4.65867 13.3159 4.488C12.5265 4.31733 11.7372 4.232 10.9479 4.232C8.60121 4.232 6.83054 5.096 5.63588 6.824C4.44121 8.552 3.84388 10.824 3.84388 13.64C3.84388 16.968 4.60121 19.4427 6.11588 21.064C7.63054 22.6853 9.50788 23.496 11.7479 23.496C12.5585 23.496 13.3159 23.4 14.0199 23.208C14.7452 23.016 15.2145 22.8347 15.4279 22.664C15.6625 22.4933 16.0145 21.1387 16.4839 18.6L18.2439 18.664C18.2439 20.2853 18.1265 22.0133 17.8919 23.848C17.2305 24.2107 16.2279 24.5413 14.8839 24.84C13.5612 25.1387 12.2065 25.288 10.8199 25.288C7.34254 25.288 4.71854 24.264 2.94788 22.216C1.17721 20.168 0.291875 17.5653 0.291875 14.408ZM21.8956 25L21.7036 23.752C22.749 23.5387 23.3783 23.3253 23.5916 23.112C23.8263 22.8773 23.9436 22.4827 23.9436 21.928V3.336C23.9436 2.888 23.773 2.568 23.4316 2.376C23.0903 2.16267 22.4503 1.96 21.5116 1.768L21.7036 0.743999C23.9863 0.445333 25.5756 0.296 26.4716 0.296L26.8236 0.615999V22.696C26.8236 22.952 26.877 23.1227 26.9836 23.208C27.1116 23.272 27.2716 23.3253 27.4636 23.368L29.0316 23.752L28.9036 25H21.8956ZM39.7751 25.288C37.6205 25.288 35.9458 24.552 34.7511 23.08C33.5778 21.608 32.9911 19.752 32.9911 17.512C32.9911 15.2507 33.6738 13.3307 35.0391 11.752C36.4045 10.1733 38.2071 9.384 40.4471 9.384C44.0738 9.384 45.9725 11.6133 46.1431 16.072L45.3111 16.68L36.0311 17.192C36.0311 21.1387 37.7165 23.112 41.0871 23.112C42.5591 23.112 43.9991 22.7493 45.4071 22.024L46.0791 23.08C45.3751 23.656 44.4578 24.168 43.3271 24.616C42.1965 25.064 41.0125 25.288 39.7751 25.288ZM36.1271 15.72L42.7511 15.144C42.9645 15.1227 43.0711 14.92 43.0711 14.536C43.0711 13.5973 42.8151 12.7867 42.3031 12.104C41.8125 11.4213 40.9698 11.08 39.7751 11.08C38.5805 11.08 37.7058 11.4853 37.1511 12.296C36.6178 13.0853 36.2765 14.2267 36.1271 15.72ZM50.1284 21.064C50.1284 19.464 50.811 18.2693 52.1764 17.48C53.5417 16.6907 55.7604 16.2853 58.8324 16.264V15.24C58.8324 12.4667 57.8297 11.08 55.8244 11.08C54.8644 11.08 54.2564 11.2187 54.0004 11.496C53.7657 11.7733 53.5097 12.68 53.2324 14.216L51.5044 14.024C51.3337 13.3627 51.2484 12.68 51.2484 11.976C51.2484 11.2507 51.259 10.7813 51.2804 10.568C52.539 9.77867 54.1924 9.384 56.2404 9.384C58.2884 9.384 59.707 9.77867 60.4964 10.568C61.307 11.3573 61.7124 12.6587 61.7124 14.472V21.832C61.7124 22.3867 61.8404 22.7813 62.0964 23.016C62.3737 23.2293 63.0564 23.4427 64.1444 23.656L63.9524 24.68L60.1124 25.096C59.899 25.096 59.675 24.8933 59.4404 24.488C59.2057 24.0827 59.0884 23.7093 59.0884 23.368C59.0884 23.0053 59.099 22.7387 59.1204 22.568L58.8644 22.472L58.4804 23.048C57.4777 24.5413 56.1017 25.288 54.3524 25.288C53.1577 25.288 52.155 24.9147 51.3444 24.168C50.5337 23.4213 50.1284 22.3867 50.1284 21.064ZM53.2324 20.776C53.2324 21.544 53.435 22.1307 53.8404 22.536C54.2457 22.92 54.8217 23.112 55.5684 23.112C56.315 23.112 57.1577 22.7493 58.0964 22.024C58.587 21.64 58.8324 21.2347 58.8324 20.808V17.672C56.9124 17.7147 55.4937 17.9707 54.5764 18.44C53.6804 18.9093 53.2324 19.688 53.2324 20.776ZM68.2634 25L68.0714 23.752C69.1167 23.5387 69.746 23.3253 69.9594 23.112C70.194 22.8773 70.3114 22.4827 70.3114 21.928V12.712C70.3114 12.1573 70.1727 11.7733 69.8954 11.56C69.6394 11.3253 68.9674 11.1013 67.8794 10.888L68.0714 9.864L72.1994 9.448C72.3487 9.448 72.498 9.74667 72.6474 10.344C72.818 10.9413 72.9034 11.464 72.9034 11.912V12.104L73.1594 12.2L73.5434 11.752C74.8874 10.1733 76.53 9.384 78.4714 9.384C79.8367 9.384 80.914 9.8 81.7034 10.632C82.4927 11.4427 82.8874 12.584 82.8874 14.056V22.696C82.8874 22.952 82.9407 23.1227 83.0474 23.208C83.1754 23.272 83.3354 23.3253 83.5274 23.368L85.0954 23.752L84.9674 25H78.1194L77.9274 23.752C78.8874 23.56 79.474 23.3467 79.6874 23.112C79.9007 22.8773 80.0074 22.4827 80.0074 21.928V15.016C80.0074 14.0133 79.826 13.2133 79.4634 12.616C79.1007 11.9973 78.386 11.688 77.3194 11.688C76.274 11.688 75.1327 12.104 73.8954 12.936C73.7034 13.064 73.5647 13.16 73.4794 13.224C73.2874 13.4373 73.1914 13.832 73.1914 14.408V22.664C73.1914 22.8987 73.2234 23.0587 73.2874 23.144C73.3727 23.2293 73.554 23.304 73.8314 23.368L75.2394 23.752L75.1114 25H68.2634ZM88.9259 25L88.7339 23.752C89.7792 23.5387 90.4085 23.3253 90.6219 23.112C90.8565 22.8773 90.9739 22.4827 90.9739 21.928V12.744C90.9739 12.296 90.8032 11.976 90.4619 11.784C90.1205 11.5707 89.4805 11.368 88.5419 11.176L88.7339 10.152C91.0165 9.85333 92.6059 9.704 93.5019 9.704L93.8539 10.024V22.696C93.8539 22.952 93.9072 23.1227 94.0139 23.208C94.1419 23.272 94.3019 23.3253 94.4939 23.368L96.0619 23.752L95.9339 25H88.9259ZM93.8859 4.008C93.8859 4.54133 93.7152 4.98933 93.3739 5.352C93.0539 5.71467 92.6165 5.896 92.0619 5.896C91.5285 5.896 91.0805 5.736 90.7179 5.416C90.3765 5.096 90.2059 4.65867 90.2059 4.104C90.2059 3.528 90.3659 3.06933 90.6859 2.728C91.0272 2.38667 91.4859 2.216 92.0619 2.216C93.2779 2.216 93.8859 2.81333 93.8859 4.008ZM100.432 25L100.24 23.752C101.285 23.5387 101.915 23.3253 102.128 23.112C102.363 22.8773 102.48 22.4827 102.48 21.928V12.712C102.48 12.1573 102.341 11.7733 102.064 11.56C101.808 11.3253 101.136 11.1013 100.048 10.888L100.24 9.864L104.368 9.448C104.517 9.448 104.667 9.74667 104.816 10.344C104.987 10.9413 105.072 11.464 105.072 11.912V12.104L105.328 12.2L105.712 11.752C107.056 10.1733 108.699 9.384 110.64 9.384C112.005 9.384 113.083 9.8 113.872 10.632C114.661 11.4427 115.056 12.584 115.056 14.056V22.696C115.056 22.952 115.109 23.1227 115.216 23.208C115.344 23.272 115.504 23.3253 115.696 23.368L117.264 23.752L117.136 25H110.288L110.096 23.752C111.056 23.56 111.643 23.3467 111.856 23.112C112.069 22.8773 112.176 22.4827 112.176 21.928V15.016C112.176 14.0133 111.995 13.2133 111.632 12.616C111.269 11.9973 110.555 11.688 109.488 11.688C108.443 11.688 107.301 12.104 106.064 12.936C105.872 13.064 105.733 13.16 105.648 13.224C105.456 13.4373 105.36 13.832 105.36 14.408V22.664C105.36 22.8987 105.392 23.0587 105.456 23.144C105.541 23.2293 105.723 23.304 106 23.368L107.408 23.752L107.28 25H100.432ZM124.711 25.768C124.113 26.4293 123.815 27.144 123.815 27.912C123.815 28.68 124.135 29.288 124.775 29.736C125.415 30.184 126.503 30.408 128.039 30.408C129.596 30.408 130.801 30.088 131.655 29.448C132.508 28.808 132.935 28.168 132.935 27.528C132.935 26.888 132.583 26.4933 131.879 26.344C131.175 26.216 130.055 26.1413 128.519 26.12C127.004 26.0987 125.735 25.9813 124.711 25.768ZM121.959 23.048C121.959 22.1947 122.279 21.3733 122.919 20.584C123.367 20.0293 123.879 19.528 124.455 19.08C124.135 18.9307 123.836 18.7493 123.559 18.536C122.492 17.6827 121.959 16.4027 121.959 14.696C121.959 12.968 122.545 11.656 123.719 10.76C124.892 9.84267 126.353 9.384 128.103 9.384C129.66 9.384 130.951 9.71467 131.975 10.376C133.361 9.71467 134.705 9.36267 136.007 9.32C136.22 9.68267 136.327 10.12 136.327 10.632C136.327 11.1227 136.295 11.464 136.231 11.656C135.505 11.4853 134.748 11.4 133.959 11.4C133.639 11.4 133.351 11.4 133.095 11.4C133.692 12.2107 133.991 13.256 133.991 14.536C133.991 16.2427 133.404 17.5547 132.231 18.472C131.057 19.368 129.596 19.816 127.847 19.816C126.865 19.816 126.001 19.688 125.255 19.432C124.615 20.2 124.295 20.936 124.295 21.64C124.295 22.28 124.657 22.664 125.383 22.792C126.023 22.8987 126.737 22.952 127.527 22.952C128.337 22.952 128.956 22.9627 129.383 22.984C129.831 22.984 130.396 23.016 131.079 23.08C131.761 23.144 132.295 23.2507 132.679 23.4C133.084 23.5493 133.5 23.7413 133.927 23.976C134.716 24.424 135.111 25.2133 135.111 26.344C135.111 27.88 134.343 29.2027 132.807 30.312C131.271 31.4427 129.201 32.008 126.599 32.008C123.1 32.008 121.351 31.0053 121.351 29C121.351 28.2747 121.553 27.6453 121.959 27.112C122.385 26.6 122.993 26.056 123.783 25.48C122.567 25.096 121.959 24.2853 121.959 23.048ZM128.071 18.248C130.055 18.248 131.047 17.032 131.047 14.6C131.047 12.168 129.991 10.952 127.879 10.952C125.895 10.952 124.903 12.168 124.903 14.6C124.903 17.032 125.959 18.248 128.071 18.248ZM152.577 22.376C152.94 22.632 153.526 22.888 154.337 23.144C155.169 23.3787 156.097 23.496 157.121 23.496C158.145 23.496 158.998 23.1867 159.681 22.568C160.364 21.9493 160.705 21.1173 160.705 20.072C160.705 18.4507 159.788 17.128 157.953 16.104C157.484 15.8693 156.758 15.5493 155.777 15.144C154.796 14.7173 154.102 14.408 153.697 14.216C153.292 14.0027 152.812 13.7147 152.257 13.352C151.724 12.968 151.308 12.584 151.009 12.2C150.262 11.2827 149.889 10.1627 149.889 8.84C149.889 6.89867 150.604 5.36267 152.033 4.232C153.484 3.10133 155.361 2.536 157.665 2.536C159.414 2.536 161.057 2.824 162.593 3.4C162.657 3.912 162.689 4.59467 162.689 5.448C162.689 6.28 162.572 7.4 162.337 8.808L160.481 9.032C160.246 6.62133 159.958 5.27733 159.617 5C159.105 4.552 158.166 4.328 156.801 4.328C155.457 4.328 154.412 4.60533 153.665 5.16C152.918 5.69333 152.545 6.48267 152.545 7.528C152.545 8.12533 152.662 8.65867 152.897 9.128C153.132 9.59733 153.558 10.0347 154.177 10.44C154.796 10.8453 155.286 11.1333 155.649 11.304C156.182 11.5813 156.929 11.9227 157.889 12.328C158.849 12.7333 159.596 13.0853 160.129 13.384C160.662 13.6827 161.238 14.0773 161.857 14.568C163.052 15.5707 163.649 17.0213 163.649 18.92C163.649 20.8187 162.966 22.3547 161.601 23.528C160.257 24.7013 158.412 25.288 156.065 25.288C154.806 25.288 153.548 25.1387 152.289 24.84C151.052 24.52 150.145 24.2107 149.569 23.912C149.505 23.656 149.473 23.048 149.473 22.088C149.473 21.128 149.601 19.9653 149.857 18.6L151.681 18.504C151.852 20.04 151.99 21.032 152.097 21.48C152.225 21.928 152.385 22.2267 152.577 22.376ZM174.575 25.288C172.42 25.288 170.746 24.552 169.551 23.08C168.378 21.608 167.791 19.752 167.791 17.512C167.791 15.2507 168.474 13.3307 169.839 11.752C171.204 10.1733 173.007 9.384 175.247 9.384C178.874 9.384 180.772 11.6133 180.943 16.072L180.111 16.68L170.831 17.192C170.831 21.1387 172.516 23.112 175.887 23.112C177.359 23.112 178.799 22.7493 180.207 22.024L180.879 23.08C180.175 23.656 179.258 24.168 178.127 24.616C176.996 25.064 175.812 25.288 174.575 25.288ZM170.927 15.72L177.551 15.144C177.764 15.1227 177.871 14.92 177.871 14.536C177.871 13.5973 177.615 12.7867 177.103 12.104C176.612 11.4213 175.77 11.08 174.575 11.08C173.38 11.08 172.506 11.4853 171.951 12.296C171.418 13.0853 171.076 14.2267 170.927 15.72ZM184.864 25L184.672 23.752C185.803 23.56 186.496 23.3467 186.752 23.112C187.008 22.8773 187.136 22.4827 187.136 21.928V12.712C187.136 12.1573 186.987 11.7627 186.688 11.528C186.411 11.272 185.675 11.0587 184.48 10.888L184.672 9.864L189.024 9.448C189.174 9.448 189.334 9.66133 189.504 10.088C189.675 10.5147 189.76 10.9627 189.76 11.432C189.76 11.88 189.718 12.4027 189.632 13L189.888 13.096L190.304 12.168C190.688 11.3147 191.264 10.6427 192.032 10.152C192.822 9.64 193.611 9.384 194.4 9.384C195.211 9.384 195.958 9.55467 196.64 9.896C196.64 11.6453 196.48 13.3947 196.16 15.144L194.592 15.304C194.422 13.512 194.251 12.4987 194.08 12.264C193.91 12.008 193.622 11.88 193.216 11.88C192.832 11.88 192.374 12.0613 191.84 12.424C191.307 12.7653 190.87 13.1387 190.528 13.544C190.187 13.928 190.016 14.568 190.016 15.464V22.696C190.016 22.9733 190.07 23.1547 190.176 23.24C190.304 23.304 190.464 23.3467 190.656 23.368L193.568 23.752L193.44 25H184.864ZM205.749 25.288L200.693 12.264C200.544 11.8587 200.394 11.6027 200.245 11.496C200.096 11.3893 199.68 11.2613 198.997 11.112L199.189 9.864H205.781L205.909 11.112L203.957 11.592C203.808 11.6133 203.733 11.6987 203.733 11.848C203.733 11.8693 203.776 12.008 203.861 12.264L206.741 20.328C206.997 21.0747 207.125 21.6613 207.125 22.088H207.381L210.933 13C211.061 12.6587 211.125 12.3813 211.125 12.168C211.125 11.9333 210.965 11.7413 210.645 11.592C210.346 11.4427 209.802 11.2827 209.013 11.112L209.205 9.864H214.901L215.029 11.112C214.346 11.2827 213.93 11.4 213.781 11.464C213.632 11.5067 213.546 11.5707 213.525 11.656L207.829 25.288H205.749ZM217.976 25L217.784 23.752C218.829 23.5387 219.459 23.3253 219.672 23.112C219.907 22.8773 220.024 22.4827 220.024 21.928V12.744C220.024 12.296 219.853 11.976 219.512 11.784C219.171 11.5707 218.531 11.368 217.592 11.176L217.784 10.152C220.067 9.85333 221.656 9.704 222.552 9.704L222.904 10.024V22.696C222.904 22.952 222.957 23.1227 223.064 23.208C223.192 23.272 223.352 23.3253 223.544 23.368L225.112 23.752L224.984 25H217.976ZM222.936 4.008C222.936 4.54133 222.765 4.98933 222.424 5.352C222.104 5.71467 221.667 5.896 221.112 5.896C220.579 5.896 220.131 5.736 219.768 5.416C219.427 5.096 219.256 4.65867 219.256 4.104C219.256 3.528 219.416 3.06933 219.736 2.728C220.077 2.38667 220.536 2.216 221.112 2.216C222.328 2.216 222.936 2.81333 222.936 4.008ZM230.602 12.072C231.135 11.24 231.914 10.5893 232.938 10.12C233.983 9.62933 235.263 9.384 236.778 9.384C238.314 9.384 239.829 9.68267 241.322 10.28C241.343 10.4507 241.354 11.0053 241.354 11.944C241.354 12.8613 241.226 13.768 240.97 14.664L239.178 14.856C238.837 12.7013 238.517 11.56 238.218 11.432C237.77 11.24 236.97 11.144 235.818 11.144C234.666 11.144 233.823 11.5387 233.29 12.328C232.543 13.4587 232.17 15.0693 232.17 17.16C232.17 19.2293 232.618 20.744 233.514 21.704C234.431 22.6427 235.615 23.112 237.066 23.112C238.538 23.112 239.957 22.6427 241.322 21.704L242.218 22.76C240.49 24.4453 238.453 25.288 236.106 25.288C233.781 25.288 232.021 24.5627 230.826 23.112C229.653 21.64 229.066 19.8267 229.066 17.672C229.066 15.496 229.578 13.6293 230.602 12.072ZM252.419 25.288C250.264 25.288 248.59 24.552 247.395 23.08C246.222 21.608 245.635 19.752 245.635 17.512C245.635 15.2507 246.318 13.3307 247.683 11.752C249.048 10.1733 250.851 9.384 253.091 9.384C256.718 9.384 258.616 11.6133 258.787 16.072L257.955 16.68L248.675 17.192C248.675 21.1387 250.36 23.112 253.731 23.112C255.203 23.112 256.643 22.7493 258.051 22.024L258.723 23.08C258.019 23.656 257.102 24.168 255.971 24.616C254.84 25.064 253.656 25.288 252.419 25.288ZM248.771 15.72L255.395 15.144C255.608 15.1227 255.715 14.92 255.715 14.536C255.715 13.5973 255.459 12.7867 254.947 12.104C254.456 11.4213 253.614 11.08 252.419 11.08C251.224 11.08 250.35 11.4853 249.795 12.296C249.262 13.0853 248.92 14.2267 248.771 15.72Z" fill="#71CBFF"/>
</svg>
