<svg width="173" height="15" viewBox="0 0 173 15" fill="none" xmlns="http://www.w3.org/2000/svg">
<path d="M80.935 9.265C80.935 10.235 81.15 10.96 81.58 11.44C82.02 11.91 82.61 12.145 83.35 12.145C84.08 12.145 84.65 11.91 85.06 11.44C85.47 10.97 85.675 10.265 85.675 9.325C85.675 8.325 85.455 7.58 85.015 7.09C84.585 6.6 83.995 6.355 83.245 6.355C82.495 6.355 81.92 6.6 81.52 7.09C81.13 7.57 80.935 8.295 80.935 9.265ZM79.66 9.25C79.66 8.49 79.78 7.86 80.02 7.36C80.26 6.85 80.565 6.445 80.935 6.145C81.305 5.835 81.7 5.62 82.12 5.5C82.55 5.37 82.955 5.305 83.335 5.305C83.695 5.305 84.085 5.365 84.505 5.485C84.935 5.595 85.33 5.8 85.69 6.1C86.05 6.39 86.35 6.785 86.59 7.285C86.83 7.775 86.95 8.4 86.95 9.16C86.95 9.95 86.825 10.605 86.575 11.125C86.335 11.645 86.03 12.06 85.66 12.37C85.29 12.67 84.89 12.88 84.46 13C84.03 13.13 83.63 13.195 83.26 13.195C82.88 13.195 82.48 13.135 82.06 13.015C81.64 12.895 81.25 12.69 80.89 12.4C80.54 12.1 80.245 11.695 80.005 11.185C79.775 10.675 79.66 10.03 79.66 9.25ZM88.3333 6.67C88.3333 6.44 88.3083 6.08 88.2583 5.59L89.3683 5.44L89.4883 6.535H89.5033C89.6833 6.305 89.8583 6.105 90.0283 5.935C90.1983 5.765 90.3733 5.62 90.5533 5.5C90.7433 5.37 90.9233 5.305 91.0933 5.305C91.3233 5.295 91.6433 5.32 92.0533 5.38L91.7833 6.535C91.4533 6.475 91.2233 6.45 91.0933 6.46C90.9233 6.46 90.7433 6.54 90.5533 6.7C90.3633 6.86 90.1983 7.03 90.0583 7.21C89.8783 7.43 89.7033 7.68 89.5333 7.96V13H88.3333V6.67Z" fill="#486484"/>
<path opacity="0.0618257" d="M1.2013 9L63 9.5" stroke="#486484" stroke-linecap="square"/>
<path opacity="0.0618257" d="M110.101 9.75L171.899 10.25" stroke="#486484" stroke-linecap="square"/>
</svg>
