<svg width="236" height="25" viewBox="0 0 236 25" fill="none" xmlns="http://www.w3.org/2000/svg">
<path d="M17.6432 1.12V21H13.8072V12.516H4.79123V21H0.927232V1.12H4.79123V9.156H13.8072V1.12H17.6432ZM27.7044 21.28C26.5284 21.28 25.4644 21.084 24.5124 20.692C23.5604 20.2813 22.7484 19.7307 22.0764 19.04C21.4044 18.3307 20.8818 17.528 20.5084 16.632C20.1538 15.7173 19.9764 14.756 19.9764 13.748C19.9764 12.348 20.2844 11.0693 20.9004 9.912C21.5351 8.75467 22.4311 7.83067 23.5884 7.14C24.7644 6.43067 26.1458 6.076 27.7324 6.076C29.3378 6.076 30.7098 6.43067 31.8484 7.14C32.9871 7.83067 33.8551 8.75467 34.4524 9.912C35.0684 11.0507 35.3764 12.2827 35.3764 13.608C35.3764 13.832 35.3671 14.0653 35.3484 14.308C35.3298 14.532 35.3111 14.7187 35.2924 14.868H23.9524C24.0271 15.6147 24.2418 16.268 24.5964 16.828C24.9698 17.388 25.4364 17.8173 25.9964 18.116C26.5751 18.396 27.1911 18.536 27.8444 18.536C28.5911 18.536 29.2911 18.3587 29.9444 18.004C30.6164 17.6307 31.0738 17.1453 31.3164 16.548L34.5364 17.444C34.1818 18.1907 33.6684 18.8533 32.9964 19.432C32.3431 20.0107 31.5684 20.468 30.6724 20.804C29.7764 21.1213 28.7871 21.28 27.7044 21.28ZM23.8684 12.488H31.5404C31.4658 11.7413 31.2511 11.0973 30.8964 10.556C30.5604 9.996 30.1124 9.56667 29.5524 9.268C28.9924 8.95067 28.3671 8.792 27.6764 8.792C27.0044 8.792 26.3884 8.95067 25.8284 9.268C25.2871 9.56667 24.8391 9.996 24.4844 10.556C24.1484 11.0973 23.9431 11.7413 23.8684 12.488ZM37.3541 0.559999H41.1061V16.296C41.1061 16.968 41.2181 17.4253 41.4421 17.668C41.6661 17.892 41.9741 18.004 42.3661 18.004C42.6648 18.004 42.9728 17.9667 43.2901 17.892C43.6075 17.8173 43.8875 17.724 44.1301 17.612L44.6341 20.468C44.1301 20.7107 43.5421 20.8973 42.8701 21.028C42.1981 21.1587 41.5915 21.224 41.0501 21.224C39.8741 21.224 38.9595 20.916 38.3061 20.3C37.6715 19.6653 37.3541 18.7693 37.3541 17.612V0.559999ZM45.9609 0.559999H49.7129V16.296C49.7129 16.968 49.8249 17.4253 50.0489 17.668C50.2729 17.892 50.5809 18.004 50.9729 18.004C51.2715 18.004 51.5795 17.9667 51.8969 17.892C52.2142 17.8173 52.4942 17.724 52.7369 17.612L53.2409 20.468C52.7369 20.7107 52.1489 20.8973 51.4769 21.028C50.8049 21.1587 50.1982 21.224 49.6569 21.224C48.4809 21.224 47.5662 20.916 46.9129 20.3C46.2782 19.6653 45.9609 18.7693 45.9609 17.612V0.559999ZM61.3716 21.28C60.1769 21.28 59.1036 21.084 58.1516 20.692C57.1996 20.2813 56.3876 19.7213 55.7156 19.012C55.0622 18.3027 54.5582 17.4907 54.2036 16.576C53.8489 15.6613 53.6716 14.7 53.6716 13.692C53.6716 12.6653 53.8489 11.6947 54.2036 10.78C54.5582 9.86533 55.0622 9.05333 55.7156 8.344C56.3876 7.63467 57.1996 7.084 58.1516 6.692C59.1036 6.28133 60.1769 6.076 61.3716 6.076C62.5662 6.076 63.6302 6.28133 64.5636 6.692C65.5156 7.084 66.3276 7.63467 66.9996 8.344C67.6716 9.05333 68.1756 9.86533 68.5116 10.78C68.8662 11.6947 69.0436 12.6653 69.0436 13.692C69.0436 14.7 68.8662 15.6613 68.5116 16.576C68.1756 17.4907 67.6716 18.3027 66.9996 19.012C66.3462 19.7213 65.5436 20.2813 64.5916 20.692C63.6396 21.084 62.5662 21.28 61.3716 21.28ZM57.5356 13.692C57.5356 14.5507 57.7036 15.316 58.0396 15.988C58.3756 16.6413 58.8329 17.1547 59.4116 17.528C59.9902 17.9013 60.6436 18.088 61.3716 18.088C62.0809 18.088 62.7249 17.9013 63.3036 17.528C63.8822 17.136 64.3396 16.6133 64.6756 15.96C65.0302 15.288 65.2076 14.5227 65.2076 13.664C65.2076 12.824 65.0302 12.068 64.6756 11.396C64.3396 10.724 63.8822 10.2013 63.3036 9.828C62.7249 9.45467 62.0809 9.268 61.3716 9.268C60.6436 9.268 59.9902 9.464 59.4116 9.856C58.8329 10.2293 58.3756 10.752 58.0396 11.424C57.7036 12.0773 57.5356 12.8333 57.5356 13.692ZM71.3313 24.22L72.0873 20.888H70.9113V16.968H74.1593V20.888L73.0113 24.22H71.3313ZM100.246 21V7.952L95.1496 17.668H92.9936L87.8976 7.952V21H84.0336V1.12H88.1776L94.0576 12.432L99.9936 1.12H104.11V21H100.246ZM114.146 21.28C112.951 21.28 111.878 21.084 110.926 20.692C109.974 20.2813 109.162 19.7213 108.49 19.012C107.837 18.3027 107.333 17.4907 106.978 16.576C106.623 15.6613 106.446 14.7 106.446 13.692C106.446 12.6653 106.623 11.6947 106.978 10.78C107.333 9.86533 107.837 9.05333 108.49 8.344C109.162 7.63467 109.974 7.084 110.926 6.692C111.878 6.28133 112.951 6.076 114.146 6.076C115.341 6.076 116.405 6.28133 117.338 6.692C118.29 7.084 119.102 7.63467 119.774 8.344C120.446 9.05333 120.95 9.86533 121.286 10.78C121.641 11.6947 121.818 12.6653 121.818 13.692C121.818 14.7 121.641 15.6613 121.286 16.576C120.95 17.4907 120.446 18.3027 119.774 19.012C119.121 19.7213 118.318 20.2813 117.366 20.692C116.414 21.084 115.341 21.28 114.146 21.28ZM110.31 13.692C110.31 14.5507 110.478 15.316 110.814 15.988C111.15 16.6413 111.607 17.1547 112.186 17.528C112.765 17.9013 113.418 18.088 114.146 18.088C114.855 18.088 115.499 17.9013 116.078 17.528C116.657 17.136 117.114 16.6133 117.45 15.96C117.805 15.288 117.982 14.5227 117.982 13.664C117.982 12.824 117.805 12.068 117.45 11.396C117.114 10.724 116.657 10.2013 116.078 9.828C115.499 9.45467 114.855 9.268 114.146 9.268C113.418 9.268 112.765 9.464 112.186 9.856C111.607 10.2293 111.15 10.752 110.814 11.424C110.478 12.0773 110.31 12.8333 110.31 13.692ZM137.707 21H133.955V12.768C133.955 11.6293 133.731 10.78 133.283 10.22C132.853 9.66 132.256 9.38 131.491 9.38C131.043 9.38 130.567 9.51067 130.063 9.772C129.559 10.0333 129.101 10.3973 128.691 10.864C128.299 11.312 128.009 11.8347 127.823 12.432V21H124.071V0.559999H127.823V9.044C128.364 8.11067 129.101 7.38267 130.035 6.86C130.968 6.33733 131.985 6.076 133.087 6.076C134.039 6.076 134.813 6.244 135.411 6.58C136.008 6.89733 136.475 7.336 136.811 7.896C137.147 8.43733 137.38 9.05333 137.511 9.744C137.641 10.416 137.707 11.116 137.707 11.844V21ZM139.681 16.66C139.681 15.708 139.942 14.8773 140.465 14.168C141.006 13.44 141.753 12.88 142.705 12.488C143.657 12.096 144.749 11.9 145.981 11.9C146.597 11.9 147.222 11.9467 147.857 12.04C148.492 12.1333 149.042 12.2827 149.509 12.488V11.704C149.509 10.7707 149.229 10.052 148.669 9.548C148.128 9.044 147.316 8.792 146.233 8.792C145.43 8.792 144.665 8.932 143.937 9.212C143.209 9.492 142.444 9.90267 141.641 10.444L140.437 7.98C141.408 7.34533 142.397 6.86933 143.405 6.552C144.432 6.23467 145.505 6.076 146.625 6.076C148.716 6.076 150.34 6.59867 151.497 7.644C152.673 8.68933 153.261 10.1827 153.261 12.124V16.8C153.261 17.192 153.326 17.472 153.457 17.64C153.606 17.808 153.84 17.9107 154.157 17.948V21C153.821 21.056 153.513 21.1027 153.233 21.14C152.972 21.1773 152.748 21.196 152.561 21.196C151.814 21.196 151.245 21.028 150.853 20.692C150.48 20.356 150.246 19.9453 150.153 19.46L150.069 18.704C149.434 19.5253 148.641 20.16 147.689 20.608C146.737 21.056 145.766 21.28 144.777 21.28C143.806 21.28 142.929 21.084 142.145 20.692C141.38 20.2813 140.773 19.7307 140.325 19.04C139.896 18.3307 139.681 17.5373 139.681 16.66ZM148.809 17.416C149.014 17.192 149.182 16.968 149.313 16.744C149.444 16.52 149.509 16.3147 149.509 16.128V14.644C149.061 14.4573 148.576 14.3173 148.053 14.224C147.53 14.112 147.036 14.056 146.569 14.056C145.598 14.056 144.796 14.2707 144.161 14.7C143.545 15.1107 143.237 15.6613 143.237 16.352C143.237 16.7253 143.34 17.08 143.545 17.416C143.75 17.752 144.049 18.0227 144.441 18.228C144.833 18.4333 145.3 18.536 145.841 18.536C146.401 18.536 146.952 18.4333 147.493 18.228C148.034 18.004 148.473 17.7333 148.809 17.416ZM179.279 21H175.527V12.768C175.527 11.6107 175.322 10.7613 174.911 10.22C174.519 9.66 173.968 9.38 173.259 9.38C172.531 9.38 171.831 9.66933 171.159 10.248C170.506 10.808 170.039 11.5453 169.759 12.46V21H166.007V12.768C166.007 11.592 165.802 10.7333 165.391 10.192C164.999 9.65067 164.448 9.38 163.739 9.38C163.011 9.38 162.311 9.66 161.639 10.22C160.986 10.78 160.519 11.5173 160.239 12.432V21H156.487V6.328H159.875V9.044C160.435 8.092 161.182 7.364 162.115 6.86C163.048 6.33733 164.122 6.076 165.335 6.076C166.548 6.076 167.491 6.37467 168.163 6.972C168.854 7.56933 169.292 8.30667 169.479 9.184C170.076 8.176 170.832 7.41067 171.747 6.888C172.68 6.34667 173.726 6.076 174.883 6.076C175.798 6.076 176.535 6.244 177.095 6.58C177.674 6.89733 178.122 7.336 178.439 7.896C178.756 8.43733 178.971 9.05333 179.083 9.744C179.214 10.4347 179.279 11.1347 179.279 11.844V21ZM189.07 21.28C187.894 21.28 186.83 21.084 185.878 20.692C184.926 20.2813 184.114 19.7307 183.442 19.04C182.77 18.3307 182.247 17.528 181.874 16.632C181.519 15.7173 181.342 14.756 181.342 13.748C181.342 12.348 181.65 11.0693 182.266 9.912C182.9 8.75467 183.796 7.83067 184.954 7.14C186.13 6.43067 187.511 6.076 189.098 6.076C190.703 6.076 192.075 6.43067 193.214 7.14C194.352 7.83067 195.22 8.75467 195.818 9.912C196.434 11.0507 196.742 12.2827 196.742 13.608C196.742 13.832 196.732 14.0653 196.714 14.308C196.695 14.532 196.676 14.7187 196.658 14.868H185.318C185.392 15.6147 185.607 16.268 185.962 16.828C186.335 17.388 186.802 17.8173 187.362 18.116C187.94 18.396 188.556 18.536 189.21 18.536C189.956 18.536 190.656 18.3587 191.31 18.004C191.982 17.6307 192.439 17.1453 192.682 16.548L195.902 17.444C195.547 18.1907 195.034 18.8533 194.362 19.432C193.708 20.0107 192.934 20.468 192.038 20.804C191.142 21.1213 190.152 21.28 189.07 21.28ZM185.234 12.488H192.906C192.831 11.7413 192.616 11.0973 192.262 10.556C191.926 9.996 191.478 9.56667 190.918 9.268C190.358 8.95067 189.732 8.792 189.042 8.792C188.37 8.792 187.754 8.95067 187.194 9.268C186.652 9.56667 186.204 9.996 185.85 10.556C185.514 11.0973 185.308 11.7413 185.234 12.488ZM197.851 13.664C197.851 12.2453 198.131 10.9667 198.691 9.828C199.251 8.67067 200.026 7.756 201.015 7.084C202.005 6.412 203.134 6.076 204.403 6.076C205.486 6.076 206.457 6.34667 207.315 6.888C208.193 7.41067 208.874 8.08267 209.359 8.904V0.559999H213.111V16.8C213.111 17.192 213.177 17.472 213.307 17.64C213.438 17.808 213.662 17.9107 213.979 17.948V21C213.326 21.1307 212.794 21.196 212.383 21.196C211.711 21.196 211.151 21.028 210.703 20.692C210.274 20.356 210.031 19.9173 209.975 19.376L209.919 18.452C209.378 19.3667 208.641 20.0667 207.707 20.552C206.793 21.0373 205.831 21.28 204.823 21.28C203.815 21.28 202.882 21.084 202.023 20.692C201.183 20.3 200.446 19.7587 199.811 19.068C199.195 18.3773 198.71 17.5747 198.355 16.66C198.019 15.7267 197.851 14.728 197.851 13.664ZM209.359 15.624V12.124C209.173 11.5827 208.874 11.0973 208.463 10.668C208.053 10.2387 207.595 9.90267 207.091 9.66C206.587 9.39867 206.083 9.268 205.579 9.268C205.001 9.268 204.478 9.38933 204.011 9.632C203.545 9.87467 203.134 10.2013 202.779 10.612C202.443 11.0227 202.182 11.4987 201.995 12.04C201.827 12.5813 201.743 13.1507 201.743 13.748C201.743 14.3453 201.837 14.9147 202.023 15.456C202.229 15.9787 202.518 16.436 202.891 16.828C203.265 17.22 203.694 17.528 204.179 17.752C204.683 17.976 205.225 18.088 205.803 18.088C206.158 18.088 206.513 18.032 206.867 17.92C207.241 17.7893 207.586 17.6213 207.903 17.416C208.239 17.192 208.529 16.9307 208.771 16.632C209.033 16.3147 209.229 15.9787 209.359 15.624ZM223.689 13.524V0.924H227.441V13.524H223.689ZM223.689 21V16.772H227.441V21H223.689ZM231.995 13.524V0.924H235.747V13.524H231.995ZM231.995 21V16.772H235.747V21H231.995Z" fill="#202020"/>
</svg>
