<svg width="280" height="45" viewBox="0 0 280 45" fill="none" xmlns="http://www.w3.org/2000/svg">
<path d="M0.000972763 0.604999H5.07397C6.46731 0.604999 7.54397 0.940666 8.30397 1.612C9.07664 2.28333 9.46297 3.23333 9.46297 4.462C9.46297 5.70333 9.07664 6.666 8.30397 7.35C7.53131 8.02133 6.45464 8.357 5.07397 8.357H1.17897V14H0.000972763V0.604999ZM4.99797 7.35C7.18931 7.35 8.28497 6.38733 8.28497 4.462C8.28497 2.562 7.18931 1.612 4.99797 1.612H1.17897V7.35H4.99797ZM11.9082 14V0.604999H13.0672V14H11.9082ZM23.7011 9.535H16.7281C16.7661 10.6877 17.0701 11.5743 17.6401 12.195C18.2101 12.803 19.0208 13.107 20.0721 13.107C21.1868 13.107 22.1938 12.727 23.0931 11.967L23.5491 12.879C23.1438 13.259 22.6244 13.563 21.9911 13.791C21.3704 14.019 20.7308 14.133 20.0721 14.133C18.6661 14.133 17.5578 13.7087 16.7471 12.86C15.9364 12.0113 15.5311 10.846 15.5311 9.364C15.5311 8.414 15.7084 7.578 16.0631 6.856C16.4304 6.12133 16.9371 5.55767 17.5831 5.165C18.2418 4.75967 18.9954 4.557 19.8441 4.557C21.0474 4.557 21.9911 4.94967 22.6751 5.735C23.3591 6.52033 23.7011 7.616 23.7011 9.022V9.535ZM19.8441 5.507C18.9574 5.507 18.2481 5.78567 17.7161 6.343C17.1841 6.90033 16.8674 7.67933 16.7661 8.68H22.6371C22.6118 7.66667 22.3584 6.88767 21.8771 6.343C21.3958 5.78567 20.7181 5.507 19.8441 5.507ZM29.7691 4.557C30.8837 4.557 31.7134 4.84833 32.2581 5.431C32.8154 6.01367 33.0941 6.894 33.0941 8.072V14H31.9541V12.347C31.6881 12.917 31.3017 13.3603 30.7951 13.677C30.2884 13.981 29.7057 14.133 29.0471 14.133C28.4517 14.133 27.9071 14.0127 27.4131 13.772C26.9191 13.5313 26.5264 13.1957 26.2351 12.765C25.9564 12.3343 25.8171 11.8593 25.8171 11.34C25.8171 10.656 25.9944 10.124 26.3491 9.744C26.7037 9.364 27.2927 9.09167 28.1161 8.927C28.9394 8.76233 30.0857 8.68 31.5551 8.68H31.9541V7.977C31.9541 7.141 31.7831 6.533 31.4411 6.153C31.0991 5.76033 30.5607 5.564 29.8261 5.564C29.2687 5.564 28.7304 5.64633 28.2111 5.811C27.7044 5.963 27.1787 6.21633 26.6341 6.571L26.1971 5.678C26.6657 5.336 27.2231 5.06367 27.8691 4.861C28.5151 4.65833 29.1484 4.557 29.7691 4.557ZM29.1421 13.126C29.9654 13.126 30.6367 12.8473 31.1561 12.29C31.6881 11.7327 31.9541 11.0233 31.9541 10.162V9.535H31.5931C30.3771 9.535 29.4461 9.58567 28.8001 9.687C28.1541 9.78833 27.6981 9.96567 27.4321 10.219C27.1661 10.4597 27.0331 10.8143 27.0331 11.283C27.0331 11.815 27.2357 12.2583 27.6411 12.613C28.0464 12.955 28.5467 13.126 29.1421 13.126ZM39.1241 14.133C37.6674 14.133 36.4767 13.7213 35.5521 12.898L35.9891 12.005C36.4831 12.4103 36.9771 12.7017 37.4711 12.879C37.9651 13.0437 38.5351 13.126 39.1811 13.126C39.9284 13.126 40.4984 12.993 40.8911 12.727C41.2964 12.461 41.4991 12.0873 41.4991 11.606C41.4991 11.2007 41.3661 10.8777 41.1001 10.637C40.8341 10.3837 40.4097 10.1937 39.8271 10.067L38.2691 9.706C37.5217 9.52867 36.9327 9.22467 36.5021 8.794C36.0841 8.35067 35.8751 7.83133 35.8751 7.236C35.8751 6.438 36.1854 5.792 36.8061 5.298C37.4267 4.804 38.2564 4.557 39.2951 4.557C39.9411 4.557 40.5427 4.66467 41.1001 4.88C41.6701 5.08267 42.1387 5.38033 42.5061 5.773L42.0691 6.666C41.6384 6.286 41.1951 6.00733 40.7391 5.83C40.2957 5.65267 39.8144 5.564 39.2951 5.564C38.5984 5.564 38.0537 5.70333 37.6611 5.982C37.2684 6.26067 37.0721 6.647 37.0721 7.141C37.0721 7.54633 37.1924 7.87567 37.4331 8.129C37.6864 8.38233 38.0727 8.57233 38.5921 8.699L40.1691 9.079C41.8411 9.459 42.6771 10.2823 42.6771 11.549C42.6771 12.3343 42.3541 12.9613 41.7081 13.43C41.0747 13.8987 40.2134 14.133 39.1241 14.133ZM52.7763 9.535H45.8033C45.8413 10.6877 46.1453 11.5743 46.7153 12.195C47.2853 12.803 48.096 13.107 49.1473 13.107C50.262 13.107 51.269 12.727 52.1683 11.967L52.6243 12.879C52.219 13.259 51.6996 13.563 51.0663 13.791C50.4456 14.019 49.806 14.133 49.1473 14.133C47.7413 14.133 46.633 13.7087 45.8223 12.86C45.0116 12.0113 44.6063 10.846 44.6063 9.364C44.6063 8.414 44.7836 7.578 45.1383 6.856C45.5056 6.12133 46.0123 5.55767 46.6583 5.165C47.317 4.75967 48.0706 4.557 48.9193 4.557C50.1226 4.557 51.0663 4.94967 51.7503 5.735C52.4343 6.52033 52.7763 7.616 52.7763 9.022V9.535ZM48.9193 5.507C48.0326 5.507 47.3233 5.78567 46.7913 6.343C46.2593 6.90033 45.9426 7.67933 45.8413 8.68H51.7123C51.687 7.66667 51.4336 6.88767 50.9523 6.343C50.471 5.78567 49.7933 5.507 48.9193 5.507ZM56.5833 12.366V13.563C56.5833 14.0443 56.5073 14.4813 56.3553 14.874C56.2033 15.2793 55.9499 15.6593 55.5953 16.014L54.9873 15.539C55.4433 15.0323 55.6903 14.5193 55.7283 14H54.9683V12.366H56.5833ZM67.1602 14.133C65.7035 14.133 64.5129 13.7213 63.5882 12.898L64.0252 12.005C64.5192 12.4103 65.0132 12.7017 65.5072 12.879C66.0012 13.0437 66.5712 13.126 67.2172 13.126C67.9645 13.126 68.5345 12.993 68.9272 12.727C69.3325 12.461 69.5352 12.0873 69.5352 11.606C69.5352 11.2007 69.4022 10.8777 69.1362 10.637C68.8702 10.3837 68.4459 10.1937 67.8632 10.067L66.3052 9.706C65.5579 9.52867 64.9689 9.22467 64.5382 8.794C64.1202 8.35067 63.9112 7.83133 63.9112 7.236C63.9112 6.438 64.2215 5.792 64.8422 5.298C65.4629 4.804 66.2925 4.557 67.3312 4.557C67.9772 4.557 68.5789 4.66467 69.1362 4.88C69.7062 5.08267 70.1749 5.38033 70.5422 5.773L70.1052 6.666C69.6745 6.286 69.2312 6.00733 68.7752 5.83C68.3319 5.65267 67.8505 5.564 67.3312 5.564C66.6345 5.564 66.0899 5.70333 65.6972 5.982C65.3045 6.26067 65.1082 6.647 65.1082 7.141C65.1082 7.54633 65.2285 7.87567 65.4692 8.129C65.7225 8.38233 66.1089 8.57233 66.6282 8.699L68.2052 9.079C69.8772 9.459 70.7132 10.2823 70.7132 11.549C70.7132 12.3343 70.3902 12.9613 69.7442 13.43C69.1109 13.8987 68.2495 14.133 67.1602 14.133ZM80.8124 9.535H73.8394C73.8774 10.6877 74.1814 11.5743 74.7514 12.195C75.3214 12.803 76.1321 13.107 77.1834 13.107C78.2981 13.107 79.3051 12.727 80.2044 11.967L80.6604 12.879C80.2551 13.259 79.7358 13.563 79.1024 13.791C78.4818 14.019 77.8421 14.133 77.1834 14.133C75.7774 14.133 74.6691 13.7087 73.8584 12.86C73.0478 12.0113 72.6424 10.846 72.6424 9.364C72.6424 8.414 72.8198 7.578 73.1744 6.856C73.5418 6.12133 74.0484 5.55767 74.6944 5.165C75.3531 4.75967 76.1068 4.557 76.9554 4.557C78.1588 4.557 79.1024 4.94967 79.7864 5.735C80.4704 6.52033 80.8124 7.616 80.8124 9.022V9.535ZM76.9554 5.507C76.0688 5.507 75.3594 5.78567 74.8274 6.343C74.2954 6.90033 73.9788 7.67933 73.8774 8.68H79.7484C79.7231 7.66667 79.4698 6.88767 78.9884 6.343C78.5071 5.78567 77.8294 5.507 76.9554 5.507ZM86.9568 13.145C87.2355 13.145 87.5078 13.126 87.7738 13.088L87.7168 14.057C87.4382 14.095 87.1405 14.114 86.8238 14.114C85.7852 14.114 84.9998 13.8353 84.4678 13.278C83.9358 12.708 83.6698 11.9353 83.6698 10.96V5.716H81.8458V4.785H83.6698V1.935H84.8288V4.785H87.5268V5.716H84.8288V10.808C84.8288 11.5807 85.0062 12.1633 85.3608 12.556C85.7282 12.9487 86.2602 13.145 86.9568 13.145ZM96.8967 4.785V14H95.7567V12.347C95.4653 12.9297 95.0473 13.373 94.5027 13.677C93.9707 13.981 93.3627 14.133 92.6787 14.133C91.5893 14.133 90.766 13.8353 90.2087 13.24C89.664 12.632 89.3917 11.739 89.3917 10.561V4.785H90.5507V10.485C90.5507 11.3843 90.728 12.0493 91.0827 12.48C91.45 12.898 92.02 13.107 92.7927 13.107C93.6793 13.107 94.3887 12.8283 94.9207 12.271C95.4653 11.701 95.7377 10.9473 95.7377 10.01V4.785H96.8967ZM104.264 4.557C105.074 4.557 105.79 4.75967 106.411 5.165C107.031 5.55767 107.513 6.12133 107.855 6.856C108.197 7.578 108.368 8.42033 108.368 9.383C108.368 10.333 108.197 11.169 107.855 11.891C107.513 12.6003 107.031 13.1513 106.411 13.544C105.79 13.9367 105.074 14.133 104.264 14.133C103.516 14.133 102.87 13.9747 102.326 13.658C101.781 13.3287 101.369 12.8537 101.091 12.233V17.42H99.9316V4.785H101.091V6.457C101.369 5.83633 101.781 5.36767 102.326 5.051C102.87 4.72167 103.516 4.557 104.264 4.557ZM104.093 13.107C105.068 13.107 105.822 12.784 106.354 12.138C106.898 11.4793 107.171 10.561 107.171 9.383C107.171 8.17967 106.898 7.24233 106.354 6.571C105.822 5.89967 105.074 5.564 104.112 5.564C103.149 5.564 102.402 5.89333 101.87 6.552C101.35 7.21067 101.091 8.14167 101.091 9.345C101.091 10.5483 101.35 11.4793 101.87 12.138C102.389 12.784 103.13 13.107 104.093 13.107ZM119.258 4.557C120.373 4.557 121.203 4.84833 121.747 5.431C122.305 6.01367 122.583 6.894 122.583 8.072V14H121.443V12.347C121.177 12.917 120.791 13.3603 120.284 13.677C119.778 13.981 119.195 14.133 118.536 14.133C117.941 14.133 117.396 14.0127 116.902 13.772C116.408 13.5313 116.016 13.1957 115.724 12.765C115.446 12.3343 115.306 11.8593 115.306 11.34C115.306 10.656 115.484 10.124 115.838 9.744C116.193 9.364 116.782 9.09167 117.605 8.927C118.429 8.76233 119.575 8.68 121.044 8.68H121.443V7.977C121.443 7.141 121.272 6.533 120.93 6.153C120.588 5.76033 120.05 5.564 119.315 5.564C118.758 5.564 118.22 5.64633 117.7 5.811C117.194 5.963 116.668 6.21633 116.123 6.571L115.686 5.678C116.155 5.336 116.712 5.06367 117.358 4.861C118.004 4.65833 118.638 4.557 119.258 4.557ZM118.631 13.126C119.455 13.126 120.126 12.8473 120.645 12.29C121.177 11.7327 121.443 11.0233 121.443 10.162V9.535H121.082C119.866 9.535 118.935 9.58567 118.289 9.687C117.643 9.78833 117.187 9.96567 116.921 10.219C116.655 10.4597 116.522 10.8143 116.522 11.283C116.522 11.815 116.725 12.2583 117.13 12.613C117.536 12.955 118.036 13.126 118.631 13.126ZM134.711 4.557C136.928 4.557 138.036 5.74767 138.036 8.129V14H136.877V8.205C136.877 7.293 136.694 6.628 136.326 6.21C135.959 5.792 135.376 5.583 134.578 5.583C133.666 5.583 132.932 5.86167 132.374 6.419C131.83 6.97633 131.557 7.72367 131.557 8.661V14H130.398V4.785H131.538V6.362C131.83 5.77933 132.248 5.336 132.792 5.032C133.35 4.71533 133.989 4.557 134.711 4.557ZM148.63 9.535H141.657C141.695 10.6877 141.999 11.5743 142.569 12.195C143.139 12.803 143.949 13.107 145.001 13.107C146.115 13.107 147.122 12.727 148.022 11.967L148.478 12.879C148.072 13.259 147.553 13.563 146.92 13.791C146.299 14.019 145.659 14.133 145.001 14.133C143.595 14.133 142.486 13.7087 141.676 12.86C140.865 12.0113 140.46 10.846 140.46 9.364C140.46 8.414 140.637 7.578 140.992 6.856C141.359 6.12133 141.866 5.55767 142.512 5.165C143.17 4.75967 143.924 4.557 144.773 4.557C145.976 4.557 146.92 4.94967 147.604 5.735C148.288 6.52033 148.63 7.616 148.63 9.022V9.535ZM144.773 5.507C143.886 5.507 143.177 5.78567 142.645 6.343C142.113 6.90033 141.796 7.67933 141.695 8.68H147.566C147.54 7.66667 147.287 6.88767 146.806 6.343C146.324 5.78567 145.647 5.507 144.773 5.507ZM163.516 4.785H164.713L161.35 14H160.153L157.379 6.286L154.586 14H153.389L150.045 4.785H151.28L154.016 12.632L156.847 4.785H157.987L160.761 12.632L163.516 4.785ZM175.959 4.557C176.77 4.557 177.485 4.75967 178.106 5.165C178.727 5.55767 179.208 6.12133 179.55 6.856C179.892 7.578 180.063 8.42033 180.063 9.383C180.063 10.333 179.892 11.169 179.55 11.891C179.208 12.6003 178.727 13.1513 178.106 13.544C177.485 13.9367 176.77 14.133 175.959 14.133C175.212 14.133 174.566 13.9747 174.021 13.658C173.476 13.3287 173.065 12.8537 172.786 12.233V17.42H171.627V4.785H172.786V6.457C173.065 5.83633 173.476 5.36767 174.021 5.051C174.566 4.72167 175.212 4.557 175.959 4.557ZM175.788 13.107C176.763 13.107 177.517 12.784 178.049 12.138C178.594 11.4793 178.866 10.561 178.866 9.383C178.866 8.17967 178.594 7.24233 178.049 6.571C177.517 5.89967 176.77 5.564 175.807 5.564C174.844 5.564 174.097 5.89333 173.565 6.552C173.046 7.21067 172.786 8.14167 172.786 9.345C172.786 10.5483 173.046 11.4793 173.565 12.138C174.084 12.784 174.825 13.107 175.788 13.107ZM186.167 4.557C187.281 4.557 188.111 4.84833 188.656 5.431C189.213 6.01367 189.492 6.894 189.492 8.072V14H188.352V12.347C188.086 12.917 187.699 13.3603 187.193 13.677C186.686 13.981 186.103 14.133 185.445 14.133C184.849 14.133 184.305 14.0127 183.811 13.772C183.317 13.5313 182.924 13.1957 182.633 12.765C182.354 12.3343 182.215 11.8593 182.215 11.34C182.215 10.656 182.392 10.124 182.747 9.744C183.101 9.364 183.69 9.09167 184.514 8.927C185.337 8.76233 186.483 8.68 187.953 8.68H188.352V7.977C188.352 7.141 188.181 6.533 187.839 6.153C187.497 5.76033 186.958 5.564 186.224 5.564C185.666 5.564 185.128 5.64633 184.609 5.811C184.102 5.963 183.576 6.21633 183.032 6.571L182.595 5.678C183.063 5.336 183.621 5.06367 184.267 4.861C184.913 4.65833 185.546 4.557 186.167 4.557ZM185.54 13.126C186.363 13.126 187.034 12.8473 187.554 12.29C188.086 11.7327 188.352 11.0233 188.352 10.162V9.535H187.991C186.775 9.535 185.844 9.58567 185.198 9.687C184.552 9.78833 184.096 9.96567 183.83 10.219C183.564 10.4597 183.431 10.8143 183.431 11.283C183.431 11.815 183.633 12.2583 184.039 12.613C184.444 12.955 184.944 13.126 185.54 13.126ZM195.522 14.133C194.065 14.133 192.874 13.7213 191.95 12.898L192.387 12.005C192.881 12.4103 193.375 12.7017 193.869 12.879C194.363 13.0437 194.933 13.126 195.579 13.126C196.326 13.126 196.896 12.993 197.289 12.727C197.694 12.461 197.897 12.0873 197.897 11.606C197.897 11.2007 197.764 10.8777 197.498 10.637C197.232 10.3837 196.807 10.1937 196.225 10.067L194.667 9.706C193.919 9.52867 193.33 9.22467 192.9 8.794C192.482 8.35067 192.273 7.83133 192.273 7.236C192.273 6.438 192.583 5.792 193.204 5.298C193.824 4.804 194.654 4.557 195.693 4.557C196.339 4.557 196.94 4.66467 197.498 4.88C198.068 5.08267 198.536 5.38033 198.904 5.773L198.467 6.666C198.036 6.286 197.593 6.00733 197.137 5.83C196.693 5.65267 196.212 5.564 195.693 5.564C194.996 5.564 194.451 5.70333 194.059 5.982C193.666 6.26067 193.47 6.647 193.47 7.141C193.47 7.54633 193.59 7.87567 193.831 8.129C194.084 8.38233 194.47 8.57233 194.99 8.699L196.567 9.079C198.239 9.459 199.075 10.2823 199.075 11.549C199.075 12.3343 198.752 12.9613 198.106 13.43C197.472 13.8987 196.611 14.133 195.522 14.133ZM204.595 14.133C203.138 14.133 201.947 13.7213 201.023 12.898L201.46 12.005C201.954 12.4103 202.448 12.7017 202.942 12.879C203.436 13.0437 204.006 13.126 204.652 13.126C205.399 13.126 205.969 12.993 206.362 12.727C206.767 12.461 206.97 12.0873 206.97 11.606C206.97 11.2007 206.837 10.8777 206.571 10.637C206.305 10.3837 205.88 10.1937 205.298 10.067L203.74 9.706C202.992 9.52867 202.403 9.22467 201.973 8.794C201.555 8.35067 201.346 7.83133 201.346 7.236C201.346 6.438 201.656 5.792 202.277 5.298C202.897 4.804 203.727 4.557 204.766 4.557C205.412 4.557 206.013 4.66467 206.571 4.88C207.141 5.08267 207.609 5.38033 207.977 5.773L207.54 6.666C207.109 6.286 206.666 6.00733 206.21 5.83C205.766 5.65267 205.285 5.564 204.766 5.564C204.069 5.564 203.524 5.70333 203.132 5.982C202.739 6.26067 202.543 6.647 202.543 7.141C202.543 7.54633 202.663 7.87567 202.904 8.129C203.157 8.38233 203.543 8.57233 204.063 8.699L205.64 9.079C207.312 9.459 208.148 10.2823 208.148 11.549C208.148 12.3343 207.825 12.9613 207.179 13.43C206.545 13.8987 205.684 14.133 204.595 14.133ZM223.039 4.785H224.236L220.873 14H219.676L216.902 6.286L214.109 14H212.912L209.568 4.785H210.803L213.539 12.632L216.37 4.785H217.51L220.284 12.632L223.039 4.785ZM229.937 14.133C229.089 14.133 228.341 13.9367 227.695 13.544C227.062 13.1513 226.568 12.594 226.213 11.872C225.859 11.15 225.681 10.3077 225.681 9.345C225.681 8.38233 225.859 7.54 226.213 6.818C226.568 6.096 227.062 5.53867 227.695 5.146C228.341 4.75333 229.089 4.557 229.937 4.557C230.773 4.557 231.514 4.75333 232.16 5.146C232.806 5.53867 233.3 6.096 233.642 6.818C233.997 7.54 234.174 8.38233 234.174 9.345C234.174 10.3077 233.997 11.15 233.642 11.872C233.3 12.594 232.806 13.1513 232.16 13.544C231.514 13.9367 230.773 14.133 229.937 14.133ZM229.918 13.107C230.894 13.107 231.647 12.784 232.179 12.138C232.711 11.492 232.977 10.561 232.977 9.345C232.977 8.15433 232.705 7.22967 232.16 6.571C231.628 5.89967 230.887 5.564 229.937 5.564C228.975 5.564 228.227 5.89967 227.695 6.571C227.163 7.22967 226.897 8.15433 226.897 9.345C226.897 10.561 227.157 11.492 227.676 12.138C228.196 12.784 228.943 13.107 229.918 13.107ZM241.45 5.564L240.633 5.64C239.632 5.74133 238.904 6.06433 238.448 6.609C238.005 7.15367 237.783 7.81867 237.783 8.604V14H236.624V4.785H237.764V6.4C238.043 5.83 238.435 5.40567 238.942 5.127C239.461 4.83567 240.101 4.65833 240.861 4.595L241.355 4.557L241.45 5.564ZM250.724 0.604999V14H249.565V12.233C249.286 12.8537 248.875 13.3287 248.33 13.658C247.785 13.9747 247.139 14.133 246.392 14.133C245.581 14.133 244.866 13.9367 244.245 13.544C243.624 13.1387 243.143 12.575 242.801 11.853C242.459 11.1183 242.288 10.2697 242.288 9.307C242.288 8.357 242.459 7.52733 242.801 6.818C243.143 6.096 243.624 5.53867 244.245 5.146C244.866 4.75333 245.581 4.557 246.392 4.557C247.139 4.557 247.785 4.72167 248.33 5.051C248.875 5.36767 249.286 5.83633 249.565 6.457V0.604999H250.724ZM246.544 13.107C247.507 13.107 248.248 12.784 248.767 12.138C249.299 11.4793 249.565 10.5483 249.565 9.345C249.565 8.14167 249.305 7.21067 248.786 6.552C248.267 5.89333 247.526 5.564 246.563 5.564C245.588 5.564 244.834 5.89333 244.302 6.552C243.77 7.198 243.504 8.11633 243.504 9.307C243.504 10.5103 243.77 11.4477 244.302 12.119C244.834 12.7777 245.581 13.107 246.544 13.107ZM260.171 4.785H262.869V5.716H260.171V14H259.012V5.716H257.188V4.785H259.012V4.329C259.012 3.13833 259.303 2.239 259.886 1.631C260.468 1.01033 261.355 0.668332 262.546 0.604999L263.211 0.567L263.306 1.517L262.432 1.555C261.659 1.60567 261.089 1.85267 260.722 2.296C260.354 2.72667 260.171 3.36633 260.171 4.215V4.785ZM268.123 14.133C267.274 14.133 266.527 13.9367 265.881 13.544C265.248 13.1513 264.754 12.594 264.399 11.872C264.044 11.15 263.867 10.3077 263.867 9.345C263.867 8.38233 264.044 7.54 264.399 6.818C264.754 6.096 265.248 5.53867 265.881 5.146C266.527 4.75333 267.274 4.557 268.123 4.557C268.959 4.557 269.7 4.75333 270.346 5.146C270.992 5.53867 271.486 6.096 271.828 6.818C272.183 7.54 272.36 8.38233 272.36 9.345C272.36 10.3077 272.183 11.15 271.828 11.872C271.486 12.594 270.992 13.1513 270.346 13.544C269.7 13.9367 268.959 14.133 268.123 14.133ZM268.104 13.107C269.079 13.107 269.833 12.784 270.365 12.138C270.897 11.492 271.163 10.561 271.163 9.345C271.163 8.15433 270.891 7.22967 270.346 6.571C269.814 5.89967 269.073 5.564 268.123 5.564C267.16 5.564 266.413 5.89967 265.881 6.571C265.349 7.22967 265.083 8.15433 265.083 9.345C265.083 10.561 265.343 11.492 265.862 12.138C266.381 12.784 267.129 13.107 268.104 13.107ZM279.636 5.564L278.819 5.64C277.818 5.74133 277.09 6.06433 276.634 6.609C276.19 7.15367 275.969 7.81867 275.969 8.604V14H274.81V4.785H275.95V6.4C276.228 5.83 276.621 5.40567 277.128 5.127C277.647 4.83567 278.287 4.65833 279.047 4.595L279.541 4.557L279.636 5.564ZM93.4825 31.785H94.6605L89.2265 44.42H88.0485L89.5495 41L85.5975 31.785H86.8325L90.1575 39.822L93.4825 31.785ZM100.055 41.133C99.206 41.133 98.4587 40.9367 97.8127 40.544C97.1793 40.1513 96.6853 39.594 96.3307 38.872C95.976 38.15 95.7987 37.3077 95.7987 36.345C95.7987 35.3823 95.976 34.54 96.3307 33.818C96.6853 33.096 97.1793 32.5387 97.8127 32.146C98.4587 31.7533 99.206 31.557 100.055 31.557C100.891 31.557 101.632 31.7533 102.278 32.146C102.924 32.5387 103.418 33.096 103.76 33.818C104.114 34.54 104.292 35.3823 104.292 36.345C104.292 37.3077 104.114 38.15 103.76 38.872C103.418 39.594 102.924 40.1513 102.278 40.544C101.632 40.9367 100.891 41.133 100.055 41.133ZM100.036 40.107C101.011 40.107 101.765 39.784 102.297 39.138C102.829 38.492 103.095 37.561 103.095 36.345C103.095 35.1543 102.822 34.2297 102.278 33.571C101.746 32.8997 101.005 32.564 100.055 32.564C99.092 32.564 98.3447 32.8997 97.8127 33.571C97.2807 34.2297 97.0147 35.1543 97.0147 36.345C97.0147 37.561 97.2743 38.492 97.7937 39.138C98.313 39.784 99.0603 40.107 100.036 40.107ZM114.208 31.785V41H113.068V39.347C112.777 39.9297 112.359 40.373 111.814 40.677C111.282 40.981 110.674 41.133 109.99 41.133C108.901 41.133 108.078 40.8353 107.52 40.24C106.976 39.632 106.703 38.739 106.703 37.561V31.785H107.862V37.485C107.862 38.3843 108.04 39.0493 108.394 39.48C108.762 39.898 109.332 40.107 110.104 40.107C110.991 40.107 111.7 39.8283 112.232 39.271C112.777 38.701 113.049 37.9473 113.049 37.01V31.785H114.208ZM122.069 32.564L121.252 32.64C120.251 32.7413 119.523 33.0643 119.067 33.609C118.624 34.1537 118.402 34.8187 118.402 35.604V41H117.243V31.785H118.383V33.4C118.662 32.83 119.054 32.4057 119.561 32.127C120.08 31.8357 120.72 31.6583 121.48 31.595L121.974 31.557L122.069 32.564ZM132.117 31.557C133.231 31.557 134.061 31.8483 134.606 32.431C135.163 33.0137 135.442 33.894 135.442 35.072V41H134.302V39.347C134.036 39.917 133.649 40.3603 133.143 40.677C132.636 40.981 132.053 41.133 131.395 41.133C130.799 41.133 130.255 41.0127 129.761 40.772C129.267 40.5313 128.874 40.1957 128.583 39.765C128.304 39.3343 128.165 38.8593 128.165 38.34C128.165 37.656 128.342 37.124 128.697 36.744C129.051 36.364 129.64 36.0917 130.464 35.927C131.287 35.7623 132.433 35.68 133.903 35.68H134.302V34.977C134.302 34.141 134.131 33.533 133.789 33.153C133.447 32.7603 132.908 32.564 132.174 32.564C131.616 32.564 131.078 32.6463 130.559 32.811C130.052 32.963 129.526 33.2163 128.982 33.571L128.545 32.678C129.013 32.336 129.571 32.0637 130.217 31.861C130.863 31.6583 131.496 31.557 132.117 31.557ZM131.49 40.126C132.313 40.126 132.984 39.8473 133.504 39.29C134.036 38.7327 134.302 38.0233 134.302 37.162V36.535H133.941C132.725 36.535 131.794 36.5857 131.148 36.687C130.502 36.7883 130.046 36.9657 129.78 37.219C129.514 37.4597 129.381 37.8143 129.381 38.283C129.381 38.815 129.583 39.2583 129.989 39.613C130.394 39.955 130.894 40.126 131.49 40.126ZM142.213 41.133C141.339 41.133 140.572 40.9367 139.914 40.544C139.268 40.1513 138.767 39.594 138.413 38.872C138.058 38.15 137.881 37.3203 137.881 36.383C137.881 35.433 138.058 34.5907 138.413 33.856C138.78 33.1213 139.293 32.5577 139.952 32.165C140.61 31.7597 141.383 31.557 142.27 31.557C142.89 31.557 143.486 31.6647 144.056 31.88C144.638 32.0953 145.107 32.393 145.462 32.773L145.025 33.685C144.556 33.2923 144.1 33.0073 143.657 32.83C143.226 32.6527 142.776 32.564 142.308 32.564C141.32 32.564 140.534 32.906 139.952 33.59C139.382 34.2613 139.097 35.1923 139.097 36.383C139.097 37.561 139.382 38.4793 139.952 39.138C140.522 39.784 141.301 40.107 142.289 40.107C142.757 40.107 143.207 40.0183 143.638 39.841C144.081 39.6637 144.543 39.385 145.025 39.005L145.462 39.898C145.082 40.278 144.6 40.582 144.018 40.81C143.435 41.0253 142.833 41.133 142.213 41.133ZM151.23 41.133C150.356 41.133 149.59 40.9367 148.931 40.544C148.285 40.1513 147.785 39.594 147.43 38.872C147.076 38.15 146.898 37.3203 146.898 36.383C146.898 35.433 147.076 34.5907 147.43 33.856C147.798 33.1213 148.311 32.5577 148.969 32.165C149.628 31.7597 150.401 31.557 151.287 31.557C151.908 31.557 152.503 31.6647 153.073 31.88C153.656 32.0953 154.125 32.393 154.479 32.773L154.042 33.685C153.574 33.2923 153.118 33.0073 152.674 32.83C152.244 32.6527 151.794 32.564 151.325 32.564C150.337 32.564 149.552 32.906 148.969 33.59C148.399 34.2613 148.114 35.1923 148.114 36.383C148.114 37.561 148.399 38.4793 148.969 39.138C149.539 39.784 150.318 40.107 151.306 40.107C151.775 40.107 152.225 40.0183 152.655 39.841C153.099 39.6637 153.561 39.385 154.042 39.005L154.479 39.898C154.099 40.278 153.618 40.582 153.035 40.81C152.453 41.0253 151.851 41.133 151.23 41.133ZM160.172 41.133C159.323 41.133 158.576 40.9367 157.93 40.544C157.297 40.1513 156.803 39.594 156.448 38.872C156.093 38.15 155.916 37.3077 155.916 36.345C155.916 35.3823 156.093 34.54 156.448 33.818C156.803 33.096 157.297 32.5387 157.93 32.146C158.576 31.7533 159.323 31.557 160.172 31.557C161.008 31.557 161.749 31.7533 162.395 32.146C163.041 32.5387 163.535 33.096 163.877 33.818C164.232 34.54 164.409 35.3823 164.409 36.345C164.409 37.3077 164.232 38.15 163.877 38.872C163.535 39.594 163.041 40.1513 162.395 40.544C161.749 40.9367 161.008 41.133 160.172 41.133ZM160.153 40.107C161.128 40.107 161.882 39.784 162.414 39.138C162.946 38.492 163.212 37.561 163.212 36.345C163.212 35.1543 162.94 34.2297 162.395 33.571C161.863 32.8997 161.122 32.564 160.172 32.564C159.209 32.564 158.462 32.8997 157.93 33.571C157.398 34.2297 157.132 35.1543 157.132 36.345C157.132 37.561 157.392 38.492 157.911 39.138C158.43 39.784 159.178 40.107 160.153 40.107ZM174.325 31.785V41H173.185V39.347C172.894 39.9297 172.476 40.373 171.931 40.677C171.399 40.981 170.791 41.133 170.107 41.133C169.018 41.133 168.195 40.8353 167.637 40.24C167.093 39.632 166.82 38.739 166.82 37.561V31.785H167.979V37.485C167.979 38.3843 168.157 39.0493 168.511 39.48C168.879 39.898 169.449 40.107 170.221 40.107C171.108 40.107 171.817 39.8283 172.349 39.271C172.894 38.701 173.166 37.9473 173.166 37.01V31.785H174.325ZM181.673 31.557C183.89 31.557 184.998 32.7477 184.998 35.129V41H183.839V35.205C183.839 34.293 183.656 33.628 183.288 33.21C182.921 32.792 182.338 32.583 181.54 32.583C180.628 32.583 179.894 32.8617 179.336 33.419C178.792 33.9763 178.519 34.7237 178.519 35.661V41H177.36V31.785H178.5V33.362C178.792 32.7793 179.21 32.336 179.754 32.032C180.312 31.7153 180.951 31.557 181.673 31.557ZM191.754 40.145C192.032 40.145 192.305 40.126 192.571 40.088L192.514 41.057C192.235 41.095 191.937 41.114 191.621 41.114C190.582 41.114 189.797 40.8353 189.265 40.278C188.733 39.708 188.467 38.9353 188.467 37.96V32.716H186.643V31.785H188.467V28.935H189.626V31.785H192.324V32.716H189.626V37.808C189.626 38.5807 189.803 39.1633 190.158 39.556C190.525 39.9487 191.057 40.145 191.754 40.145Z" fill="black"/>
</svg>
