<svg width="127" height="19" viewBox="0 0 127 19" fill="none" xmlns="http://www.w3.org/2000/svg">
<path d="M1.01136 15V3.36364H5.60227C6.48106 3.36364 7.23106 3.52083 7.85227 3.83523C8.47727 4.14583 8.95265 4.58712 9.27841 5.15909C9.60795 5.72727 9.77273 6.39583 9.77273 7.16477C9.77273 7.9375 9.60606 8.60227 9.27273 9.15909C8.93939 9.71212 8.45644 10.1364 7.82386 10.4318C7.19508 10.7273 6.43371 10.875 5.53977 10.875H2.46591V8.89773H5.14205C5.61174 8.89773 6.00189 8.83333 6.3125 8.70455C6.62311 8.57576 6.85417 8.38258 7.00568 8.125C7.16098 7.86742 7.23864 7.54735 7.23864 7.16477C7.23864 6.77841 7.16098 6.45265 7.00568 6.1875C6.85417 5.92235 6.62121 5.72159 6.30682 5.58523C5.99621 5.44508 5.60417 5.375 5.13068 5.375H3.47159V15H1.01136ZM7.29545 9.70455L10.1875 15H7.47159L4.64205 9.70455H7.29545ZM14.0614 15V3.36364H21.9023V5.39205H16.5216V8.16477H21.4989V10.1932H16.5216V12.9716H21.925V15H14.0614ZM34.1241 7.125C34.0446 6.84848 33.9329 6.60417 33.7889 6.39205C33.645 6.17614 33.4688 5.99432 33.2605 5.84659C33.056 5.69508 32.8211 5.57955 32.556 5.5C32.2946 5.42045 32.0048 5.38068 31.6866 5.38068C31.092 5.38068 30.5692 5.52841 30.1185 5.82386C29.6715 6.11932 29.323 6.54924 29.073 7.11364C28.823 7.67424 28.698 8.35985 28.698 9.17045C28.698 9.98106 28.8211 10.6705 29.0673 11.2386C29.3135 11.8068 29.662 12.2405 30.1128 12.5398C30.5635 12.8352 31.0957 12.983 31.7094 12.983C32.2662 12.983 32.7416 12.8845 33.1355 12.6875C33.5332 12.4867 33.8363 12.2045 34.0446 11.8409C34.2567 11.4773 34.3628 11.0473 34.3628 10.5511L34.8628 10.625H31.8628V8.77273H36.7321V10.2386C36.7321 11.2614 36.5162 12.1402 36.0844 12.875C35.6526 13.6061 35.0579 14.1705 34.3003 14.5682C33.5427 14.9621 32.6753 15.1591 31.698 15.1591C30.6071 15.1591 29.6488 14.9186 28.823 14.4375C27.9973 13.9527 27.3533 13.2652 26.8912 12.375C26.4329 11.4811 26.2037 10.4205 26.2037 9.19318C26.2037 8.25 26.3401 7.40909 26.6128 6.67045C26.8893 5.92803 27.2757 5.29924 27.7719 4.78409C28.2681 4.26894 28.8457 3.87689 29.5048 3.60795C30.1639 3.33901 30.8779 3.20455 31.6469 3.20455C32.306 3.20455 32.9196 3.30114 33.4878 3.49432C34.056 3.68371 34.5598 3.95265 34.9991 4.30114C35.4423 4.64962 35.8041 5.06439 36.0844 5.54545C36.3647 6.02273 36.5446 6.54924 36.6241 7.125H34.1241ZM43.5903 3.36364V15H41.1301V3.36364H43.5903ZM54.477 6.71023C54.4315 6.25189 54.2365 5.89583 53.8918 5.64205C53.5471 5.38826 53.0793 5.26136 52.4884 5.26136C52.0868 5.26136 51.7478 5.31818 51.4713 5.43182C51.1948 5.54167 50.9827 5.69508 50.8349 5.89205C50.691 6.08902 50.619 6.3125 50.619 6.5625C50.6115 6.77083 50.655 6.95265 50.7497 7.10795C50.8482 7.26326 50.9827 7.39773 51.1531 7.51136C51.3236 7.62121 51.5206 7.7178 51.744 7.80114C51.9675 7.88068 52.2062 7.94886 52.4599 8.00568L53.5054 8.25568C54.013 8.36932 54.4789 8.52083 54.9031 8.71023C55.3274 8.89962 55.6948 9.13258 56.0054 9.40909C56.316 9.68561 56.5565 10.0114 56.727 10.3864C56.9012 10.7614 56.9902 11.1913 56.994 11.6761C56.9902 12.3883 56.8084 13.0057 56.4486 13.5284C56.0925 14.0473 55.5774 14.4508 54.9031 14.7386C54.2327 15.0227 53.424 15.1648 52.477 15.1648C51.5376 15.1648 50.7194 15.0208 50.0224 14.733C49.3293 14.4451 48.7876 14.0189 48.3974 13.4545C48.0111 12.8864 47.8084 12.1837 47.7895 11.3466H50.1702C50.1967 11.7367 50.3084 12.0625 50.5054 12.3239C50.7062 12.5814 50.9732 12.7765 51.3065 12.9091C51.6437 13.0379 52.0243 13.1023 52.4486 13.1023C52.8652 13.1023 53.227 13.0417 53.5338 12.9205C53.8444 12.7992 54.0849 12.6307 54.2554 12.4148C54.4259 12.1989 54.5111 11.9508 54.5111 11.6705C54.5111 11.4091 54.4334 11.1894 54.2781 11.0114C54.1266 10.8333 53.9031 10.6818 53.6077 10.5568C53.316 10.4318 52.9581 10.3182 52.5338 10.2159L51.2668 9.89773C50.2857 9.65909 49.5111 9.28598 48.9429 8.77841C48.3747 8.27083 48.0925 7.58712 48.0963 6.72727C48.0925 6.02273 48.28 5.4072 48.6588 4.88068C49.0414 4.35417 49.566 3.94318 50.2327 3.64773C50.8993 3.35227 51.6569 3.20455 52.5054 3.20455C53.369 3.20455 54.1228 3.35227 54.7668 3.64773C55.4145 3.94318 55.9183 4.35417 56.2781 4.88068C56.638 5.4072 56.8236 6.01705 56.8349 6.71023H54.477ZM60.7557 5.39205V3.36364H70.3125V5.39205H66.75V15H64.3182V5.39205H60.7557ZM74.4364 15V3.36364H82.2773V5.39205H76.8966V8.16477H81.8739V10.1932H76.8966V12.9716H82.3V15H74.4364ZM86.7832 15V3.36364H91.3741C92.2529 3.36364 93.0029 3.52083 93.6241 3.83523C94.2491 4.14583 94.7245 4.58712 95.0503 5.15909C95.3798 5.72727 95.5446 6.39583 95.5446 7.16477C95.5446 7.9375 95.3779 8.60227 95.0446 9.15909C94.7113 9.71212 94.2283 10.1364 93.5957 10.4318C92.9669 10.7273 92.2056 10.875 91.3116 10.875H88.2378V8.89773H90.9139C91.3836 8.89773 91.7738 8.83333 92.0844 8.70455C92.395 8.57576 92.626 8.38258 92.7776 8.125C92.9329 7.86742 93.0105 7.54735 93.0105 7.16477C93.0105 6.77841 92.9329 6.45265 92.7776 6.1875C92.626 5.92235 92.3931 5.72159 92.0787 5.58523C91.7681 5.44508 91.376 5.375 90.9026 5.375H89.2435V15H86.7832ZM93.0673 9.70455L95.9594 15H93.2435L90.4139 9.70455H93.0673Z" fill="#71CBFF"/>
<path d="M125.899 9.94961H116" stroke="#71CBFF" stroke-width="2" stroke-linecap="round" stroke-linejoin="round"/>
<path d="M121.775 14.0746L125.899 9.95L121.775 5.82541" stroke="#71CBFF" stroke-width="2" stroke-linecap="round" stroke-linejoin="round"/>
</svg>
