<svg width="335" height="61" viewBox="0 0 335 61" fill="none" xmlns="http://www.w3.org/2000/svg">
<g clip-path="url(#clip0_2_861)">
<rect width="335" height="61" rx="8" fill="#71CBFF"/>
<path d="M151.015 39.176C149.798 39.176 148.72 39.0147 147.781 38.692C146.843 38.3547 146.007 37.8413 145.273 37.152L145.845 36.074C146.623 36.7633 147.4 37.2547 148.177 37.548C148.969 37.8267 149.915 37.966 151.015 37.966C152.321 37.966 153.333 37.702 154.051 37.174C154.785 36.6313 155.151 35.876 155.151 34.908C155.151 34.336 154.975 33.874 154.623 33.522C154.271 33.1553 153.824 32.8767 153.281 32.686C152.739 32.4807 152.013 32.2753 151.103 32.07C149.901 31.806 148.925 31.5347 148.177 31.256C147.444 30.9773 146.821 30.5593 146.307 30.002C145.794 29.43 145.537 28.6673 145.537 27.714C145.537 26.834 145.765 26.064 146.219 25.404C146.674 24.744 147.312 24.2307 148.133 23.864C148.969 23.4973 149.945 23.314 151.059 23.314C152.115 23.314 153.091 23.49 153.985 23.842C154.895 24.1793 155.679 24.678 156.339 25.338L155.767 26.416C155.034 25.756 154.293 25.2793 153.545 24.986C152.797 24.678 151.969 24.524 151.059 24.524C149.754 24.524 148.735 24.8027 148.001 25.36C147.268 25.9173 146.901 26.6947 146.901 27.692C146.901 28.5573 147.217 29.2027 147.847 29.628C148.493 30.0387 149.431 30.3907 150.663 30.684L151.235 30.816C152.423 31.1093 153.362 31.3807 154.051 31.63C154.741 31.8793 155.32 32.268 155.789 32.796C156.273 33.3093 156.515 34.006 156.515 34.886C156.515 35.7367 156.288 36.4847 155.833 37.13C155.379 37.7753 154.733 38.2813 153.897 38.648C153.076 39 152.115 39.176 151.015 39.176ZM163.543 28.066C164.833 28.066 165.794 28.4033 166.425 29.078C167.07 29.7527 167.393 30.772 167.393 32.136V39H166.073V37.086C165.765 37.746 165.317 38.2593 164.731 38.626C164.144 38.978 163.469 39.154 162.707 39.154C162.017 39.154 161.387 39.0147 160.815 38.736C160.243 38.4573 159.788 38.0687 159.451 37.57C159.128 37.0713 158.967 36.5213 158.967 35.92C158.967 35.128 159.172 34.512 159.583 34.072C159.993 33.632 160.675 33.3167 161.629 33.126C162.582 32.9353 163.909 32.84 165.611 32.84H166.073V32.026C166.073 31.058 165.875 30.354 165.479 29.914C165.083 29.4593 164.459 29.232 163.609 29.232C162.963 29.232 162.34 29.3273 161.739 29.518C161.152 29.694 160.543 29.9873 159.913 30.398L159.407 29.364C159.949 28.968 160.595 28.6527 161.343 28.418C162.091 28.1833 162.824 28.066 163.543 28.066ZM162.817 37.988C163.77 37.988 164.547 37.6653 165.149 37.02C165.765 36.3747 166.073 35.5533 166.073 34.556V33.83H165.655C164.247 33.83 163.169 33.8887 162.421 34.006C161.673 34.1233 161.145 34.3287 160.837 34.622C160.529 34.9007 160.375 35.3113 160.375 35.854C160.375 36.47 160.609 36.9833 161.079 37.394C161.548 37.79 162.127 37.988 162.817 37.988ZM178.621 28.33H179.985L175.409 39H174.045L169.491 28.33H170.921L174.771 37.636L178.621 28.33ZM190.763 33.83H182.689C182.733 35.1647 183.085 36.1913 183.745 36.91C184.405 37.614 185.343 37.966 186.561 37.966C187.851 37.966 189.017 37.526 190.059 36.646L190.587 37.702C190.117 38.142 189.516 38.494 188.783 38.758C188.064 39.022 187.323 39.154 186.561 39.154C184.933 39.154 183.649 38.6627 182.711 37.68C181.772 36.6973 181.303 35.348 181.303 33.632C181.303 32.532 181.508 31.564 181.919 30.728C182.344 29.8773 182.931 29.2247 183.679 28.77C184.441 28.3007 185.314 28.066 186.297 28.066C187.69 28.066 188.783 28.5207 189.575 29.43C190.367 30.3393 190.763 31.608 190.763 33.236V33.83ZM186.297 29.166C185.27 29.166 184.449 29.4887 183.833 30.134C183.217 30.7793 182.85 31.6813 182.733 32.84H189.531C189.501 31.6667 189.208 30.7647 188.651 30.134C188.093 29.4887 187.309 29.166 186.297 29.166Z" fill="#F3F3F3"/>
</g>
<defs>
<clipPath id="clip0_2_861">
<rect width="335" height="61" fill="white"/>
</clipPath>
</defs>
</svg>
