<svg width="208" height="21" viewBox="0 0 208 21" fill="none" xmlns="http://www.w3.org/2000/svg">
<path d="M10.8299 4.996C10.7319 4.898 10.5499 4.765 10.2839 4.597C10.0319 4.429 9.71691 4.268 9.33891 4.114C8.97491 3.946 8.57591 3.806 8.14191 3.694C7.70791 3.582 7.26691 3.526 6.81891 3.526C6.02091 3.526 5.42591 3.673 5.03391 3.967C4.64191 4.261 4.44591 4.674 4.44591 5.206C4.44591 5.514 4.51591 5.773 4.65591 5.983C4.80991 6.179 5.02691 6.354 5.30691 6.508C5.58691 6.662 5.93691 6.802 6.35691 6.928C6.79091 7.054 7.28791 7.187 7.84791 7.327C8.57591 7.523 9.23391 7.733 9.82191 7.957C10.4239 8.181 10.9279 8.461 11.3339 8.797C11.7539 9.133 12.0759 9.539 12.2999 10.015C12.5239 10.477 12.6359 11.051 12.6359 11.737C12.6359 12.535 12.4819 13.221 12.1739 13.795C11.8799 14.355 11.4739 14.81 10.9559 15.16C10.4519 15.51 9.86391 15.769 9.19191 15.937C8.53391 16.091 7.84091 16.168 7.11291 16.168C5.99291 16.168 4.88691 16 3.79491 15.664C2.70291 15.328 1.72291 14.852 0.854914 14.236L2.13591 11.737C2.26191 11.863 2.48591 12.031 2.80791 12.241C3.14391 12.437 3.53591 12.64 3.98391 12.85C4.43191 13.046 4.92891 13.214 5.47491 13.354C6.02091 13.494 6.58091 13.564 7.15491 13.564C8.75091 13.564 9.54891 13.053 9.54891 12.031C9.54891 11.709 9.45791 11.436 9.27591 11.212C9.09391 10.988 8.83491 10.792 8.49891 10.624C8.16291 10.456 7.75691 10.302 7.28091 10.162C6.80491 10.022 6.27291 9.868 5.68491 9.7C4.97091 9.504 4.34791 9.294 3.81591 9.07C3.29791 8.832 2.86391 8.559 2.51391 8.251C2.16391 7.929 1.89791 7.565 1.71591 7.159C1.54791 6.739 1.46391 6.242 1.46391 5.668C1.46391 4.912 1.60391 4.24 1.88391 3.652C2.16391 3.064 2.54891 2.574 3.03891 2.182C3.54291 1.79 4.12391 1.496 4.78191 1.3C5.43991 1.09 6.14691 0.984999 6.90291 0.984999C7.95291 0.984999 8.91891 1.153 9.80091 1.489C10.6829 1.811 11.4529 2.196 12.1109 2.644L10.8299 4.996ZM19.4458 16.21C18.5638 16.21 17.7658 16.063 17.0518 15.769C16.3378 15.461 15.7288 15.048 15.2248 14.53C14.7208 14.012 14.3288 13.41 14.0488 12.724C13.7828 12.038 13.6498 11.317 13.6498 10.561C13.6498 9.777 13.7828 9.042 14.0488 8.356C14.3148 7.656 14.6998 7.047 15.2038 6.529C15.7078 5.997 16.3168 5.577 17.0308 5.269C17.7588 4.961 18.5708 4.807 19.4668 4.807C20.3628 4.807 21.1608 4.961 21.8608 5.269C22.5748 5.577 23.1768 5.99 23.6668 6.508C24.1708 7.026 24.5488 7.628 24.8008 8.314C25.0668 9 25.1998 9.714 25.1998 10.456C25.1998 10.638 25.1928 10.813 25.1788 10.981C25.1788 11.149 25.1648 11.289 25.1368 11.401H16.6318C16.6738 11.835 16.7788 12.22 16.9468 12.556C17.1148 12.892 17.3318 13.179 17.5978 13.417C17.8638 13.655 18.1648 13.837 18.5008 13.963C18.8368 14.089 19.1868 14.152 19.5508 14.152C20.1108 14.152 20.6358 14.019 21.1258 13.753C21.6298 13.473 21.9728 13.109 22.1548 12.661L24.5698 13.333C24.1638 14.173 23.5128 14.866 22.6168 15.412C21.7348 15.944 20.6778 16.21 19.4458 16.21ZM22.3018 9.574C22.2318 8.748 21.9238 8.09 21.3778 7.6C20.8458 7.096 20.1948 6.844 19.4248 6.844C19.0468 6.844 18.6898 6.914 18.3538 7.054C18.0318 7.18 17.7448 7.362 17.4928 7.6C17.2408 7.838 17.0308 8.125 16.8628 8.461C16.7088 8.797 16.6178 9.168 16.5898 9.574H22.3018ZM33.2161 15.433C32.8381 15.601 32.3761 15.769 31.8301 15.937C31.2841 16.105 30.7101 16.189 30.1081 16.189C29.7161 16.189 29.3451 16.14 28.9951 16.042C28.6591 15.944 28.3581 15.79 28.0921 15.58C27.8401 15.356 27.6371 15.076 27.4831 14.74C27.3291 14.39 27.2521 13.97 27.2521 13.48V7.159H25.8031V4.996H27.2521V1.426H30.0661V4.996H32.3761V7.159H30.0661V12.535C30.0661 12.927 30.1641 13.207 30.3601 13.375C30.5701 13.529 30.8221 13.606 31.1161 13.606C31.4101 13.606 31.6971 13.557 31.9771 13.459C32.2571 13.361 32.4811 13.277 32.6491 13.207L33.2161 15.433ZM37.8316 16.21C36.6976 16.21 35.8366 15.846 35.2486 15.118C34.6606 14.39 34.3666 13.312 34.3666 11.884V4.996H37.1806V11.275C37.1806 12.969 37.7896 13.816 39.0076 13.816C39.5536 13.816 40.0786 13.655 40.5826 13.333C41.1006 12.997 41.5206 12.493 41.8426 11.821V4.996H44.6566V12.766C44.6566 13.06 44.7056 13.27 44.8036 13.396C44.9156 13.522 45.0906 13.592 45.3286 13.606V16C45.0486 16.056 44.8106 16.091 44.6146 16.105C44.4326 16.119 44.2646 16.126 44.1106 16.126C43.6066 16.126 43.1936 16.014 42.8716 15.79C42.5636 15.552 42.3816 15.23 42.3256 14.824L42.2626 13.942C41.7726 14.698 41.1426 15.265 40.3726 15.643C39.6026 16.021 38.7556 16.21 37.8316 16.21ZM53.8371 16.21C52.9691 16.21 52.2131 16.021 51.5691 15.643C50.9251 15.251 50.4211 14.726 50.0571 14.068V20.473H47.2431V4.996H49.7001V6.886C50.1061 6.242 50.6311 5.738 51.2751 5.374C51.9191 4.996 52.6611 4.807 53.5011 4.807C54.2431 4.807 54.9291 4.961 55.5591 5.269C56.1891 5.563 56.7281 5.969 57.1761 6.487C57.6381 6.991 57.9951 7.593 58.2471 8.293C58.5131 8.979 58.6461 9.707 58.6461 10.477C58.6461 11.275 58.5271 12.024 58.2891 12.724C58.0511 13.424 57.7151 14.033 57.2811 14.551C56.8611 15.069 56.3571 15.475 55.7691 15.769C55.1811 16.063 54.5371 16.21 53.8371 16.21ZM52.8921 13.816C53.3121 13.816 53.6971 13.725 54.0471 13.543C54.4111 13.361 54.7191 13.116 54.9711 12.808C55.2231 12.5 55.4191 12.143 55.5591 11.737C55.6991 11.331 55.7691 10.911 55.7691 10.477C55.7691 10.015 55.6921 9.588 55.5381 9.196C55.3841 8.79 55.1671 8.44 54.8871 8.146C54.6211 7.852 54.2991 7.621 53.9211 7.453C53.5571 7.285 53.1581 7.201 52.7241 7.201C52.4581 7.201 52.1851 7.25 51.9051 7.348C51.6251 7.432 51.3661 7.558 51.1281 7.726C50.8901 7.894 50.6731 8.09 50.4771 8.314C50.2951 8.538 50.1551 8.783 50.0571 9.049V11.632C50.3091 12.262 50.6941 12.787 51.2121 13.207C51.7301 13.613 52.2901 13.816 52.8921 13.816ZM68.3486 6.445V16H65.4506V1.09H67.6976L75.4676 10.876V1.111H78.3656V16H76.0136L68.3486 6.445ZM85.9436 16.21C85.0616 16.21 84.2636 16.063 83.5496 15.769C82.8356 15.461 82.2266 15.048 81.7226 14.53C81.2186 14.012 80.8266 13.41 80.5466 12.724C80.2806 12.038 80.1476 11.317 80.1476 10.561C80.1476 9.777 80.2806 9.042 80.5466 8.356C80.8126 7.656 81.1976 7.047 81.7016 6.529C82.2056 5.997 82.8146 5.577 83.5286 5.269C84.2566 4.961 85.0686 4.807 85.9646 4.807C86.8606 4.807 87.6586 4.961 88.3586 5.269C89.0726 5.577 89.6746 5.99 90.1646 6.508C90.6686 7.026 91.0466 7.628 91.2986 8.314C91.5646 9 91.6976 9.714 91.6976 10.456C91.6976 10.638 91.6906 10.813 91.6766 10.981C91.6766 11.149 91.6626 11.289 91.6346 11.401H83.1296C83.1716 11.835 83.2766 12.22 83.4446 12.556C83.6126 12.892 83.8296 13.179 84.0956 13.417C84.3616 13.655 84.6626 13.837 84.9986 13.963C85.3346 14.089 85.6846 14.152 86.0486 14.152C86.6086 14.152 87.1336 14.019 87.6236 13.753C88.1276 13.473 88.4706 13.109 88.6526 12.661L91.0676 13.333C90.6616 14.173 90.0106 14.866 89.1146 15.412C88.2326 15.944 87.1756 16.21 85.9436 16.21ZM88.7996 9.574C88.7296 8.748 88.4216 8.09 87.8756 7.6C87.3436 7.096 86.6926 6.844 85.9226 6.844C85.5446 6.844 85.1876 6.914 84.8516 7.054C84.5296 7.18 84.2426 7.362 83.9906 7.6C83.7386 7.838 83.5286 8.125 83.3606 8.461C83.2066 8.797 83.1156 9.168 83.0876 9.574H88.7996ZM106.565 4.996H109.232L104.633 16H102.323L100.433 11.17L98.5638 16H96.2538L91.6758 4.996H94.3218L97.5978 13.354L98.9418 9.784L97.0098 5.017H99.2778L100.433 8.398L101.609 5.017H103.877L101.966 9.784L103.289 13.354L106.565 4.996ZM114.855 16V1.09H121.176C121.862 1.09 122.492 1.237 123.066 1.531C123.654 1.811 124.158 2.189 124.578 2.665C124.998 3.127 125.327 3.659 125.565 4.261C125.803 4.849 125.922 5.444 125.922 6.046C125.922 6.676 125.81 7.292 125.586 7.894C125.362 8.482 125.047 9.007 124.641 9.469C124.235 9.931 123.745 10.302 123.171 10.582C122.597 10.862 121.967 11.002 121.281 11.002H117.753V16H114.855ZM117.753 8.461H121.113C121.645 8.461 122.086 8.244 122.436 7.81C122.8 7.376 122.982 6.788 122.982 6.046C122.982 5.668 122.926 5.332 122.814 5.038C122.702 4.73 122.555 4.471 122.373 4.261C122.191 4.051 121.974 3.897 121.722 3.799C121.484 3.687 121.239 3.631 120.987 3.631H117.753V8.461ZM130.356 16.21C129.824 16.21 129.327 16.126 128.865 15.958C128.403 15.776 128.004 15.531 127.668 15.223C127.332 14.901 127.066 14.53 126.87 14.11C126.688 13.69 126.597 13.228 126.597 12.724C126.597 12.206 126.709 11.73 126.933 11.296C127.171 10.848 127.493 10.47 127.899 10.162C128.319 9.854 128.816 9.616 129.39 9.448C129.964 9.266 130.594 9.175 131.28 9.175C131.77 9.175 132.246 9.217 132.708 9.301C133.184 9.385 133.604 9.504 133.968 9.658V9.028C133.968 8.3 133.758 7.74 133.338 7.348C132.932 6.956 132.323 6.76 131.511 6.76C130.923 6.76 130.349 6.865 129.789 7.075C129.229 7.285 128.655 7.593 128.067 7.999L127.206 6.214C128.62 5.276 130.146 4.807 131.784 4.807C133.366 4.807 134.591 5.199 135.459 5.983C136.341 6.753 136.782 7.873 136.782 9.343V12.766C136.782 13.06 136.831 13.27 136.929 13.396C137.041 13.522 137.216 13.592 137.454 13.606V16C136.978 16.098 136.565 16.147 136.215 16.147C135.683 16.147 135.27 16.028 134.976 15.79C134.696 15.552 134.521 15.237 134.451 14.845L134.388 14.236C133.898 14.88 133.303 15.37 132.603 15.706C131.903 16.042 131.154 16.21 130.356 16.21ZM131.154 14.152C131.63 14.152 132.078 14.068 132.498 13.9C132.932 13.732 133.268 13.508 133.506 13.228C133.814 12.99 133.968 12.724 133.968 12.43V11.17C133.632 11.044 133.268 10.946 132.876 10.876C132.484 10.792 132.106 10.75 131.742 10.75C131.014 10.75 130.419 10.918 129.957 11.254C129.495 11.576 129.264 11.989 129.264 12.493C129.264 12.969 129.446 13.368 129.81 13.69C130.174 13.998 130.622 14.152 131.154 14.152ZM143.36 16.21C142.436 16.21 141.533 16.063 140.651 15.769C139.769 15.475 139.013 15.055 138.383 14.509L139.433 12.745C140.105 13.221 140.756 13.585 141.386 13.837C142.03 14.075 142.667 14.194 143.297 14.194C143.857 14.194 144.298 14.089 144.62 13.879C144.942 13.669 145.103 13.368 145.103 12.976C145.103 12.584 144.914 12.297 144.536 12.115C144.158 11.933 143.542 11.723 142.688 11.485C141.974 11.289 141.365 11.1 140.861 10.918C140.357 10.736 139.951 10.533 139.643 10.309C139.335 10.071 139.111 9.805 138.971 9.511C138.831 9.203 138.761 8.839 138.761 8.419C138.761 7.859 138.866 7.355 139.076 6.907C139.3 6.459 139.608 6.081 140 5.773C140.392 5.451 140.847 5.206 141.365 5.038C141.897 4.87 142.471 4.786 143.087 4.786C143.913 4.786 144.683 4.905 145.397 5.143C146.125 5.381 146.79 5.766 147.392 6.298L146.258 7.999C145.698 7.579 145.152 7.271 144.62 7.075C144.102 6.879 143.584 6.781 143.066 6.781C142.59 6.781 142.191 6.879 141.869 7.075C141.547 7.271 141.386 7.586 141.386 8.02C141.386 8.216 141.421 8.377 141.491 8.503C141.575 8.629 141.701 8.741 141.869 8.839C142.037 8.937 142.254 9.035 142.52 9.133C142.8 9.217 143.143 9.308 143.549 9.406C144.305 9.602 144.949 9.798 145.481 9.994C146.027 10.19 146.468 10.414 146.804 10.666C147.154 10.918 147.406 11.212 147.56 11.548C147.728 11.87 147.812 12.262 147.812 12.724C147.812 13.802 147.413 14.656 146.615 15.286C145.817 15.902 144.732 16.21 143.36 16.21ZM153.588 16.21C152.664 16.21 151.761 16.063 150.879 15.769C149.997 15.475 149.241 15.055 148.611 14.509L149.661 12.745C150.333 13.221 150.984 13.585 151.614 13.837C152.258 14.075 152.895 14.194 153.525 14.194C154.085 14.194 154.526 14.089 154.848 13.879C155.17 13.669 155.331 13.368 155.331 12.976C155.331 12.584 155.142 12.297 154.764 12.115C154.386 11.933 153.77 11.723 152.916 11.485C152.202 11.289 151.593 11.1 151.089 10.918C150.585 10.736 150.179 10.533 149.871 10.309C149.563 10.071 149.339 9.805 149.199 9.511C149.059 9.203 148.989 8.839 148.989 8.419C148.989 7.859 149.094 7.355 149.304 6.907C149.528 6.459 149.836 6.081 150.228 5.773C150.62 5.451 151.075 5.206 151.593 5.038C152.125 4.87 152.699 4.786 153.315 4.786C154.141 4.786 154.911 4.905 155.625 5.143C156.353 5.381 157.018 5.766 157.62 6.298L156.486 7.999C155.926 7.579 155.38 7.271 154.848 7.075C154.33 6.879 153.812 6.781 153.294 6.781C152.818 6.781 152.419 6.879 152.097 7.075C151.775 7.271 151.614 7.586 151.614 8.02C151.614 8.216 151.649 8.377 151.719 8.503C151.803 8.629 151.929 8.741 152.097 8.839C152.265 8.937 152.482 9.035 152.748 9.133C153.028 9.217 153.371 9.308 153.777 9.406C154.533 9.602 155.177 9.798 155.709 9.994C156.255 10.19 156.696 10.414 157.032 10.666C157.382 10.918 157.634 11.212 157.788 11.548C157.956 11.87 158.04 12.262 158.04 12.724C158.04 13.802 157.641 14.656 156.843 15.286C156.045 15.902 154.96 16.21 153.588 16.21ZM173.104 4.996H175.771L171.172 16H168.862L166.972 11.17L165.103 16H162.793L158.215 4.996H160.861L164.137 13.354L165.481 9.784L163.549 5.017H165.817L166.972 8.398L168.148 5.017H170.416L168.505 9.784L169.828 13.354L173.104 4.996ZM181.552 16.21C180.656 16.21 179.851 16.056 179.137 15.748C178.423 15.44 177.814 15.027 177.31 14.509C176.82 13.977 176.442 13.368 176.176 12.682C175.91 11.996 175.777 11.275 175.777 10.519C175.777 9.749 175.91 9.021 176.176 8.335C176.442 7.649 176.82 7.047 177.31 6.529C177.814 5.997 178.423 5.577 179.137 5.269C179.851 4.961 180.656 4.807 181.552 4.807C182.448 4.807 183.246 4.961 183.946 5.269C184.66 5.577 185.262 5.997 185.752 6.529C186.256 7.047 186.641 7.649 186.907 8.335C187.173 9.021 187.306 9.749 187.306 10.519C187.306 11.275 187.173 11.996 186.907 12.682C186.641 13.368 186.263 13.977 185.773 14.509C185.283 15.027 184.681 15.44 183.967 15.748C183.253 16.056 182.448 16.21 181.552 16.21ZM178.675 10.519C178.675 11.009 178.745 11.457 178.885 11.863C179.039 12.255 179.242 12.598 179.494 12.892C179.76 13.186 180.068 13.417 180.418 13.585C180.768 13.739 181.146 13.816 181.552 13.816C181.958 13.816 182.336 13.739 182.686 13.585C183.036 13.417 183.337 13.186 183.589 12.892C183.855 12.598 184.058 12.248 184.198 11.842C184.352 11.436 184.429 10.988 184.429 10.498C184.429 10.022 184.352 9.581 184.198 9.175C184.058 8.769 183.855 8.419 183.589 8.125C183.337 7.831 183.036 7.607 182.686 7.453C182.336 7.285 181.958 7.201 181.552 7.201C181.146 7.201 180.768 7.285 180.418 7.453C180.068 7.621 179.76 7.852 179.494 8.146C179.242 8.44 179.039 8.79 178.885 9.196C178.745 9.602 178.675 10.043 178.675 10.519ZM195.548 7.432C194.694 7.446 193.931 7.614 193.259 7.936C192.587 8.244 192.104 8.713 191.81 9.343V16H188.996V4.996H191.579V7.348C191.775 6.97 192.006 6.634 192.272 6.34C192.538 6.032 192.825 5.766 193.133 5.542C193.441 5.318 193.749 5.15 194.057 5.038C194.379 4.912 194.687 4.849 194.981 4.849C195.135 4.849 195.247 4.849 195.317 4.849C195.401 4.849 195.478 4.856 195.548 4.87V7.432ZM200.91 16.21C200.154 16.21 199.454 16.063 198.81 15.769C198.166 15.475 197.613 15.069 197.151 14.551C196.689 14.033 196.325 13.431 196.059 12.745C195.807 12.045 195.681 11.296 195.681 10.498C195.681 9.7 195.8 8.958 196.038 8.272C196.29 7.586 196.633 6.984 197.067 6.466C197.501 5.948 198.019 5.542 198.621 5.248C199.223 4.954 199.881 4.807 200.595 4.807C201.407 4.807 202.135 5.003 202.779 5.395C203.437 5.787 203.948 6.298 204.312 6.928V0.67H207.126V12.766C207.126 13.06 207.175 13.27 207.273 13.396C207.371 13.522 207.539 13.592 207.777 13.606V16C207.287 16.098 206.888 16.147 206.58 16.147C206.076 16.147 205.663 16.021 205.341 15.769C205.019 15.517 204.837 15.188 204.795 14.782L204.732 14.089C204.326 14.789 203.773 15.321 203.073 15.685C202.387 16.035 201.666 16.21 200.91 16.21ZM201.645 13.816C201.911 13.816 202.184 13.774 202.464 13.69C202.744 13.592 203.003 13.459 203.241 13.291C203.479 13.123 203.689 12.927 203.871 12.703C204.067 12.479 204.214 12.234 204.312 11.968V9.343C204.2 9.035 204.039 8.755 203.829 8.503C203.633 8.237 203.402 8.013 203.136 7.831C202.884 7.635 202.611 7.481 202.317 7.369C202.037 7.257 201.757 7.201 201.477 7.201C201.057 7.201 200.665 7.292 200.301 7.474C199.951 7.656 199.65 7.908 199.398 8.23C199.146 8.538 198.95 8.895 198.81 9.301C198.67 9.707 198.6 10.127 198.6 10.561C198.6 11.023 198.677 11.45 198.831 11.842C198.985 12.234 199.195 12.577 199.461 12.871C199.727 13.165 200.042 13.396 200.406 13.564C200.784 13.732 201.197 13.816 201.645 13.816Z" fill="#202020"/>
</svg>
