<svg width="45" height="7" viewBox="0 0 45 7" fill="none" xmlns="http://www.w3.org/2000/svg">
<path d="M13 3C13 1.34315 14.3431 0 16 0H29C30.6569 0 32 1.34315 32 3V4C32 5.65685 30.6569 7 29 7H16C14.3431 7 13 5.65685 13 4V3Z" fill="#71CBFF"/>
<path d="M39 3C39 1.34315 40.3431 0 42 0C43.6569 0 45 1.34315 45 3V4C45 5.65685 43.6569 7 42 7C40.3431 7 39 5.65685 39 4V3Z" fill="#41455E"/>
<path d="M0 3C0 1.34315 1.34315 0 3 0C4.65685 0 6 1.34315 6 3V4C6 5.65685 4.65685 7 3 7C1.34315 7 0 5.65685 0 4V3Z" fill="#41455E"/>
</svg>
