<svg width="192" height="21" viewBox="0 0 192 21" fill="none" xmlns="http://www.w3.org/2000/svg">
<path d="M0.963004 16V1.09H7.284C7.97 1.09 8.6 1.237 9.174 1.531C9.762 1.811 10.266 2.189 10.686 2.665C11.106 3.127 11.435 3.659 11.673 4.261C11.911 4.849 12.03 5.444 12.03 6.046C12.03 6.676 11.918 7.292 11.694 7.894C11.47 8.482 11.155 9.007 10.749 9.469C10.343 9.931 9.853 10.302 9.279 10.582C8.705 10.862 8.075 11.002 7.389 11.002H3.861V16H0.963004ZM3.861 8.461H7.221C7.753 8.461 8.194 8.244 8.544 7.81C8.908 7.376 9.09 6.788 9.09 6.046C9.09 5.668 9.034 5.332 8.922 5.038C8.81 4.73 8.663 4.471 8.481 4.261C8.299 4.051 8.082 3.897 7.83 3.799C7.592 3.687 7.347 3.631 7.095 3.631H3.861V8.461ZM16.4644 16.21C15.9324 16.21 15.4354 16.126 14.9734 15.958C14.5114 15.776 14.1124 15.531 13.7764 15.223C13.4404 14.901 13.1744 14.53 12.9784 14.11C12.7964 13.69 12.7054 13.228 12.7054 12.724C12.7054 12.206 12.8174 11.73 13.0414 11.296C13.2794 10.848 13.6014 10.47 14.0074 10.162C14.4274 9.854 14.9244 9.616 15.4984 9.448C16.0724 9.266 16.7024 9.175 17.3884 9.175C17.8784 9.175 18.3544 9.217 18.8164 9.301C19.2924 9.385 19.7124 9.504 20.0764 9.658V9.028C20.0764 8.3 19.8664 7.74 19.4464 7.348C19.0404 6.956 18.4314 6.76 17.6194 6.76C17.0314 6.76 16.4574 6.865 15.8974 7.075C15.3374 7.285 14.7634 7.593 14.1754 7.999L13.3144 6.214C14.7284 5.276 16.2544 4.807 17.8924 4.807C19.4744 4.807 20.6994 5.199 21.5675 5.983C22.4495 6.753 22.8905 7.873 22.8905 9.343V12.766C22.8905 13.06 22.9395 13.27 23.0374 13.396C23.1495 13.522 23.3245 13.592 23.5625 13.606V16C23.0865 16.098 22.6734 16.147 22.3234 16.147C21.7914 16.147 21.3784 16.028 21.0845 15.79C20.8044 15.552 20.6294 15.237 20.5594 14.845L20.4965 14.236C20.0065 14.88 19.4115 15.37 18.7114 15.706C18.0114 16.042 17.2624 16.21 16.4644 16.21ZM17.2624 14.152C17.7384 14.152 18.1864 14.068 18.6064 13.9C19.0404 13.732 19.3764 13.508 19.6144 13.228C19.9224 12.99 20.0764 12.724 20.0764 12.43V11.17C19.7404 11.044 19.3764 10.946 18.9844 10.876C18.5924 10.792 18.2144 10.75 17.8504 10.75C17.1224 10.75 16.5274 10.918 16.0654 11.254C15.6034 11.576 15.3724 11.989 15.3724 12.493C15.3724 12.969 15.5544 13.368 15.9184 13.69C16.2824 13.998 16.7304 14.152 17.2624 14.152ZM29.468 16.21C28.544 16.21 27.641 16.063 26.759 15.769C25.877 15.475 25.121 15.055 24.491 14.509L25.541 12.745C26.213 13.221 26.864 13.585 27.494 13.837C28.138 14.075 28.775 14.194 29.405 14.194C29.965 14.194 30.406 14.089 30.728 13.879C31.05 13.669 31.211 13.368 31.211 12.976C31.211 12.584 31.022 12.297 30.644 12.115C30.266 11.933 29.65 11.723 28.796 11.485C28.082 11.289 27.473 11.1 26.969 10.918C26.465 10.736 26.059 10.533 25.751 10.309C25.443 10.071 25.219 9.805 25.079 9.511C24.939 9.203 24.869 8.839 24.869 8.419C24.869 7.859 24.974 7.355 25.184 6.907C25.408 6.459 25.716 6.081 26.108 5.773C26.5 5.451 26.955 5.206 27.473 5.038C28.005 4.87 28.579 4.786 29.195 4.786C30.021 4.786 30.791 4.905 31.505 5.143C32.233 5.381 32.898 5.766 33.5 6.298L32.366 7.999C31.806 7.579 31.26 7.271 30.728 7.075C30.21 6.879 29.692 6.781 29.174 6.781C28.698 6.781 28.299 6.879 27.977 7.075C27.655 7.271 27.494 7.586 27.494 8.02C27.494 8.216 27.529 8.377 27.599 8.503C27.683 8.629 27.809 8.741 27.977 8.839C28.145 8.937 28.362 9.035 28.628 9.133C28.908 9.217 29.251 9.308 29.657 9.406C30.413 9.602 31.057 9.798 31.589 9.994C32.135 10.19 32.576 10.414 32.912 10.666C33.262 10.918 33.514 11.212 33.668 11.548C33.836 11.87 33.92 12.262 33.92 12.724C33.92 13.802 33.521 14.656 32.723 15.286C31.925 15.902 30.84 16.21 29.468 16.21ZM39.6965 16.21C38.7725 16.21 37.8695 16.063 36.9875 15.769C36.1055 15.475 35.3495 15.055 34.7195 14.509L35.7695 12.745C36.4415 13.221 37.0925 13.585 37.7225 13.837C38.3665 14.075 39.0035 14.194 39.6335 14.194C40.1935 14.194 40.6345 14.089 40.9565 13.879C41.2785 13.669 41.4395 13.368 41.4395 12.976C41.4395 12.584 41.2505 12.297 40.8725 12.115C40.4945 11.933 39.8785 11.723 39.0245 11.485C38.3105 11.289 37.7015 11.1 37.1975 10.918C36.6935 10.736 36.2875 10.533 35.9795 10.309C35.6715 10.071 35.4475 9.805 35.3075 9.511C35.1675 9.203 35.0975 8.839 35.0975 8.419C35.0975 7.859 35.2025 7.355 35.4125 6.907C35.6365 6.459 35.9445 6.081 36.3365 5.773C36.7285 5.451 37.1835 5.206 37.7015 5.038C38.2335 4.87 38.8075 4.786 39.4235 4.786C40.2495 4.786 41.0195 4.905 41.7335 5.143C42.4615 5.381 43.1265 5.766 43.7285 6.298L42.5945 7.999C42.0345 7.579 41.4885 7.271 40.9565 7.075C40.4385 6.879 39.9205 6.781 39.4025 6.781C38.9265 6.781 38.5275 6.879 38.2055 7.075C37.8835 7.271 37.7225 7.586 37.7225 8.02C37.7225 8.216 37.7575 8.377 37.8275 8.503C37.9115 8.629 38.0375 8.741 38.2055 8.839C38.3735 8.937 38.5905 9.035 38.8565 9.133C39.1365 9.217 39.4795 9.308 39.8855 9.406C40.6415 9.602 41.2855 9.798 41.8175 9.994C42.3635 10.19 42.8045 10.414 43.1405 10.666C43.4905 10.918 43.7425 11.212 43.8965 11.548C44.0645 11.87 44.1485 12.262 44.1485 12.724C44.1485 13.802 43.7495 14.656 42.9515 15.286C42.1535 15.902 41.0685 16.21 39.6965 16.21ZM59.2119 4.996H61.8789L57.2799 16H54.9699L53.0799 11.17L51.2109 16H48.9009L44.3229 4.996H46.9689L50.2449 13.354L51.5889 9.784L49.6569 5.017H51.9249L53.0799 8.398L54.2559 5.017H56.5239L54.6129 9.784L55.9359 13.354L59.2119 4.996ZM67.6605 16.21C66.7645 16.21 65.9595 16.056 65.2455 15.748C64.5315 15.44 63.9225 15.027 63.4185 14.509C62.9285 13.977 62.5505 13.368 62.2845 12.682C62.0185 11.996 61.8855 11.275 61.8855 10.519C61.8855 9.749 62.0185 9.021 62.2845 8.335C62.5505 7.649 62.9285 7.047 63.4185 6.529C63.9225 5.997 64.5315 5.577 65.2455 5.269C65.9595 4.961 66.7645 4.807 67.6605 4.807C68.5565 4.807 69.3545 4.961 70.0545 5.269C70.7685 5.577 71.3705 5.997 71.8605 6.529C72.3645 7.047 72.7495 7.649 73.0155 8.335C73.2815 9.021 73.4145 9.749 73.4145 10.519C73.4145 11.275 73.2815 11.996 73.0155 12.682C72.7495 13.368 72.3715 13.977 71.8815 14.509C71.3915 15.027 70.7895 15.44 70.0755 15.748C69.3615 16.056 68.5565 16.21 67.6605 16.21ZM64.7835 10.519C64.7835 11.009 64.8535 11.457 64.9935 11.863C65.1475 12.255 65.3505 12.598 65.6025 12.892C65.8685 13.186 66.1765 13.417 66.5265 13.585C66.8765 13.739 67.2545 13.816 67.6605 13.816C68.0665 13.816 68.4445 13.739 68.7945 13.585C69.1445 13.417 69.4455 13.186 69.6975 12.892C69.9635 12.598 70.1665 12.248 70.3065 11.842C70.4605 11.436 70.5375 10.988 70.5375 10.498C70.5375 10.022 70.4605 9.581 70.3065 9.175C70.1665 8.769 69.9635 8.419 69.6975 8.125C69.4455 7.831 69.1445 7.607 68.7945 7.453C68.4445 7.285 68.0665 7.201 67.6605 7.201C67.2545 7.201 66.8765 7.285 66.5265 7.453C66.1765 7.621 65.8685 7.852 65.6025 8.146C65.3505 8.44 65.1475 8.79 64.9935 9.196C64.8535 9.602 64.7835 10.043 64.7835 10.519ZM81.6558 7.432C80.8018 7.446 80.0388 7.614 79.3668 7.936C78.6948 8.244 78.2118 8.713 77.9178 9.343V16H75.1038V4.996H77.6868V7.348C77.8828 6.97 78.1138 6.634 78.3798 6.34C78.6458 6.032 78.9328 5.766 79.2408 5.542C79.5488 5.318 79.8568 5.15 80.1648 5.038C80.4868 4.912 80.7948 4.849 81.0888 4.849C81.2428 4.849 81.3548 4.849 81.4248 4.849C81.5088 4.849 81.5858 4.856 81.6558 4.87V7.432ZM87.0182 16.21C86.2622 16.21 85.5622 16.063 84.9182 15.769C84.2742 15.475 83.7212 15.069 83.2592 14.551C82.7972 14.033 82.4332 13.431 82.1672 12.745C81.9152 12.045 81.7892 11.296 81.7892 10.498C81.7892 9.7 81.9082 8.958 82.1462 8.272C82.3982 7.586 82.7412 6.984 83.1752 6.466C83.6092 5.948 84.1272 5.542 84.7292 5.248C85.3312 4.954 85.9892 4.807 86.7032 4.807C87.5152 4.807 88.2432 5.003 88.8872 5.395C89.5452 5.787 90.0562 6.298 90.4202 6.928V0.67H93.2342V12.766C93.2342 13.06 93.2832 13.27 93.3812 13.396C93.4792 13.522 93.6472 13.592 93.8852 13.606V16C93.3952 16.098 92.9962 16.147 92.6882 16.147C92.1842 16.147 91.7712 16.021 91.4492 15.769C91.1272 15.517 90.9452 15.188 90.9032 14.782L90.8402 14.089C90.4342 14.789 89.8812 15.321 89.1812 15.685C88.4952 16.035 87.7742 16.21 87.0182 16.21ZM87.7532 13.816C88.0192 13.816 88.2922 13.774 88.5722 13.69C88.8522 13.592 89.1112 13.459 89.3492 13.291C89.5872 13.123 89.7972 12.927 89.9792 12.703C90.1752 12.479 90.3222 12.234 90.4202 11.968V9.343C90.3082 9.035 90.1472 8.755 89.9372 8.503C89.7412 8.237 89.5102 8.013 89.2442 7.831C88.9922 7.635 88.7192 7.481 88.4252 7.369C88.1452 7.257 87.8652 7.201 87.5852 7.201C87.1652 7.201 86.7732 7.292 86.4092 7.474C86.0592 7.656 85.7582 7.908 85.5062 8.23C85.2542 8.538 85.0582 8.895 84.9182 9.301C84.7782 9.707 84.7082 10.127 84.7082 10.561C84.7082 11.023 84.7852 11.45 84.9392 11.842C85.0932 12.234 85.3032 12.577 85.5692 12.871C85.8352 13.165 86.1502 13.396 86.5142 13.564C86.8922 13.732 87.3052 13.816 87.7532 13.816ZM100.894 16V1.09H107.488C108.174 1.09 108.804 1.237 109.378 1.531C109.966 1.811 110.47 2.189 110.89 2.665C111.31 3.127 111.639 3.659 111.877 4.261C112.115 4.849 112.234 5.444 112.234 6.046C112.234 7.012 111.989 7.894 111.499 8.692C111.023 9.476 110.372 10.043 109.546 10.393L112.948 16H109.693L106.648 11.002H103.792V16H100.894ZM103.792 8.461H107.425C107.691 8.461 107.936 8.398 108.16 8.272C108.398 8.146 108.601 7.978 108.769 7.768C108.937 7.544 109.07 7.285 109.168 6.991C109.266 6.697 109.315 6.382 109.315 6.046C109.315 5.696 109.259 5.374 109.147 5.08C109.035 4.786 108.881 4.534 108.685 4.324C108.503 4.1 108.286 3.932 108.034 3.82C107.796 3.694 107.551 3.631 107.299 3.631H103.792V8.461ZM119.172 16.21C118.29 16.21 117.492 16.063 116.778 15.769C116.064 15.461 115.455 15.048 114.951 14.53C114.447 14.012 114.055 13.41 113.775 12.724C113.509 12.038 113.376 11.317 113.376 10.561C113.376 9.777 113.509 9.042 113.775 8.356C114.041 7.656 114.426 7.047 114.93 6.529C115.434 5.997 116.043 5.577 116.757 5.269C117.485 4.961 118.297 4.807 119.193 4.807C120.089 4.807 120.887 4.961 121.587 5.269C122.301 5.577 122.903 5.99 123.393 6.508C123.897 7.026 124.275 7.628 124.527 8.314C124.793 9 124.926 9.714 124.926 10.456C124.926 10.638 124.919 10.813 124.905 10.981C124.905 11.149 124.891 11.289 124.863 11.401H116.358C116.4 11.835 116.505 12.22 116.673 12.556C116.841 12.892 117.058 13.179 117.324 13.417C117.59 13.655 117.891 13.837 118.227 13.963C118.563 14.089 118.913 14.152 119.277 14.152C119.837 14.152 120.362 14.019 120.852 13.753C121.356 13.473 121.699 13.109 121.881 12.661L124.296 13.333C123.89 14.173 123.239 14.866 122.343 15.412C121.461 15.944 120.404 16.21 119.172 16.21ZM122.028 9.574C121.958 8.748 121.65 8.09 121.104 7.6C120.572 7.096 119.921 6.844 119.151 6.844C118.773 6.844 118.416 6.914 118.08 7.054C117.758 7.18 117.471 7.362 117.219 7.6C116.967 7.838 116.757 8.125 116.589 8.461C116.435 8.797 116.344 9.168 116.316 9.574H122.028ZM125.738 10.498C125.738 9.728 125.871 9 126.137 8.314C126.403 7.628 126.788 7.026 127.292 6.508C127.796 5.99 128.405 5.577 129.119 5.269C129.833 4.961 130.638 4.807 131.534 4.807C132.738 4.807 133.76 5.066 134.6 5.584C135.454 6.102 136.091 6.781 136.511 7.621L133.76 8.461C133.522 8.055 133.207 7.747 132.815 7.537C132.423 7.313 131.989 7.201 131.513 7.201C131.107 7.201 130.729 7.285 130.379 7.453C130.029 7.607 129.721 7.831 129.455 8.125C129.203 8.405 129 8.748 128.846 9.154C128.706 9.56 128.636 10.008 128.636 10.498C128.636 10.988 128.713 11.436 128.867 11.842C129.021 12.248 129.224 12.598 129.476 12.892C129.742 13.186 130.05 13.417 130.4 13.585C130.75 13.739 131.121 13.816 131.513 13.816C132.017 13.816 132.479 13.69 132.899 13.438C133.333 13.186 133.634 12.878 133.802 12.514L136.553 13.354C136.175 14.194 135.552 14.88 134.684 15.412C133.816 15.944 132.773 16.21 131.555 16.21C130.659 16.21 129.854 16.056 129.14 15.748C128.426 15.44 127.817 15.027 127.313 14.509C126.809 13.977 126.417 13.368 126.137 12.682C125.871 11.982 125.738 11.254 125.738 10.498ZM143.054 16.21C142.158 16.21 141.353 16.056 140.639 15.748C139.925 15.44 139.316 15.027 138.812 14.509C138.322 13.977 137.944 13.368 137.678 12.682C137.412 11.996 137.279 11.275 137.279 10.519C137.279 9.749 137.412 9.021 137.678 8.335C137.944 7.649 138.322 7.047 138.812 6.529C139.316 5.997 139.925 5.577 140.639 5.269C141.353 4.961 142.158 4.807 143.054 4.807C143.95 4.807 144.748 4.961 145.448 5.269C146.162 5.577 146.764 5.997 147.254 6.529C147.758 7.047 148.143 7.649 148.409 8.335C148.675 9.021 148.808 9.749 148.808 10.519C148.808 11.275 148.675 11.996 148.409 12.682C148.143 13.368 147.765 13.977 147.275 14.509C146.785 15.027 146.183 15.44 145.469 15.748C144.755 16.056 143.95 16.21 143.054 16.21ZM140.177 10.519C140.177 11.009 140.247 11.457 140.387 11.863C140.541 12.255 140.744 12.598 140.996 12.892C141.262 13.186 141.57 13.417 141.92 13.585C142.27 13.739 142.648 13.816 143.054 13.816C143.46 13.816 143.838 13.739 144.188 13.585C144.538 13.417 144.839 13.186 145.091 12.892C145.357 12.598 145.56 12.248 145.7 11.842C145.854 11.436 145.931 10.988 145.931 10.498C145.931 10.022 145.854 9.581 145.7 9.175C145.56 8.769 145.357 8.419 145.091 8.125C144.839 7.831 144.538 7.607 144.188 7.453C143.838 7.285 143.46 7.201 143.054 7.201C142.648 7.201 142.27 7.285 141.92 7.453C141.57 7.621 141.262 7.852 140.996 8.146C140.744 8.44 140.541 8.79 140.387 9.196C140.247 9.602 140.177 10.043 140.177 10.519ZM153.068 16L149.015 4.996H151.913L154.706 13.711L157.52 4.996H160.166L156.113 16H153.068ZM166.157 16.21C165.275 16.21 164.477 16.063 163.763 15.769C163.049 15.461 162.44 15.048 161.936 14.53C161.432 14.012 161.04 13.41 160.76 12.724C160.494 12.038 160.361 11.317 160.361 10.561C160.361 9.777 160.494 9.042 160.76 8.356C161.026 7.656 161.411 7.047 161.915 6.529C162.419 5.997 163.028 5.577 163.742 5.269C164.47 4.961 165.282 4.807 166.178 4.807C167.074 4.807 167.872 4.961 168.572 5.269C169.286 5.577 169.888 5.99 170.378 6.508C170.882 7.026 171.26 7.628 171.512 8.314C171.778 9 171.911 9.714 171.911 10.456C171.911 10.638 171.904 10.813 171.89 10.981C171.89 11.149 171.876 11.289 171.848 11.401H163.343C163.385 11.835 163.49 12.22 163.658 12.556C163.826 12.892 164.043 13.179 164.309 13.417C164.575 13.655 164.876 13.837 165.212 13.963C165.548 14.089 165.898 14.152 166.262 14.152C166.822 14.152 167.347 14.019 167.837 13.753C168.341 13.473 168.684 13.109 168.866 12.661L171.281 13.333C170.875 14.173 170.224 14.866 169.328 15.412C168.446 15.944 167.389 16.21 166.157 16.21ZM169.013 9.574C168.943 8.748 168.635 8.09 168.089 7.6C167.557 7.096 166.906 6.844 166.136 6.844C165.758 6.844 165.401 6.914 165.065 7.054C164.743 7.18 164.456 7.362 164.204 7.6C163.952 7.838 163.742 8.125 163.574 8.461C163.42 8.797 163.329 9.168 163.301 9.574H169.013ZM179.967 7.432C179.113 7.446 178.35 7.614 177.678 7.936C177.006 8.244 176.523 8.713 176.229 9.343V16H173.415V4.996H175.998V7.348C176.194 6.97 176.425 6.634 176.691 6.34C176.957 6.032 177.244 5.766 177.552 5.542C177.86 5.318 178.168 5.15 178.476 5.038C178.798 4.912 179.106 4.849 179.4 4.849C179.554 4.849 179.666 4.849 179.736 4.849C179.82 4.849 179.897 4.856 179.967 4.87V7.432ZM181.557 18.142C181.795 18.212 182.026 18.261 182.25 18.289C182.474 18.331 182.663 18.352 182.817 18.352C182.999 18.352 183.167 18.317 183.321 18.247C183.475 18.177 183.615 18.051 183.741 17.869C183.867 17.701 183.993 17.463 184.119 17.155C184.245 16.847 184.378 16.462 184.518 16L180.171 4.996H183.069L186.051 13.564L188.697 4.996H191.343L186.723 18.184C186.457 18.954 186.002 19.584 185.358 20.074C184.714 20.564 183.916 20.809 182.964 20.809C182.74 20.809 182.509 20.788 182.271 20.746C182.047 20.718 181.809 20.662 181.557 20.578V18.142Z" fill="#202020"/>
</svg>
